<?xml version="1.0" encoding="UTF-8"?>
<!DOCTYPE svg PUBLIC "-//W3C//DTD SVG 1.1//EN" "http://www.w3.org/Graphics/SVG/1.1/DTD/svg11.dtd">
<svg xmlns="http://www.w3.org/2000/svg" version="1.1" width="512px" height="512px" style="shape-rendering:geometricPrecision; text-rendering:geometricPrecision; image-rendering:optimizeQuality; fill-rule:evenodd; clip-rule:evenodd" xmlns:xlink="http://www.w3.org/1999/xlink">
<g><path style="opacity:0.994" fill="#004b37" d="M 354.5,-0.5 C 361.167,-0.5 367.833,-0.5 374.5,-0.5C 394.429,4.39381 408.262,16.3938 416,35.5C 422.983,61.5517 415.817,82.7183 394.5,99C 384.89,104.486 374.557,107.653 363.5,108.5C 367.085,116.84 369.418,125.506 370.5,134.5C 371.972,144.528 371.806,154.528 370,164.5C 369.218,161.69 368.384,159.023 367.5,156.5C 367.5,156.167 367.5,155.833 367.5,155.5C 365.236,144.041 361.569,133.041 356.5,122.5C 355.833,122.167 355.167,121.833 354.5,121.5C 334.705,125.843 314.705,127.177 294.5,125.5C 296.808,122.025 299.308,118.692 302,115.5C 302.688,114.668 302.521,114.002 301.5,113.5C 287.533,121.244 272.533,125.744 256.5,127C 241.383,128.009 226.383,127.175 211.5,124.5C 214.64,117.835 218.474,111.501 223,105.5C 223.667,104.833 223.667,104.167 223,103.5C 217.415,107.377 211.582,110.877 205.5,114C 194.582,118.862 183.582,123.528 172.5,128C 163.168,135.155 157.835,144.655 156.5,156.5C 154.483,155.471 152.483,154.471 150.5,153.5C 148.209,144.963 145.542,136.63 142.5,128.5C 142.207,124.563 142.54,120.73 143.5,117C 103.33,114.166 83.1635,92.6658 83,52.5C 89.009,20.6593 108.176,3.32592 140.5,0.5C 166.522,2.03882 184.689,14.7055 195,38.5C 196.812,44.0404 197.979,49.7071 198.5,55.5C 226.751,45.3542 255.751,42.6876 285.5,47.5C 293.936,48.983 302.102,51.3164 310,54.5C 310.272,34.1158 318.772,18.2825 335.5,7C 341.604,3.58334 347.937,1.08334 354.5,-0.5 Z"/></g>
<g><path style="opacity:0.994" fill="#fdb2c1" d="M 367.5,155.5 C 364.292,157.021 361.126,158.688 358,160.5C 340.032,137.136 317.865,132.303 291.5,146C 279.611,155.106 272.611,167.106 270.5,182C 270.608,183.681 271.275,184.848 272.5,185.5C 272.961,200.091 278.961,211.758 290.5,220.5C 288.618,240.533 297.285,254.033 316.5,261C 338.856,264.579 353.69,255.745 361,234.5C 361.667,228.5 361.667,222.5 361,216.5C 360.131,212.734 358.298,209.734 355.5,207.5C 359.244,201.003 361.577,194.003 362.5,186.5C 363.434,185.432 363.768,184.099 363.5,182.5C 378.152,182.331 378.152,181.831 363.5,181C 362.568,177.915 361.901,174.748 361.5,171.5C 365.325,171.115 368.991,170.115 372.5,168.5C 372,168.167 371.5,167.833 371,167.5C 367.569,168.811 364.069,169.811 360.5,170.5C 360.244,168.063 359.577,165.729 358.5,163.5C 361.349,160.916 364.349,158.583 367.5,156.5C 368.384,159.023 369.218,161.69 370,164.5C 371.806,154.528 371.972,144.528 370.5,134.5C 396.126,122.698 418.626,127.031 438,147.5C 452.148,168.169 453.148,189.502 441,211.5C 432.864,223.472 421.698,230.806 407.5,233.5C 408.594,231.641 409.427,229.641 410,227.5C 411.237,217.512 411.904,207.512 412,197.5C 408.905,204.201 406.571,211.201 405,218.5C 404.586,218.957 404.086,219.291 403.5,219.5C 399.167,218.833 394.833,218.167 390.5,217.5C 388.678,210.225 387.178,202.892 386,195.5C 384.105,204.678 382.605,214.012 381.5,223.5C 381.76,226.607 382.426,229.607 383.5,232.5C 380.055,231.851 376.889,230.518 374,228.5C 370.62,248.754 359.787,263.587 341.5,273C 332.642,277.436 323.642,281.27 314.5,284.5C 307.241,285.071 300.241,286.405 293.5,288.5C 288.878,288.156 284.545,288.823 280.5,290.5C 263.143,290.762 245.81,290.429 228.5,289.5C 223.126,289.113 217.793,288.446 212.5,287.5C 206.961,285.965 201.294,284.965 195.5,284.5C 175.859,279.269 160.359,268.269 149,251.5C 143.713,241.806 140.546,231.473 139.5,220.5C 140.329,216.11 139.829,211.777 138,207.5C 137.924,211.819 138.091,216.152 138.5,220.5C 109.441,232.976 85.9405,226.309 68,200.5C 56.2302,174.687 60.3969,151.854 80.5,132C 95.8783,120.304 112.878,117.304 131.5,123C 135.472,124.319 139.139,126.153 142.5,128.5C 145.542,136.63 148.209,144.963 150.5,153.5C 150.328,154.492 150.662,155.158 151.5,155.5C 152.016,158.899 152.85,162.232 154,165.5C 154.813,163.564 155.313,161.564 155.5,159.5C 157.346,159.222 158.68,159.889 159.5,161.5C 158.399,163.642 157.399,165.808 156.5,168C 153.056,167.914 149.723,167.08 146.5,165.5C 146.167,165.833 145.833,166.167 145.5,166.5C 148.593,168.309 151.926,169.309 155.5,169.5C 154.949,172.807 154.616,176.14 154.5,179.5C 138.5,179.833 138.5,180.167 154.5,180.5C 154.232,182.099 154.566,183.432 155.5,184.5C 155.181,191.202 156.514,197.535 159.5,203.5C 148.667,221.104 150.667,237.27 165.5,252C 180.231,262.92 195.231,263.254 210.5,253C 220.853,244.733 225.186,234.233 223.5,221.5C 236.868,213.41 244.201,201.41 245.5,185.5C 246.29,167.588 238.956,153.754 223.5,144C 198.055,131.585 177.055,136.752 160.5,159.5C 159.099,158.479 157.765,157.479 156.5,156.5C 157.835,144.655 163.168,135.155 172.5,128C 183.582,123.528 194.582,118.862 205.5,114C 211.582,110.877 217.415,107.377 223,103.5C 223.667,104.167 223.667,104.833 223,105.5C 218.474,111.501 214.64,117.835 211.5,124.5C 226.383,127.175 241.383,128.009 256.5,127C 272.533,125.744 287.533,121.244 301.5,113.5C 302.521,114.002 302.688,114.668 302,115.5C 299.308,118.692 296.808,122.025 294.5,125.5C 314.705,127.177 334.705,125.843 354.5,121.5C 355.167,121.833 355.833,122.167 356.5,122.5C 361.569,133.041 365.236,144.041 367.5,155.5 Z"/></g>
<g><path style="opacity:1" fill="#faf9f9" d="M 245.5,185.5 C 244.201,201.41 236.868,213.41 223.5,221.5C 196.734,234.351 175.4,228.351 159.5,203.5C 156.514,197.535 155.181,191.202 155.5,184.5C 158.939,151.888 176.939,137.055 209.5,140C 231.796,147.119 243.796,162.285 245.5,185.5 Z"/></g>
<g><path style="opacity:1" fill="#f9f8f9" d="M 362.5,186.5 C 361.577,194.003 359.244,201.003 355.5,207.5C 344.343,224.072 328.677,230.905 308.5,228C 301.937,226.759 295.937,224.259 290.5,220.5C 278.961,211.758 272.961,200.091 272.5,185.5C 274.731,157.435 289.898,142.102 318,139.5C 337.782,140.628 351.449,150.294 359,168.5C 360.731,174.529 361.898,180.529 362.5,186.5 Z"/></g>
<g><path style="opacity:1" fill="#020202" d="M 192.5,147.5 C 220.524,147.025 234.358,160.692 234,188.5C 228.543,209.939 214.71,219.773 192.5,218C 171.316,211.138 162.15,196.638 165,174.5C 169.419,160.58 178.586,151.58 192.5,147.5 Z"/></g>
<g><path style="opacity:1" fill="#020202" d="M 310.5,148.5 C 338.995,147.496 353.161,161.163 353,189.5C 346.558,211.92 331.725,221.42 308.5,218C 289.447,210.74 280.947,196.906 283,176.5C 287.016,161.985 296.183,152.652 310.5,148.5 Z"/></g>
<g><path style="opacity:1" fill="#104d3b" d="M 151.5,155.5 C 153.341,156.402 154.674,157.736 155.5,159.5C 155.313,161.564 154.813,163.564 154,165.5C 152.85,162.232 152.016,158.899 151.5,155.5 Z"/></g>
<g><path style="opacity:1" fill="#231d1e" d="M 367.5,155.5 C 367.5,155.833 367.5,156.167 367.5,156.5C 364.349,158.583 361.349,160.916 358.5,163.5C 359.577,165.729 360.244,168.063 360.5,170.5C 364.069,169.811 367.569,168.811 371,167.5C 371.5,167.833 372,168.167 372.5,168.5C 368.991,170.115 365.325,171.115 361.5,171.5C 361.901,174.748 362.568,177.915 363.5,181C 378.152,181.831 378.152,182.331 363.5,182.5C 363.768,184.099 363.434,185.432 362.5,186.5C 361.898,180.529 360.731,174.529 359,168.5C 351.449,150.294 337.782,140.628 318,139.5C 289.898,142.102 274.731,157.435 272.5,185.5C 271.275,184.848 270.608,183.681 270.5,182C 272.611,167.106 279.611,155.106 291.5,146C 317.865,132.303 340.032,137.136 358,160.5C 361.126,158.688 364.292,157.021 367.5,155.5 Z"/></g>
<g><path style="opacity:1" fill="#211c1d" d="M 245.5,185.5 C 243.796,162.285 231.796,147.119 209.5,140C 176.939,137.055 158.939,151.888 155.5,184.5C 154.566,183.432 154.232,182.099 154.5,180.5C 138.5,180.167 138.5,179.833 154.5,179.5C 154.616,176.14 154.949,172.807 155.5,169.5C 151.926,169.309 148.593,168.309 145.5,166.5C 145.833,166.167 146.167,165.833 146.5,165.5C 149.723,167.08 153.056,167.914 156.5,168C 157.399,165.808 158.399,163.642 159.5,161.5C 158.68,159.889 157.346,159.222 155.5,159.5C 154.674,157.736 153.341,156.402 151.5,155.5C 150.662,155.158 150.328,154.492 150.5,153.5C 152.483,154.471 154.483,155.471 156.5,156.5C 157.765,157.479 159.099,158.479 160.5,159.5C 177.055,136.752 198.055,131.585 223.5,144C 238.956,153.754 246.29,167.588 245.5,185.5 Z"/></g>
<g><path style="opacity:1" fill="#2b1f21" d="M 85.5,166.5 C 98.1931,171.232 110.86,176.065 123.5,181C 112.326,178.164 101.326,174.498 90.5,170C 88.2404,169.451 86.5738,168.284 85.5,166.5 Z"/></g>
<g><path style="opacity:1" fill="#2d2123" d="M 416.5,173.5 C 419.113,174.095 419.113,174.929 416.5,176C 404.387,180.557 392.387,185.39 380.5,190.5C 380.167,190.167 379.833,189.833 379.5,189.5C 392.031,184.396 404.364,179.062 416.5,173.5 Z"/></g>
<g><path style="opacity:0.981" fill="#a4b841" d="M 407.5,233.5 C 406.162,235.67 404.328,237.336 402,238.5C 399.932,250.807 398.099,263.14 396.5,275.5C 395.833,275.5 395.167,275.5 394.5,275.5C 393.833,275.5 393.167,275.5 392.5,275.5C 389.211,274.626 385.877,273.959 382.5,273.5C 384.8,261.239 386.3,248.906 387,236.5C 385.624,235.295 384.458,233.962 383.5,232.5C 382.426,229.607 381.76,226.607 381.5,223.5C 382.605,214.012 384.105,204.678 386,195.5C 387.178,202.892 388.678,210.225 390.5,217.5C 394.833,218.167 399.167,218.833 403.5,219.5C 404.086,219.291 404.586,218.957 405,218.5C 406.571,211.201 408.905,204.201 412,197.5C 411.904,207.512 411.237,217.512 410,227.5C 409.427,229.641 408.594,231.641 407.5,233.5 Z"/></g>
<g><path style="opacity:1" fill="#ff64bd" d="M 159.5,203.5 C 175.4,228.351 196.734,234.351 223.5,221.5C 225.186,234.233 220.853,244.733 210.5,253C 195.231,263.254 180.231,262.92 165.5,252C 150.667,237.27 148.667,221.104 159.5,203.5 Z"/></g>
<g><path style="opacity:1" fill="#ff64bd" d="M 355.5,207.5 C 358.298,209.734 360.131,212.734 361,216.5C 361.667,222.5 361.667,228.5 361,234.5C 353.69,255.745 338.856,264.579 316.5,261C 297.285,254.033 288.618,240.533 290.5,220.5C 295.937,224.259 301.937,226.759 308.5,228C 328.677,230.905 344.343,224.072 355.5,207.5 Z"/></g>
<g><path style="opacity:1" fill="#3c2b2f" d="M 139.5,220.5 C 139.167,220.5 138.833,220.5 138.5,220.5C 138.091,216.152 137.924,211.819 138,207.5C 139.829,211.777 140.329,216.11 139.5,220.5 Z"/></g>
<g><path style="opacity:1" fill="#fcfafb" d="M 248.5,222.5 C 243.404,231.701 238.07,240.701 232.5,249.5C 229.257,245.261 227.923,240.427 228.5,235C 227.395,225.349 231.395,219.182 240.5,216.5C 244.637,216.647 247.303,218.647 248.5,222.5 Z"/></g>
<g><path style="opacity:1" fill="#fcfafb" d="M 280.5,250.5 C 275.99,241.471 270.99,232.804 265.5,224.5C 270.201,217.392 275.701,216.725 282,222.5C 287.02,232.231 286.52,241.564 280.5,250.5 Z"/></g>
<g><path style="opacity:1" fill="#242424" d="M 248.5,222.5 C 249.338,222.842 249.672,223.508 249.5,224.5C 244.167,233.167 238.833,241.833 233.5,250.5C 232.833,250.5 232.5,250.167 232.5,249.5C 238.07,240.701 243.404,231.701 248.5,222.5 Z"/></g>
<g><path style="opacity:1" fill="#fafafa" d="M 249.5,224.5 C 251.573,226.58 253.907,228.246 256.5,229.5C 255.804,240.152 255.47,250.819 255.5,261.5C 246.518,261.009 239.185,257.342 233.5,250.5C 238.833,241.833 244.167,233.167 249.5,224.5 Z"/></g>
<g><path style="opacity:1" fill="#fafafa" d="M 264.5,225.5 C 269.485,234.131 274.485,242.798 279.5,251.5C 273.597,258.696 265.93,262.03 256.5,261.5C 257.043,250.841 257.377,240.175 257.5,229.5C 260.652,229.429 262.986,228.095 264.5,225.5 Z"/></g>
<g><path style="opacity:1" fill="#282828" d="M 264.5,225.5 C 264.5,224.833 264.833,224.5 265.5,224.5C 270.99,232.804 275.99,241.471 280.5,250.5C 280.5,251.167 280.167,251.5 279.5,251.5C 274.485,242.798 269.485,234.131 264.5,225.5 Z"/></g>
<g><path style="opacity:1" fill="#2a2a2a" d="M 256.5,229.5 C 256.833,229.5 257.167,229.5 257.5,229.5C 257.377,240.175 257.043,250.841 256.5,261.5C 256.167,261.5 255.833,261.5 255.5,261.5C 255.47,250.819 255.804,240.152 256.5,229.5 Z"/></g>
<g><path style="opacity:0.983" fill="#fdb2c0" d="M 382.5,273.5 C 385.877,273.959 389.211,274.626 392.5,275.5C 392.821,277.048 393.821,277.715 395.5,277.5C 396.833,278.933 398.333,280.267 400,281.5C 402.653,286.536 401.153,289.703 395.5,291C 392.132,291.543 388.799,291.376 385.5,290.5C 385.607,292.903 384.607,294.736 382.5,296C 379.23,296.995 375.897,297.828 372.5,298.5C 374.396,299.466 376.396,299.799 378.5,299.5C 377.646,311.006 375.98,322.34 373.5,333.5C 367.454,341.528 359.454,346.528 349.5,348.5C 339.634,343.734 329.3,340.401 318.5,338.5C 318.5,337.833 318.167,337.5 317.5,337.5C 313.139,332.807 308.805,328.141 304.5,323.5C 304.5,323.167 304.5,322.833 304.5,322.5C 305.566,320.299 306.233,317.965 306.5,315.5C 312.731,313.692 319.065,312.359 325.5,311.5C 339.69,331.386 351.523,330.052 361,307.5C 363.864,301.164 365.197,294.498 365,287.5C 367.476,278.514 373.31,273.847 382.5,273.5 Z"/></g>
<g><path style="opacity:0.894" fill="#f6adbb" d="M 394.5,275.5 C 395.167,275.5 395.833,275.5 396.5,275.5C 402.643,275.288 404.976,277.955 403.5,283.5C 401.712,280.385 399.046,278.385 395.5,277.5C 395.167,276.833 394.833,276.167 394.5,275.5 Z"/></g>
<g><path style="opacity:1" fill="#271f1e" d="M 392.5,275.5 C 393.167,275.5 393.833,275.5 394.5,275.5C 394.833,276.167 395.167,276.833 395.5,277.5C 393.821,277.715 392.821,277.048 392.5,275.5 Z"/></g>
<g><path style="opacity:0.967" fill="#ffb70e" d="M 195.5,284.5 C 201.294,284.965 206.961,285.965 212.5,287.5C 212.5,288.5 212.5,289.5 212.5,290.5C 210.417,291.029 208.583,292.029 207,293.5C 200.503,289.998 196.336,291.832 194.5,299C 195.779,304.148 199.112,306.648 204.5,306.5C 203.548,309.697 202.215,312.697 200.5,315.5C 195.421,314.029 190.421,312.363 185.5,310.5C 183.304,310.435 181.304,309.768 179.5,308.5C 183.851,299.783 189.185,291.783 195.5,284.5 Z"/></g>
<g><path style="opacity:0.962" fill="#ffb812" d="M 314.5,284.5 C 322.184,291.873 327.851,300.54 331.5,310.5C 329.435,310.517 327.435,310.85 325.5,311.5C 319.065,312.359 312.731,313.692 306.5,315.5C 306.076,312.646 305.076,309.979 303.5,307.5C 311.076,306.776 314.242,302.776 313,295.5C 309.686,291.268 305.853,290.602 301.5,293.5C 299.49,291.829 297.157,291.162 294.5,291.5C 294.443,290.391 294.11,289.391 293.5,288.5C 300.241,286.405 307.241,285.071 314.5,284.5 Z"/></g>
<g><path style="opacity:0.957" fill="#eea7b5" d="M 403.5,284.5 C 408.287,286.818 409.62,290.484 407.5,295.5C 402.156,295.334 396.823,295.501 391.5,296C 387.674,298.363 386.007,297.197 386.5,292.5C 390.514,292.666 394.514,292.499 398.5,292C 401.2,290.143 402.866,287.643 403.5,284.5 Z"/></g>
<g><path style="opacity:1" fill="#ff69be" d="M 212.5,287.5 C 217.793,288.446 223.126,289.113 228.5,289.5C 228.058,293.154 227.724,296.821 227.5,300.5C 225.409,300.318 223.409,300.652 221.5,301.5C 220.588,295.952 217.588,292.285 212.5,290.5C 212.5,289.5 212.5,288.5 212.5,287.5 Z"/></g>
<g><path style="opacity:1" fill="#ff6dbe" d="M 293.5,288.5 C 294.11,289.391 294.443,290.391 294.5,291.5C 289.815,293.518 287.649,297.184 288,302.5C 286.211,300.771 284.044,300.104 281.5,300.5C 281.54,297.119 281.207,293.786 280.5,290.5C 284.545,288.823 288.878,288.156 293.5,288.5 Z"/></g>
<g><path style="opacity:1" fill="#ffb609" d="M 228.5,289.5 C 245.81,290.429 263.143,290.762 280.5,290.5C 281.207,293.786 281.54,297.119 281.5,300.5C 275.381,301.119 272.881,304.453 274,310.5C 274.743,313.82 275.91,316.987 277.5,320C 277.43,320.765 277.097,321.265 276.5,321.5C 261.5,321.5 246.5,321.5 231.5,321.5C 230.957,321.44 230.624,321.107 230.5,320.5C 234.021,315.308 235.187,309.641 234,303.5C 232.266,301.549 230.099,300.549 227.5,300.5C 227.724,296.821 228.058,293.154 228.5,289.5 Z"/></g>
<g><path style="opacity:1" fill="#fefcfb" d="M 212.5,290.5 C 217.588,292.285 220.588,295.952 221.5,301.5C 223.409,300.652 225.409,300.318 227.5,300.5C 230.099,300.549 232.266,301.549 234,303.5C 235.187,309.641 234.021,315.308 230.5,320.5C 230.624,321.107 230.957,321.44 231.5,321.5C 232.833,323.167 234.167,324.833 235.5,326.5C 234.292,327.234 232.959,327.567 231.5,327.5C 231.719,326.325 231.386,325.325 230.5,324.5C 224.708,326.349 224.375,328.515 229.5,331C 227.179,334.623 226.846,338.457 228.5,342.5C 228.167,342.5 227.833,342.5 227.5,342.5C 225.883,341.962 224.216,341.629 222.5,341.5C 221.564,340.026 220.23,339.026 218.5,338.5C 217.833,337.5 217.167,336.5 216.5,335.5C 214.514,331.779 214.181,327.946 215.5,324C 212.481,324.719 209.481,324.552 206.5,323.5C 203.657,321.476 201.657,318.809 200.5,315.5C 202.215,312.697 203.548,309.697 204.5,306.5C 199.112,306.648 195.779,304.148 194.5,299C 196.336,291.832 200.503,289.998 207,293.5C 208.583,292.029 210.417,291.029 212.5,290.5 Z"/></g>
<g><path style="opacity:1" fill="#fefcfb" d="M 294.5,291.5 C 297.157,291.162 299.49,291.829 301.5,293.5C 305.853,290.602 309.686,291.268 313,295.5C 314.242,302.776 311.076,306.776 303.5,307.5C 305.076,309.979 306.076,312.646 306.5,315.5C 306.233,317.965 305.566,320.299 304.5,322.5C 302.044,323.262 299.544,323.929 297,324.5C 294.267,322.572 293.1,323.239 293.5,326.5C 290.536,324.409 287.369,324.075 284,325.5C 281.96,322.854 279.96,322.854 278,325.5C 277.868,327.407 278.702,328.907 280.5,330C 279.006,334.029 279.339,337.863 281.5,341.5C 277.225,342.25 273.891,340.917 271.5,337.5C 270.766,336.292 270.433,334.959 270.5,333.5C 271.158,328.838 273.158,324.838 276.5,321.5C 277.097,321.265 277.43,320.765 277.5,320C 275.91,316.987 274.743,313.82 274,310.5C 272.881,304.453 275.381,301.119 281.5,300.5C 284.044,300.104 286.211,300.771 288,302.5C 287.649,297.184 289.815,293.518 294.5,291.5 Z"/></g>
<g><path style="opacity:0.979" fill="#fbb0bf" d="M 134.5,309.5 C 133.957,309.56 133.624,309.893 133.5,310.5C 135.781,311.277 137.948,312.277 140,313.5C 140.667,315.167 140.667,316.833 140,318.5C 136.478,320.412 132.645,321.579 128.5,322C 131.833,322.333 135.167,322.667 138.5,323C 142.057,326.182 142.391,329.682 139.5,333.5C 136.167,334.167 132.833,334.833 129.5,335.5C 133.041,336.2 136.541,336.867 140,337.5C 140.667,339.833 140.667,342.167 140,344.5C 138.519,345.471 137.685,346.804 137.5,348.5C 120.62,356.308 110.454,350.975 107,332.5C 105.529,324.156 107.696,316.99 113.5,311C 114.448,310.517 115.448,310.351 116.5,310.5C 115.295,303.749 116.962,297.915 121.5,293C 130.614,290.92 135.281,294.753 135.5,304.5C 135.408,306.258 135.075,307.924 134.5,309.5 Z"/></g>
<g><path style="opacity:1" fill="#29201f" d="M 395.5,277.5 C 399.046,278.385 401.712,280.385 403.5,283.5C 403.5,283.833 403.5,284.167 403.5,284.5C 402.866,287.643 401.2,290.143 398.5,292C 394.514,292.499 390.514,292.666 386.5,292.5C 386.007,297.197 387.674,298.363 391.5,296C 396.823,295.501 402.156,295.334 407.5,295.5C 407.5,295.833 407.5,296.167 407.5,296.5C 402.041,296.103 396.708,296.603 391.5,298C 388.833,300 388.833,302 391.5,304C 395.099,305.014 398.765,305.847 402.5,306.5C 398.687,307.765 395.02,307.431 391.5,305.5C 388.34,302.927 386.173,299.594 385,295.5C 383.056,297.221 380.89,298.554 378.5,299.5C 376.396,299.799 374.396,299.466 372.5,298.5C 375.897,297.828 379.23,296.995 382.5,296C 384.607,294.736 385.607,292.903 385.5,290.5C 388.799,291.376 392.132,291.543 395.5,291C 401.153,289.703 402.653,286.536 400,281.5C 398.333,280.267 396.833,278.933 395.5,277.5 Z"/></g>
<g><path style="opacity:0.979" fill="#a2b83f" d="M 391.5,305.5 C 390.676,308.764 390.342,312.098 390.5,315.5C 388.66,329.21 386.494,342.877 384,356.5C 379.955,360.489 375.955,360.489 372,356.5C 371.619,348.783 372.119,341.117 373.5,333.5C 375.98,322.34 377.646,311.006 378.5,299.5C 380.89,298.554 383.056,297.221 385,295.5C 386.173,299.594 388.34,302.927 391.5,305.5 Z"/></g>
<g><path style="opacity:0.963" fill="#fbb0bf" d="M 407.5,296.5 C 410.85,302.179 409.85,307.013 404.5,311C 400.234,313.811 395.567,315.311 390.5,315.5C 390.342,312.098 390.676,308.764 391.5,305.5C 395.02,307.431 398.687,307.765 402.5,306.5C 398.765,305.847 395.099,305.014 391.5,304C 388.833,302 388.833,300 391.5,298C 396.708,296.603 402.041,296.103 407.5,296.5 Z"/></g>
<g><path style="opacity:0.982" fill="#feb2bf" d="M 185.5,310.5 C 190.421,312.363 195.421,314.029 200.5,315.5C 201.657,318.809 203.657,321.476 206.5,323.5C 204.759,325.395 203.759,327.728 203.5,330.5C 202.662,330.842 202.328,331.508 202.5,332.5C 201.599,333.29 200.932,334.29 200.5,335.5C 198.938,335.267 197.605,334.6 196.5,333.5C 193.729,331.233 191.062,328.733 188.5,326C 185.376,324.313 182.209,324.146 179,325.5C 178.536,324.906 178.369,324.239 178.5,323.5C 181.072,319.361 183.405,315.027 185.5,310.5 Z"/></g>
<g><path style="opacity:1" fill="#221a1b" d="M 134.5,309.5 C 142.316,310.465 144.316,314.465 140.5,321.5C 140.062,321.435 139.728,321.601 139.5,322C 143.159,326.137 143.492,330.637 140.5,335.5C 141.739,337.311 142.406,339.311 142.5,341.5C 141.943,344.046 140.943,346.379 139.5,348.5C 138.833,348.5 138.167,348.5 137.5,348.5C 137.685,346.804 138.519,345.471 140,344.5C 140.667,342.167 140.667,339.833 140,337.5C 136.541,336.867 133.041,336.2 129.5,335.5C 132.833,334.833 136.167,334.167 139.5,333.5C 142.391,329.682 142.057,326.182 138.5,323C 135.167,322.667 131.833,322.333 128.5,322C 132.645,321.579 136.478,320.412 140,318.5C 140.667,316.833 140.667,315.167 140,313.5C 137.948,312.277 135.781,311.277 133.5,310.5C 133.624,309.893 133.957,309.56 134.5,309.5 Z"/></g>
<g><path style="opacity:0.994" fill="#b34616" d="M 178.5,323.5 C 178.369,324.239 178.536,324.906 179,325.5C 182.209,324.146 185.376,324.313 188.5,326C 191.062,328.733 193.729,331.233 196.5,333.5C 197.605,334.6 198.938,335.267 200.5,335.5C 200.833,335.5 201.167,335.5 201.5,335.5C 202.733,337.796 204.733,339.13 207.5,339.5C 211.623,341.725 215.956,343.725 220.5,345.5C 221.183,345.137 221.85,344.804 222.5,344.5C 222.91,347.292 224.244,348.292 226.5,347.5C 226.5,350.167 226.5,352.833 226.5,355.5C 227.833,355.5 229.167,355.5 230.5,355.5C 230.662,357.527 230.495,359.527 230,361.5C 227.276,359.259 224.776,359.259 222.5,361.5C 220.833,362.167 219.167,362.833 217.5,363.5C 214.15,363.665 210.817,363.498 207.5,363C 202.032,361.097 196.699,358.93 191.5,356.5C 190.738,354.738 189.404,353.738 187.5,353.5C 184.192,350.529 180.859,347.529 177.5,344.5C 177.573,342.973 176.906,341.973 175.5,341.5C 174.547,336.969 174.213,332.636 174.5,328.5C 172.554,327.746 171.721,326.412 172,324.5C 173.586,323.624 175.086,322.624 176.5,321.5C 177.522,321.855 178.189,322.522 178.5,323.5 Z"/></g>
<g><path style="opacity:1" fill="#fd63bb" d="M 231.5,321.5 C 246.5,321.5 261.5,321.5 276.5,321.5C 273.158,324.838 271.158,328.838 270.5,333.5C 263.167,333.5 255.833,333.5 248.5,333.5C 245.834,332.158 243.501,330.325 241.5,328C 239.655,326.872 237.655,326.372 235.5,326.5C 234.167,324.833 232.833,323.167 231.5,321.5 Z"/></g>
<g><path style="opacity:0.978" fill="#fcb0bf" d="M 140.5,321.5 C 145.105,323.471 149.438,325.971 153.5,329C 158.245,331.438 163.245,332.438 168.5,332C 171.025,331.576 173.025,330.41 174.5,328.5C 174.213,332.636 174.547,336.969 175.5,341.5C 171.347,343.167 167.514,345.5 164,348.5C 163.505,350.473 163.338,352.473 163.5,354.5C 163.5,355.167 163.5,355.833 163.5,356.5C 154.816,355.606 146.816,352.939 139.5,348.5C 140.943,346.379 141.943,344.046 142.5,341.5C 142.406,339.311 141.739,337.311 140.5,335.5C 143.492,330.637 143.159,326.137 139.5,322C 139.728,321.601 140.062,321.435 140.5,321.5 Z"/></g>
<g><path style="opacity:0.985" fill="#f560b6" d="M 206.5,323.5 C 209.481,324.552 212.481,324.719 215.5,324C 214.181,327.946 214.514,331.779 216.5,335.5C 211.625,335.808 206.958,335.808 202.5,335.5C 202.5,334.5 202.5,333.5 202.5,332.5C 203.338,332.158 203.672,331.492 203.5,330.5C 203.759,327.728 204.759,325.395 206.5,323.5 Z"/></g>
<g><path style="opacity:1" fill="#b24616" d="M 293.5,326.5 C 297.841,330.002 302.341,333.335 307,336.5C 307.399,336.272 307.565,335.938 307.5,335.5C 308.167,335.5 308.5,335.833 308.5,336.5C 307.496,340.008 305.829,343.174 303.5,346C 303.833,346.167 304.167,346.333 304.5,346.5C 306.634,343.171 308.968,340.171 311.5,337.5C 317.67,340.557 324.004,343.223 330.5,345.5C 332.226,347.82 332.893,350.487 332.5,353.5C 333.93,353.579 335.264,353.246 336.5,352.5C 337.466,354.396 337.799,356.396 337.5,358.5C 335.259,358.046 333.259,358.046 331.5,358.5C 321.57,362.717 311.737,362.384 302,357.5C 301.536,358.094 301.369,358.761 301.5,359.5C 299.858,356.824 297.525,354.824 294.5,353.5C 289.54,350.208 285.207,346.208 281.5,341.5C 279.339,337.863 279.006,334.029 280.5,330C 278.702,328.907 277.868,327.407 278,325.5C 279.96,322.854 281.96,322.854 284,325.5C 287.369,324.075 290.536,324.409 293.5,326.5 Z"/></g>
<g><path style="opacity:0.954" fill="#fd63ba" d="M 304.5,322.5 C 304.5,322.833 304.5,323.167 304.5,323.5C 305.5,327.501 306.5,331.501 307.5,335.5C 307.565,335.938 307.399,336.272 307,336.5C 302.341,333.335 297.841,330.002 293.5,326.5C 293.1,323.239 294.267,322.572 297,324.5C 299.544,323.929 302.044,323.262 304.5,322.5 Z"/></g>
<g><path style="opacity:1" fill="#b34716" d="M 235.5,326.5 C 237.655,326.372 239.655,326.872 241.5,328C 243.501,330.325 245.834,332.158 248.5,333.5C 250.64,336.613 253.64,337.946 257.5,337.5C 257.537,340.702 259.203,342.368 262.5,342.5C 267.893,344.696 273.227,347.196 278.5,350C 280.113,352.228 280.78,354.728 280.5,357.5C 281.833,357.5 283.167,357.5 284.5,357.5C 284.799,359.604 284.466,361.604 283.5,363.5C 282.059,362.696 280.559,362.029 279,361.5C 274.464,364.959 269.298,366.292 263.5,365.5C 261.784,365.371 260.117,365.038 258.5,364.5C 246.249,360.06 236.249,352.727 228.5,342.5C 226.846,338.457 227.179,334.623 229.5,331C 224.375,328.515 224.708,326.349 230.5,324.5C 231.386,325.325 231.719,326.325 231.5,327.5C 232.959,327.567 234.292,327.234 235.5,326.5 Z"/></g>
<g><path style="opacity:1" fill="#0c0603" d="M 248.5,333.5 C 255.833,333.5 263.167,333.5 270.5,333.5C 270.433,334.959 270.766,336.292 271.5,337.5C 268.5,337.5 265.5,337.5 262.5,337.5C 262.5,339.167 262.5,340.833 262.5,342.5C 259.203,342.368 257.537,340.702 257.5,337.5C 253.64,337.946 250.64,336.613 248.5,333.5 Z"/></g>
<g><path style="opacity:1" fill="#0d0403" d="M 201.5,335.5 C 201.833,335.5 202.167,335.5 202.5,335.5C 206.958,335.808 211.625,335.808 216.5,335.5C 217.167,336.5 217.833,337.5 218.5,338.5C 214.766,338.323 211.099,338.656 207.5,339.5C 204.733,339.13 202.733,337.796 201.5,335.5 Z"/></g>
<g><path style="opacity:1" fill="#1e0d03" d="M 196.5,333.5 C 194.669,335.776 192.336,337.609 189.5,339C 188.5,339.667 187.5,339.667 186.5,339C 189.727,336.888 193.06,335.055 196.5,333.5 Z"/></g>
<g><path style="opacity:1" fill="#1c0b02" d="M 299.5,333.5 C 301.842,333.775 301.842,334.608 299.5,336C 297.431,337.874 295.098,338.874 292.5,339C 294.903,337.147 297.236,335.314 299.5,333.5 Z"/></g>
<g><path style="opacity:0.99" fill="#110702" d="M 311.5,337.5 C 313.5,337.5 315.5,337.5 317.5,337.5C 318.167,337.5 318.5,337.833 318.5,338.5C 329.3,340.401 339.634,343.734 349.5,348.5C 352.234,351.096 352.9,354.096 351.5,357.5C 342.743,363.281 333.077,366.781 322.5,368C 282.894,373.654 243.227,373.987 203.5,369C 191.323,367.373 179.657,364.04 168.5,359C 166.341,357.941 164.674,356.441 163.5,354.5C 163.338,352.473 163.505,350.473 164,348.5C 167.514,345.5 171.347,343.167 175.5,341.5C 176.906,341.973 177.573,342.973 177.5,344.5C 173.49,345.589 169.99,347.589 167,350.5C 166.289,352.367 166.789,353.867 168.5,355C 173.505,358.786 179.005,360.286 185,359.5C 186.122,357.593 186.955,355.593 187.5,353.5C 189.404,353.738 190.738,354.738 191.5,356.5C 190.711,357.915 190.044,359.415 189.5,361C 189.905,361.945 190.572,362.612 191.5,363C 200.108,364.659 208.775,365.826 217.5,366.5C 217.5,365.5 217.5,364.5 217.5,363.5C 219.167,362.833 220.833,362.167 222.5,361.5C 221.85,363.435 221.517,365.435 221.5,367.5C 233.825,368.094 246.158,368.427 258.5,368.5C 258.5,367.167 258.5,365.833 258.5,364.5C 260.117,365.038 261.784,365.371 263.5,365.5C 263.5,366.5 263.5,367.5 263.5,368.5C 275.17,368.272 286.837,367.938 298.5,367.5C 297.773,362.654 296.44,357.987 294.5,353.5C 297.525,354.824 299.858,356.824 301.5,359.5C 301.642,362.83 303.142,365.163 306,366.5C 314.576,365.616 323.076,364.282 331.5,362.5C 332.167,362.167 332.833,361.833 333.5,361.5C 332.807,360.482 332.141,359.482 331.5,358.5C 333.259,358.046 335.259,358.046 337.5,358.5C 337.783,359.289 338.283,359.956 339,360.5C 348.815,356.736 348.982,352.57 339.5,348C 336.568,346.855 333.568,346.022 330.5,345.5C 324.004,343.223 317.67,340.557 311.5,337.5 Z"/></g>
<g><path style="opacity:1" fill="#f7b004" d="M 271.5,337.5 C 273.891,340.917 277.225,342.25 281.5,341.5C 285.207,346.208 289.54,350.208 294.5,353.5C 296.44,357.987 297.773,362.654 298.5,367.5C 286.837,367.938 275.17,368.272 263.5,368.5C 263.5,367.5 263.5,366.5 263.5,365.5C 269.298,366.292 274.464,364.959 279,361.5C 280.559,362.029 282.059,362.696 283.5,363.5C 284.466,361.604 284.799,359.604 284.5,357.5C 283.167,357.5 281.833,357.5 280.5,357.5C 280.78,354.728 280.113,352.228 278.5,350C 273.227,347.196 267.893,344.696 262.5,342.5C 262.5,340.833 262.5,339.167 262.5,337.5C 265.5,337.5 268.5,337.5 271.5,337.5 Z"/></g>
<g><path style="opacity:1" fill="#efaa05" d="M 218.5,338.5 C 220.23,339.026 221.564,340.026 222.5,341.5C 222.5,342.5 222.5,343.5 222.5,344.5C 221.85,344.804 221.183,345.137 220.5,345.5C 215.956,343.725 211.623,341.725 207.5,339.5C 211.099,338.656 214.766,338.323 218.5,338.5 Z"/></g>
<g><path style="opacity:1" fill="#220f04" d="M 247.5,336.5 C 248.239,336.369 248.906,336.536 249.5,337C 247.035,339.737 244.035,341.07 240.5,341C 242.898,339.476 245.231,337.976 247.5,336.5 Z"/></g>
<g><path style="opacity:1" fill="#100903" d="M 222.5,341.5 C 224.216,341.629 225.883,341.962 227.5,342.5C 226.699,344.042 226.366,345.708 226.5,347.5C 224.244,348.292 222.91,347.292 222.5,344.5C 222.5,343.5 222.5,342.5 222.5,341.5 Z"/></g>
<g><path style="opacity:1" fill="#f4ae00" d="M 227.5,342.5 C 227.833,342.5 228.167,342.5 228.5,342.5C 236.249,352.727 246.249,360.06 258.5,364.5C 258.5,365.833 258.5,367.167 258.5,368.5C 246.158,368.427 233.825,368.094 221.5,367.5C 221.517,365.435 221.85,363.435 222.5,361.5C 224.776,359.259 227.276,359.259 230,361.5C 230.495,359.527 230.662,357.527 230.5,355.5C 229.167,355.5 227.833,355.5 226.5,355.5C 226.5,352.833 226.5,350.167 226.5,347.5C 226.366,345.708 226.699,344.042 227.5,342.5 Z"/></g>
<g><path style="opacity:1" fill="#231004" d="M 308.5,336.5 C 309.791,336.263 310.791,336.596 311.5,337.5C 308.968,340.171 306.634,343.171 304.5,346.5C 304.167,346.333 303.833,346.167 303.5,346C 305.829,343.174 307.496,340.008 308.5,336.5 Z"/></g>
<g><path style="opacity:1" fill="#170902" d="M 202.5,339.5 C 202.468,342.535 200.968,345.202 198,347.5C 199.141,344.802 200.641,342.135 202.5,339.5 Z"/></g>
<g><path style="opacity:1" fill="#1a0a02" d="M 256.5,341.5 C 257.525,341.897 257.692,342.563 257,343.5C 255.333,345.5 253.667,347.5 252,349.5C 252.671,346.504 254.171,343.837 256.5,341.5 Z"/></g>
<g><path style="opacity:1" fill="#f5b000" d="M 177.5,344.5 C 180.859,347.529 184.192,350.529 187.5,353.5C 186.955,355.593 186.122,357.593 185,359.5C 179.005,360.286 173.505,358.786 168.5,355C 166.789,353.867 166.289,352.367 167,350.5C 169.99,347.589 173.49,345.589 177.5,344.5 Z"/></g>
<g><path style="opacity:1" fill="#2e1406" d="M 210.5,343.5 C 211.124,343.917 211.457,344.584 211.5,345.5C 210.5,348.167 209.5,350.833 208.5,353.5C 208.163,350.146 208.83,346.812 210.5,343.5 Z"/></g>
<g><path style="opacity:1" fill="#1b0b02" d="M 315.5,342.5 C 316.376,342.369 317.043,342.702 317.5,343.5C 316.668,346.161 315.834,348.828 315,351.5C 314.699,348.493 314.865,345.493 315.5,342.5 Z"/></g>
<g><path style="opacity:1" fill="#251004" d="M 263.5,345.5 C 264.376,345.369 265.043,345.702 265.5,346.5C 264.48,349.605 263.313,352.605 262,355.5C 262.161,352.168 262.661,348.835 263.5,345.5 Z"/></g>
<g><path style="opacity:1" fill="#f6af00" d="M 330.5,345.5 C 333.568,346.022 336.568,346.855 339.5,348C 348.982,352.57 348.815,356.736 339,360.5C 338.283,359.956 337.783,359.289 337.5,358.5C 337.799,356.396 337.466,354.396 336.5,352.5C 335.264,353.246 333.93,353.579 332.5,353.5C 332.893,350.487 332.226,347.82 330.5,345.5 Z"/></g>
<g><path style="opacity:1" fill="#e6a400" d="M 191.5,356.5 C 196.699,358.93 202.032,361.097 207.5,363C 210.817,363.498 214.15,363.665 217.5,363.5C 217.5,364.5 217.5,365.5 217.5,366.5C 208.775,365.826 200.108,364.659 191.5,363C 190.572,362.612 189.905,361.945 189.5,361C 190.044,359.415 190.711,357.915 191.5,356.5 Z"/></g>
<g><path style="opacity:0.996" fill="#fd2e06" d="M 163.5,354.5 C 164.674,356.441 166.341,357.941 168.5,359C 179.657,364.04 191.323,367.373 203.5,369C 243.227,373.987 282.894,373.654 322.5,368C 333.077,366.781 342.743,363.281 351.5,357.5C 347.024,374.124 338.691,388.457 326.5,400.5C 316.223,409.09 304.89,416.09 292.5,421.5C 290.167,422.167 287.833,422.833 285.5,423.5C 266.148,428.761 246.815,428.761 227.5,423.5C 225.421,423.029 223.421,422.363 221.5,421.5C 209.451,416.427 198.451,409.76 188.5,401.5C 176.294,388.764 167.961,373.764 163.5,356.5C 163.5,355.833 163.5,355.167 163.5,354.5 Z"/></g>
<g><path style="opacity:1" fill="#eea801" d="M 331.5,358.5 C 332.141,359.482 332.807,360.482 333.5,361.5C 332.833,361.833 332.167,362.167 331.5,362.5C 323.076,364.282 314.576,365.616 306,366.5C 303.142,365.163 301.642,362.83 301.5,359.5C 301.369,358.761 301.536,358.094 302,357.5C 311.737,362.384 321.57,362.717 331.5,358.5 Z"/></g>
<g><path style="opacity:0.987" fill="#fb62ba" d="M 326.5,400.5 C 330.233,412.035 333.566,423.702 336.5,435.5C 334.833,435.5 333.167,435.5 331.5,435.5C 319.833,435.5 308.167,435.5 296.5,435.5C 295.167,430.833 293.833,426.167 292.5,421.5C 304.89,416.09 316.223,409.09 326.5,400.5 Z"/></g>
<g><path style="opacity:0.986" fill="#fb62ba" d="M 188.5,401.5 C 198.451,409.76 209.451,416.427 221.5,421.5C 219.859,426.061 218.526,430.728 217.5,435.5C 207.167,435.5 196.833,435.5 186.5,435.5C 185.167,435.5 183.833,435.5 182.5,435.5C 184.629,424.188 186.629,412.855 188.5,401.5 Z"/></g>
<g><path style="opacity:0.977" fill="#040402" d="M 221.5,421.5 C 223.421,422.363 225.421,423.029 227.5,423.5C 226.624,427.462 225.958,431.462 225.5,435.5C 222.747,441.487 220.747,447.821 219.5,454.5C 244.541,454.245 269.541,453.245 294.5,451.5C 292.789,445.938 290.789,440.604 288.5,435.5C 288.314,431.279 287.314,427.279 285.5,423.5C 287.833,422.833 290.167,422.167 292.5,421.5C 293.833,426.167 295.167,430.833 296.5,435.5C 299.369,444.775 302.036,454.108 304.5,463.5C 305.663,466.809 306.83,470.143 308,473.5C 310.633,472.248 313.133,470.914 315.5,469.5C 316.167,469.5 316.5,469.833 316.5,470.5C 314.402,471.935 312.069,473.102 309.5,474C 308.421,476.899 308.754,479.733 310.5,482.5C 314.219,484.019 317.553,486.019 320.5,488.5C 320.932,489.71 321.599,490.71 322.5,491.5C 322.932,492.71 323.599,493.71 324.5,494.5C 324.894,502.049 321.894,507.715 315.5,511.5C 311.833,511.5 308.167,511.5 304.5,511.5C 297.597,508.033 294.597,502.367 295.5,494.5C 296.345,493.329 297.011,491.995 297.5,490.5C 297.833,489.833 298.167,489.167 298.5,488.5C 300.148,487.19 301.814,485.857 303.5,484.5C 301.489,477.472 299.489,470.472 297.5,463.5C 297.461,462.417 297.127,461.417 296.5,460.5C 292.667,460.167 288.833,459.833 285,459.5C 265.172,460.174 245.338,460.674 225.5,461C 222.008,460.93 219.008,461.763 216.5,463.5C 215.12,470.497 213.12,477.33 210.5,484C 210.522,486.183 211.522,487.683 213.5,488.5C 213.932,489.71 214.599,490.71 215.5,491.5C 215.557,492.609 215.89,493.609 216.5,494.5C 217.856,502.41 214.856,508.077 207.5,511.5C 204.167,511.5 200.833,511.5 197.5,511.5C 190.597,508.033 187.597,502.367 188.5,494.5C 189.11,493.609 189.443,492.609 189.5,491.5C 190.401,490.71 191.068,489.71 191.5,488.5C 194.549,484.645 198.549,482.978 203.5,483.5C 203.954,479.851 204.954,476.351 206.5,473C 205.944,471.989 205.278,471.156 204.5,470.5C 204.5,470.167 204.5,469.833 204.5,469.5C 205.15,469.804 205.817,470.137 206.5,470.5C 207.477,468.589 208.143,466.589 208.5,464.5C 211.328,454.875 214.328,445.208 217.5,435.5C 218.526,430.728 219.859,426.061 221.5,421.5 Z M 254.5,463.5 C 258.5,463.5 262.5,463.5 266.5,463.5C 266.5,469.833 266.5,476.167 266.5,482.5C 262.167,482.5 257.833,482.5 253.5,482.5C 254.418,476.225 254.751,469.892 254.5,463.5 Z"/></g>
<g><path style="opacity:1" fill="#f360b3" d="M 227.5,423.5 C 246.815,428.761 266.148,428.761 285.5,423.5C 287.314,427.279 288.314,431.279 288.5,435.5C 267.5,435.5 246.5,435.5 225.5,435.5C 225.958,431.462 226.624,427.462 227.5,423.5 Z"/></g>
<g><path style="opacity:0.991" fill="#004a36" d="M 186.5,435.5 C 196.833,435.5 207.167,435.5 217.5,435.5C 214.328,445.208 211.328,454.875 208.5,464.5C 207.432,463.566 206.099,463.232 204.5,463.5C 197.167,463.5 189.833,463.5 182.5,463.5C 183.554,454.122 184.887,444.789 186.5,435.5 Z"/></g>
<g><path style="opacity:1" fill="#004a36" d="M 225.5,435.5 C 246.5,435.5 267.5,435.5 288.5,435.5C 290.789,440.604 292.789,445.938 294.5,451.5C 269.541,453.245 244.541,454.245 219.5,454.5C 220.747,447.821 222.747,441.487 225.5,435.5 Z"/></g>
<g><path style="opacity:0.992" fill="#004a36" d="M 296.5,435.5 C 308.167,435.5 319.833,435.5 331.5,435.5C 333.759,444.703 336.092,453.869 338.5,463C 330.841,463.5 323.174,463.666 315.5,463.5C 311.833,463.5 308.167,463.5 304.5,463.5C 302.036,454.108 299.369,444.775 296.5,435.5 Z"/></g>
<g><path style="opacity:1" fill="#004432" d="M 297.5,463.5 C 287.167,463.5 276.833,463.5 266.5,463.5C 262.5,463.5 258.5,463.5 254.5,463.5C 241.833,463.5 229.167,463.5 216.5,463.5C 219.008,461.763 222.008,460.93 225.5,461C 245.338,460.674 265.172,460.174 285,459.5C 288.833,459.833 292.667,460.167 296.5,460.5C 297.127,461.417 297.461,462.417 297.5,463.5 Z"/></g>
<g><path style="opacity:0.799" fill="#9db43c" d="M 204.5,463.5 C 206.099,463.232 207.432,463.566 208.5,464.5C 208.143,466.589 207.477,468.589 206.5,470.5C 205.817,470.137 205.15,469.804 204.5,469.5C 204.5,467.5 204.5,465.5 204.5,463.5 Z"/></g>
<g><path style="opacity:0.981" fill="#a1b73d" d="M 216.5,463.5 C 229.167,463.5 241.833,463.5 254.5,463.5C 254.751,469.892 254.418,476.225 253.5,482.5C 253.5,483.5 253.5,484.5 253.5,485.5C 253.963,488.482 254.296,491.482 254.5,494.5C 241.833,494.5 229.167,494.5 216.5,494.5C 215.89,493.609 215.557,492.609 215.5,491.5C 227.673,490.833 240.007,490.167 252.5,489.5C 239.517,488.501 226.517,488.168 213.5,488.5C 211.522,487.683 210.522,486.183 210.5,484C 213.12,477.33 215.12,470.497 216.5,463.5 Z"/></g>
<g><path style="opacity:0.994" fill="#a0b73d" d="M 266.5,463.5 C 276.833,463.5 287.167,463.5 297.5,463.5C 299.489,470.472 301.489,477.472 303.5,484.5C 301.814,485.857 300.148,487.19 298.5,488.5C 288.478,488.168 278.478,488.501 268.5,489.5C 278.144,490.498 287.81,490.832 297.5,490.5C 297.011,491.995 296.345,493.329 295.5,494.5C 285.833,494.5 276.167,494.5 266.5,494.5C 266.5,491.5 266.5,488.5 266.5,485.5C 266.5,484.5 266.5,483.5 266.5,482.5C 266.5,476.167 266.5,469.833 266.5,463.5 Z"/></g>
<g><path style="opacity:0.974" fill="#9fb53c" d="M 304.5,463.5 C 308.167,463.5 311.833,463.5 315.5,463.5C 315.5,465.5 315.5,467.5 315.5,469.5C 313.133,470.914 310.633,472.248 308,473.5C 306.83,470.143 305.663,466.809 304.5,463.5 Z"/></g>
<g><path style="opacity:0.969" fill="#a1b73d" d="M 204.5,470.5 C 205.278,471.156 205.944,471.989 206.5,473C 204.954,476.351 203.954,479.851 203.5,483.5C 198.549,482.978 194.549,484.645 191.5,488.5C 183.472,488.169 175.472,488.502 167.5,489.5C 174.989,490.167 182.322,490.833 189.5,491.5C 189.443,492.609 189.11,493.609 188.5,494.5C 178.833,494.5 169.167,494.5 159.5,494.5C 159.7,491.37 160.366,488.37 161.5,485.5C 162.401,484.71 163.068,483.71 163.5,482.5C 167.677,477.571 173.01,474.404 179.5,473C 187.706,470.953 196.039,470.119 204.5,470.5 Z"/></g>
<g><path style="opacity:0.969" fill="#a1b83d" d="M 316.5,470.5 C 327.949,469.742 338.949,471.575 349.5,476C 352.331,478.001 354.997,480.167 357.5,482.5C 357.427,484.027 358.094,485.027 359.5,485.5C 360.159,488.455 360.492,491.455 360.5,494.5C 348.5,494.5 336.5,494.5 324.5,494.5C 323.599,493.71 322.932,492.71 322.5,491.5C 332.674,490.833 343.008,490.167 353.5,489.5C 342.52,488.501 331.52,488.168 320.5,488.5C 317.553,486.019 314.219,484.019 310.5,482.5C 308.754,479.733 308.421,476.899 309.5,474C 312.069,473.102 314.402,471.935 316.5,470.5 Z"/></g>
<g><path style="opacity:0.483" fill="#010100" d="M 163.5,482.5 C 163.068,483.71 162.401,484.71 161.5,485.5C 149.833,485.5 138.167,485.5 126.5,485.5C 126.5,484.5 126.5,483.5 126.5,482.5C 138.833,482.5 151.167,482.5 163.5,482.5 Z"/></g>
<g><path style="opacity:0.489" fill="#000000" d="M 253.5,482.5 C 257.833,482.5 262.167,482.5 266.5,482.5C 266.5,483.5 266.5,484.5 266.5,485.5C 262.167,485.5 257.833,485.5 253.5,485.5C 253.5,484.5 253.5,483.5 253.5,482.5 Z"/></g>
<g><path style="opacity:0.482" fill="#000000" d="M 357.5,482.5 C 369.833,482.5 382.167,482.5 394.5,482.5C 394.5,483.5 394.5,484.5 394.5,485.5C 382.833,485.5 371.167,485.5 359.5,485.5C 358.094,485.027 357.427,484.027 357.5,482.5 Z"/></g>
<g><path style="opacity:1" fill="#454e1a" d="M 191.5,488.5 C 191.068,489.71 190.401,490.71 189.5,491.5C 182.322,490.833 174.989,490.167 167.5,489.5C 175.472,488.502 183.472,488.169 191.5,488.5 Z"/></g>
<g><path style="opacity:1" fill="#444e1a" d="M 213.5,488.5 C 226.517,488.168 239.517,488.501 252.5,489.5C 240.007,490.167 227.673,490.833 215.5,491.5C 214.599,490.71 213.932,489.71 213.5,488.5 Z"/></g>
<g><path style="opacity:1" fill="#444e1a" d="M 298.5,488.5 C 298.167,489.167 297.833,489.833 297.5,490.5C 287.81,490.832 278.144,490.498 268.5,489.5C 278.478,488.501 288.478,488.168 298.5,488.5 Z"/></g>
<g><path style="opacity:1" fill="#434d1a" d="M 320.5,488.5 C 331.52,488.168 342.52,488.501 353.5,489.5C 343.008,490.167 332.674,490.833 322.5,491.5C 321.599,490.71 320.932,489.71 320.5,488.5 Z"/></g>
<g><path style="opacity:1" fill="#e9a4b1" d="M 199.5,493.5 C 206.472,493.279 208.138,496.113 204.5,502C 197.946,501.957 196.279,499.123 199.5,493.5 Z"/></g>
<g><path style="opacity:1" fill="#eea7b5" d="M 307.5,493.5 C 312.459,492.628 314.625,494.628 314,499.5C 308.286,504.239 305.619,502.905 306,495.5C 306.717,494.956 307.217,494.289 307.5,493.5 Z"/></g>
</svg>
