<?xml version="1.0" encoding="UTF-8"?>
<!DOCTYPE svg PUBLIC "-//W3C//DTD SVG 1.1//EN" "http://www.w3.org/Graphics/SVG/1.1/DTD/svg11.dtd">
<svg xmlns="http://www.w3.org/2000/svg" version="1.1" width="512px" height="512px" style="shape-rendering:geometricPrecision; text-rendering:geometricPrecision; image-rendering:optimizeQuality; fill-rule:evenodd; clip-rule:evenodd" xmlns:xlink="http://www.w3.org/1999/xlink">
<g><path style="opacity:0.994" fill="#4593fe" d="M 120.5,-0.5 C 128.5,-0.5 136.5,-0.5 144.5,-0.5C 178.986,8.84264 197.153,31.5093 199,67.5C 216.103,58.8505 234.269,54.8505 253.5,55.5C 278.623,55.2902 302.457,60.6236 325,71.5C 324.565,33.3539 342.731,9.35395 379.5,-0.5C 387.167,-0.5 394.833,-0.5 402.5,-0.5C 436.283,7.95889 454.616,29.6256 457.5,64.5C 455.873,93.5994 441.873,114.099 415.5,126C 404.794,129.523 393.794,131.357 382.5,131.5C 385.565,139.889 386.898,148.556 386.5,157.5C 385.759,160.413 385.259,163.413 385,166.5C 381.321,172.852 378.488,179.519 376.5,186.5C 373.997,187.084 371.497,187.751 369,188.5C 366.877,186.427 365.377,183.927 364.5,181C 367.372,177.88 370.705,175.213 374.5,173C 371.127,174.154 367.793,175.654 364.5,177.5C 362.219,171.38 358.885,165.88 354.5,161C 336.69,151.348 320.19,139.848 305,126.5C 308.377,134.279 311.544,142.279 314.5,150.5C 286.58,152.217 260.246,146.717 235.5,134C 230.224,131.112 225.391,127.612 221,123.5C 222.552,128.621 224.719,133.621 227.5,138.5C 211.582,137.544 196.249,133.71 181.5,127C 180.056,126.219 178.723,126.386 177.5,127.5C 165.811,141.355 154.311,155.355 143,169.5C 142.5,162.508 142.334,155.508 142.5,148.5C 144.061,142.146 146.061,135.813 148.5,129.5C 127.936,133.067 108.936,128.9 91.5,117C 66.7313,95.0195 60.2313,68.5195 72,37.5C 82.192,17.1343 98.3587,4.46767 120.5,-0.5 Z"/></g>
<g><path style="opacity:0.956" fill="#f7ce45" d="M 39.5,81.5 C 41.4949,87.7739 43.6615,94.1072 46,100.5C 48.7199,105.551 52.8865,108.718 58.5,110C 63.5211,110.724 68.5211,111.558 73.5,112.5C 65.4904,114.089 58.3238,117.422 52,122.5C 50.107,125.618 48.7736,128.951 48,132.5C 47.6927,137.882 47.026,143.215 46,148.5C 44.5353,143.106 42.8686,137.772 41,132.5C 39.1405,126.64 35.3072,122.807 29.5,121C 23.8333,120 18.1667,119 12.5,118C 21.1936,116.404 28.6936,112.57 35,106.5C 37.9402,98.4511 39.4402,90.1178 39.5,81.5 Z"/></g>
<g><path style="opacity:0.996" fill="#9bd6da" d="M 364.5,177.5 C 364.103,178.525 363.437,178.692 362.5,178C 348.979,159.217 330.979,152.384 308.5,157.5C 289.054,162.11 276.554,174.11 271,193.5C 269.39,198.61 269.223,203.61 270.5,208.5C 271.936,224.044 278.603,236.711 290.5,246.5C 284.31,262.89 288.31,276.39 302.5,287C 318.104,294.279 331.937,291.779 344,279.5C 350.733,269.583 352.233,258.917 348.5,247.5C 361.496,238.183 368.829,225.516 370.5,209.5C 371.473,207.052 371.806,204.385 371.5,201.5C 375.514,201.666 379.514,201.499 383.5,201C 379.179,200.501 374.846,200.334 370.5,200.5C 370.5,199.5 370.5,198.5 370.5,197.5C 372.07,194.686 373.403,191.686 374.5,188.5C 376.63,187.968 378.63,187.135 380.5,186C 379.072,185.421 377.738,185.588 376.5,186.5C 378.488,179.519 381.321,172.852 385,166.5C 385.259,163.413 385.759,160.413 386.5,157.5C 412.665,145.611 435.831,149.945 456,170.5C 473.515,194.594 473.849,218.928 457,243.5C 440.21,262.094 419.71,267.927 395.5,261C 390.99,259.582 386.99,257.415 383.5,254.5C 384.444,250.183 384.944,245.849 385,241.5C 382.98,245.856 382.147,250.189 382.5,254.5C 378.786,280.189 365.452,298.856 342.5,310.5C 324.549,317.653 305.882,321.32 286.5,321.5C 284.749,330.503 280.749,338.336 274.5,345C 267.392,349.486 259.726,350.653 251.5,348.5C 253.06,346.046 254.06,343.38 254.5,340.5C 256.025,333.515 253.025,330.348 245.5,331C 242.936,332.396 240.269,333.563 237.5,334.5C 234.525,330.048 232.192,325.215 230.5,320C 213.757,316.898 197.423,312.398 181.5,306.5C 167.176,300.083 154.676,291.083 144,279.5C 136.698,270.095 132.865,259.429 132.5,247.5C 105.763,257.191 83.2629,251.191 65,229.5C 51.4267,208.074 51.0933,186.407 64,164.5C 81.3863,141.524 103.886,134.358 131.5,143C 135.472,144.319 139.139,146.153 142.5,148.5C 142.334,155.508 142.5,162.508 143,169.5C 154.311,155.355 165.811,141.355 177.5,127.5C 178.723,126.386 180.056,126.219 181.5,127C 196.249,133.71 211.582,137.544 227.5,138.5C 224.719,133.621 222.552,128.621 221,123.5C 225.391,127.612 230.224,131.112 235.5,134C 260.246,146.717 286.58,152.217 314.5,150.5C 311.544,142.279 308.377,134.279 305,126.5C 320.19,139.848 336.69,151.348 354.5,161C 358.885,165.88 362.219,171.38 364.5,177.5 Z"/></g>
<g><path style="opacity:1" fill="#fdfdfd" d="M 369.5,208.5 C 336.833,208.5 304.167,208.5 271.5,208.5C 271.925,182.757 284.258,165.757 308.5,157.5C 339.966,153.806 360.132,167.14 369,197.5C 369.499,201.152 369.665,204.818 369.5,208.5 Z"/></g>
<g><path style="opacity:1" fill="#232929" d="M 245.5,209.5 C 244.538,181.704 230.538,164.538 203.5,158C 174.423,155.62 155.923,168.453 148,196.5C 147.077,200.79 146.577,205.123 146.5,209.5C 146.5,209.833 146.5,210.167 146.5,210.5C 145.527,208.052 145.194,205.385 145.5,202.5C 128.167,201.833 128.167,201.167 145.5,200.5C 146.167,197.167 146.833,193.833 147.5,190.5C 143.643,189.825 139.977,188.658 136.5,187C 140.217,187.287 143.884,188.121 147.5,189.5C 149.293,186.749 150.959,183.916 152.5,181C 149.672,178.752 146.672,176.752 143.5,175C 142.549,174.282 142.383,173.449 143,172.5C 146.158,175.08 149.492,177.413 153,179.5C 169.928,156.305 191.761,150.139 218.5,161C 237.875,171.598 246.875,187.764 245.5,209.5 Z"/></g>
<g><path style="opacity:1" fill="#fcfcfc" d="M 245.5,209.5 C 212.5,209.5 179.5,209.5 146.5,209.5C 146.577,205.123 147.077,200.79 148,196.5C 155.923,168.453 174.423,155.62 203.5,158C 230.538,164.538 244.538,181.704 245.5,209.5 Z"/></g>
<g><path style="opacity:1" fill="#232828" d="M 308.5,157.5 C 284.258,165.757 271.925,182.757 271.5,208.5C 271.167,208.5 270.833,208.5 270.5,208.5C 269.223,203.61 269.39,198.61 271,193.5C 276.554,174.11 289.054,162.11 308.5,157.5 Z"/></g>
<g><path style="opacity:1" fill="#1b2025" d="M 364.5,177.5 C 367.793,175.654 371.127,174.154 374.5,173C 370.705,175.213 367.372,177.88 364.5,181C 365.377,183.927 366.877,186.427 369,188.5C 371.497,187.751 373.997,187.084 376.5,186.5C 377.738,185.588 379.072,185.421 380.5,186C 378.63,187.135 376.63,187.968 374.5,188.5C 367.936,189.013 366.603,192.013 370.5,197.5C 370.5,198.5 370.5,199.5 370.5,200.5C 374.846,200.334 379.179,200.501 383.5,201C 379.514,201.499 375.514,201.666 371.5,201.5C 371.806,204.385 371.473,207.052 370.5,209.5C 370.5,208.833 370.167,208.5 369.5,208.5C 369.665,204.818 369.499,201.152 369,197.5C 360.132,167.14 339.966,153.806 308.5,157.5C 330.979,152.384 348.979,159.217 362.5,178C 363.437,178.692 364.103,178.525 364.5,177.5 Z"/></g>
<g><path style="opacity:1" fill="#448cee" d="M 374.5,188.5 C 373.403,191.686 372.07,194.686 370.5,197.5C 366.603,192.013 367.936,189.013 374.5,188.5 Z"/></g>
<g><path style="opacity:1" fill="#171e1f" d="M 88.5,187.5 C 88.56,186.957 88.8933,186.624 89.5,186.5C 102.987,192.744 116.32,199.244 129.5,206C 115.553,200.728 101.887,194.561 88.5,187.5 Z"/></g>
<g><path style="opacity:1" fill="#010000" d="M 146.5,209.5 C 179.5,209.5 212.5,209.5 245.5,209.5C 244.106,225.964 236.773,238.964 223.5,248.5C 202.8,259.995 182.8,258.995 163.5,245.5C 153.291,236.082 147.625,224.415 146.5,210.5C 146.5,210.167 146.5,209.833 146.5,209.5 Z"/></g>
<g><path style="opacity:1" fill="#030303" d="M 270.5,208.5 C 270.833,208.5 271.167,208.5 271.5,208.5C 304.167,208.5 336.833,208.5 369.5,208.5C 370.167,208.5 370.5,208.833 370.5,209.5C 368.829,225.516 361.496,238.183 348.5,247.5C 335.466,255.361 321.466,257.528 306.5,254C 300.994,251.745 295.66,249.245 290.5,246.5C 278.603,236.711 271.936,224.044 270.5,208.5 Z"/></g>
<g><path style="opacity:1" fill="#1b2323" d="M 439.5,202.5 C 444.592,202.497 444.592,203.33 439.5,205C 427.411,208.196 415.411,211.696 403.5,215.5C 403.167,215.167 402.833,214.833 402.5,214.5C 414.936,210.465 427.269,206.465 439.5,202.5 Z"/></g>
<g><path style="opacity:1" fill="#283637" d="M 132.5,247.5 C 132.173,242.786 132.507,238.12 133.5,233.5C 134.661,237.795 134.828,242.129 134,246.5C 133.617,247.056 133.117,247.389 132.5,247.5 Z"/></g>
<g><path style="opacity:1" fill="#3e5455" d="M 266.5,267.5 C 266.795,265.265 266.461,263.265 265.5,261.5C 265.168,250.813 265.501,240.146 266.5,229.5C 267.825,242.327 267.825,254.994 266.5,267.5 Z"/></g>
<g><path style="opacity:1" fill="#ee8150" d="M 163.5,245.5 C 182.8,258.995 202.8,259.995 223.5,248.5C 226.822,276.343 214.488,290.176 186.5,290C 167.296,283.77 159.129,270.603 162,250.5C 162.608,248.846 163.108,247.179 163.5,245.5 Z"/></g>
<g><path style="opacity:1" fill="#ee8150" d="M 290.5,246.5 C 295.66,249.245 300.994,251.745 306.5,254C 321.466,257.528 335.466,255.361 348.5,247.5C 352.233,258.917 350.733,269.583 344,279.5C 331.937,291.779 318.104,294.279 302.5,287C 288.31,276.39 284.31,262.89 290.5,246.5 Z"/></g>
<g><path style="opacity:1" fill="#1f2829" d="M 383.5,254.5 C 383.167,254.5 382.833,254.5 382.5,254.5C 382.147,250.189 382.98,245.856 385,241.5C 384.944,245.849 384.444,250.183 383.5,254.5 Z"/></g>
<g><path style="opacity:1" fill="#192021" d="M 265.5,261.5 C 266.461,263.265 266.795,265.265 266.5,267.5C 266.48,275.29 264.646,282.624 261,289.5C 257.729,292.197 254.729,291.864 252,288.5C 249.874,283.668 248.207,278.668 247,273.5C 245.584,258.858 245.251,244.191 246,229.5C 246.138,244.892 247.138,260.226 249,275.5C 249.906,280.126 251.573,284.46 254,288.5C 258.291,290.565 260.957,289.232 262,284.5C 264.086,276.983 265.252,269.316 265.5,261.5 Z"/></g>
<g><path style="opacity:0.955" fill="#f7ce45" d="M 447.5,280.5 C 448.616,290.868 451.449,300.868 456,310.5C 458.234,312.7 460.734,314.533 463.5,316C 470.464,318.387 477.464,320.387 484.5,322C 477.372,323.159 470.372,324.825 463.5,327C 456.81,330.53 452.643,336.03 451,343.5C 449.773,349.862 448.44,356.195 447,362.5C 445.774,355.477 444.441,348.477 443,341.5C 441.177,334.996 437.344,330.163 431.5,327C 424.536,324.613 417.536,322.613 410.5,321C 416.546,319.881 422.546,318.548 428.5,317C 437.062,313.725 442.229,307.558 444,298.5C 445.24,292.467 446.407,286.467 447.5,280.5 Z"/></g>
<g><path style="opacity:0.949" fill="#f7ce45" d="M 51.5,291.5 C 54.8707,299.406 58.3707,307.406 62,315.5C 65.9159,321.403 71.4159,324.903 78.5,326C 85.1667,326.333 91.8333,326.667 98.5,327C 91.8639,329.983 85.1972,332.983 78.5,336C 73.0502,339.794 69.5502,344.961 68,351.5C 67.6667,359.833 67.3333,368.167 67,376.5C 64.2043,369.12 61.2043,361.787 58,354.5C 53.9563,347.226 47.7897,343.059 39.5,342C 33.1667,341.667 26.8333,341.333 20.5,341C 27.216,338.202 33.8827,335.202 40.5,332C 46.403,328.084 49.903,322.584 51,315.5C 51.4997,307.507 51.6664,299.507 51.5,291.5 Z"/></g>
<g><path style="opacity:0.993" fill="#e546ec" d="M 181.5,306.5 C 197.423,312.398 213.757,316.898 230.5,320C 232.192,325.215 234.525,330.048 237.5,334.5C 233.229,338.269 229.062,342.269 225,346.5C 218.77,342.07 213.103,342.737 208,348.5C 206.007,350.818 204.841,353.484 204.5,356.5C 203.383,363.502 203.217,370.502 204,377.5C 201.894,380.118 199.394,382.118 196.5,383.5C 197.57,373.852 198.07,364.186 198,354.5C 194,359.833 190,365.167 186,370.5C 184.008,369.335 182.175,368.002 180.5,366.5C 174.471,360.142 167.804,354.475 160.5,349.5C 157.52,346.856 154.52,344.189 151.5,341.5C 160.774,329.225 170.774,317.558 181.5,306.5 Z"/></g>
<g><path style="opacity:0.996" fill="#e647ec" d="M 342.5,310.5 C 351.21,318.548 358.876,327.548 365.5,337.5C 364.133,338.84 362.8,340.173 361.5,341.5C 352.902,347.761 344.902,354.761 337.5,362.5C 334.212,365.449 330.879,368.449 327.5,371.5C 324.849,369.35 322.349,367.017 320,364.5C 319.306,368.554 319.473,372.554 320.5,376.5C 318.1,374.306 315.434,372.639 312.5,371.5C 313.344,367.126 314.344,362.793 315.5,358.5C 316.338,358.158 316.672,357.492 316.5,356.5C 316.833,356.5 317.167,356.5 317.5,356.5C 318.803,353.214 318.803,345.881 317.5,334.5C 316.509,338.445 316.176,342.445 316.5,346.5C 310.8,339.924 304.967,339.924 299,346.5C 298.517,347.448 298.351,348.448 298.5,349.5C 297.662,349.842 297.328,350.508 297.5,351.5C 296.662,351.842 296.328,352.508 296.5,353.5C 295.011,358.457 293.677,363.457 292.5,368.5C 285.461,368.394 281.961,371.728 282,378.5C 282.662,379.984 283.496,381.317 284.5,382.5C 284.5,382.833 284.5,383.167 284.5,383.5C 276.876,387.537 275.543,393.204 280.5,400.5C 259.327,400.831 238.327,400.497 217.5,399.5C 217.953,398.542 218.619,397.708 219.5,397C 233.29,397.409 244.79,392.576 254,382.5C 257.793,377.786 259.126,372.453 258,366.5C 257.623,365.058 256.79,364.058 255.5,363.5C 255.632,357.243 252.632,353.743 246.5,353C 248.037,351.293 249.704,349.793 251.5,348.5C 259.726,350.653 267.392,349.486 274.5,345C 280.749,338.336 284.749,330.503 286.5,321.5C 305.882,321.32 324.549,317.653 342.5,310.5 Z"/></g>
<g><path style="opacity:0.996" fill="#9bd6da" d="M 254.5,340.5 C 250.153,347.359 244.82,353.526 238.5,359C 240.92,358.628 242.92,357.295 244.5,355C 249.105,354.091 252.105,355.924 253.5,360.5C 252.256,363.087 250.589,365.42 248.5,367.5C 249.002,368.521 249.668,368.688 250.5,368C 252.037,366.293 253.704,364.793 255.5,363.5C 256.79,364.058 257.623,365.058 258,366.5C 259.126,372.453 257.793,377.786 254,382.5C 244.79,392.576 233.29,397.409 219.5,397C 218.619,397.708 217.953,398.542 217.5,399.5C 216.5,399.833 215.833,400.5 215.5,401.5C 214.5,401.833 213.833,402.5 213.5,403.5C 212.128,404.512 210.795,405.512 209.5,406.5C 207.461,407.672 206.128,409.338 205.5,411.5C 205.44,410.957 205.107,410.624 204.5,410.5C 196.954,415.774 188.954,420.274 180.5,424C 170.316,427.654 160.316,427.32 150.5,423C 146.462,419.817 143.462,415.984 141.5,411.5C 141.069,407.663 140.402,403.997 139.5,400.5C 142.02,381.597 149.02,364.597 160.5,349.5C 167.804,354.475 174.471,360.142 180.5,366.5C 173.468,376.733 168.468,387.899 165.5,400C 169.402,400.738 173.068,400.072 176.5,398C 183.727,393.892 190.394,389.058 196.5,383.5C 199.394,382.118 201.894,380.118 204,377.5C 203.217,370.502 203.383,363.502 204.5,356.5C 206.773,351.817 210.106,347.984 214.5,345C 218.793,343.798 222.293,344.965 225,348.5C 230.498,342.01 236.998,336.843 244.5,333C 251.129,331.131 254.462,333.631 254.5,340.5 Z M 196.5,383.5 C 190.394,389.058 183.727,393.892 176.5,398C 173.068,400.072 169.402,400.738 165.5,400C 168.468,387.899 173.468,376.733 180.5,366.5C 182.175,368.002 184.008,369.335 186,370.5C 190,365.167 194,359.833 198,354.5C 198.07,364.186 197.57,373.852 196.5,383.5 Z"/></g>
<g><path style="opacity:1" fill="#2b112b" d="M 203.5,322.5 C 204.376,322.369 205.043,322.702 205.5,323.5C 203.208,332.624 200.708,341.624 198,350.5C 199.502,341.149 201.335,331.816 203.5,322.5 Z"/></g>
<g><path style="opacity:1" fill="#301230" d="M 317.5,356.5 C 317.747,353.061 317.414,349.728 316.5,346.5C 316.176,342.445 316.509,338.445 317.5,334.5C 318.803,345.881 318.803,353.214 317.5,356.5 Z"/></g>
<g><path style="opacity:1" fill="#f3aafa" d="M 316.5,346.5 C 317.414,349.728 317.747,353.061 317.5,356.5C 317.167,356.5 316.833,356.5 316.5,356.5C 316.5,355.5 316.5,354.5 316.5,353.5C 310.351,352.754 304.351,351.42 298.5,349.5C 298.351,348.448 298.517,347.448 299,346.5C 304.967,339.924 310.8,339.924 316.5,346.5 Z"/></g>
<g><path style="opacity:0.994" fill="#9cd6da" d="M 361.5,341.5 C 374.607,355.11 386.44,369.777 397,385.5C 399.738,390.303 401.904,395.303 403.5,400.5C 403.559,420.08 393.725,429.413 374,428.5C 355.07,427.439 336.57,424.106 318.5,418.5C 316.932,417.527 315.265,417.36 313.5,418C 309.024,423.239 303.358,425.739 296.5,425.5C 294.708,425.634 293.042,425.301 291.5,424.5C 291.167,424.5 290.833,424.5 290.5,424.5C 288.351,423.264 286.018,422.264 283.5,421.5C 283.5,420.833 283.167,420.5 282.5,420.5C 281.167,418.5 279.5,416.833 277.5,415.5C 276.25,412.994 275.584,410.327 275.5,407.5C 276.471,405.517 277.471,403.517 278.5,401.5C 279.167,401.5 279.833,401.5 280.5,401.5C 285.318,403.046 289.985,403.713 294.5,403.5C 290.045,401.645 285.378,400.645 280.5,400.5C 275.543,393.204 276.876,387.537 284.5,383.5C 288.891,384.177 293.225,385.177 297.5,386.5C 298.167,386.167 298.833,385.833 299.5,385.5C 294.627,383.859 289.627,382.859 284.5,382.5C 283.496,381.317 282.662,379.984 282,378.5C 281.961,371.728 285.461,368.394 292.5,368.5C 294.216,368.629 295.883,368.962 297.5,369.5C 297.833,369.5 298.167,369.5 298.5,369.5C 300.515,370.924 302.848,371.59 305.5,371.5C 305.842,372.338 306.508,372.672 307.5,372.5C 309.292,372.634 310.958,372.301 312.5,371.5C 315.434,372.639 318.1,374.306 320.5,376.5C 322.331,380.161 323.665,383.994 324.5,388C 338.26,392.181 352.26,394.848 366.5,396C 357.342,384.346 347.675,373.179 337.5,362.5C 344.902,354.761 352.902,347.761 361.5,341.5 Z"/></g>
<g><path style="opacity:1" fill="#18161c" d="M 254.5,340.5 C 254.462,333.631 251.129,331.131 244.5,333C 236.998,336.843 230.498,342.01 225,348.5C 222.293,344.965 218.793,343.798 214.5,345C 210.106,347.984 206.773,351.817 204.5,356.5C 204.841,353.484 206.007,350.818 208,348.5C 213.103,342.737 218.77,342.07 225,346.5C 229.062,342.269 233.229,338.269 237.5,334.5C 240.269,333.563 242.936,332.396 245.5,331C 253.025,330.348 256.025,333.515 254.5,340.5 Z"/></g>
<g><path style="opacity:1" fill="#ebc14f" d="M 298.5,349.5 C 304.351,351.42 310.351,352.754 316.5,353.5C 316.5,354.5 316.5,355.5 316.5,356.5C 312.915,355.417 309.249,354.751 305.5,354.5C 303.152,352.903 300.486,351.903 297.5,351.5C 297.328,350.508 297.662,349.842 298.5,349.5 Z"/></g>
<g><path style="opacity:1" fill="#403319" d="M 297.5,351.5 C 300.486,351.903 303.152,352.903 305.5,354.5C 304.5,354.5 303.5,354.5 302.5,354.5C 301.924,359.718 300.591,364.718 298.5,369.5C 298.167,369.5 297.833,369.5 297.5,369.5C 298.816,364.233 299.816,358.9 300.5,353.5C 299.167,353.5 297.833,353.5 296.5,353.5C 296.328,352.508 296.662,351.842 297.5,351.5 Z"/></g>
<g><path style="opacity:1" fill="#f2c64b" d="M 296.5,353.5 C 297.833,353.5 299.167,353.5 300.5,353.5C 299.816,358.9 298.816,364.233 297.5,369.5C 295.883,368.962 294.216,368.629 292.5,368.5C 293.677,363.457 295.011,358.457 296.5,353.5 Z"/></g>
<g><path style="opacity:1" fill="#eec744" d="M 305.5,354.5 C 306.981,355.421 308.314,356.588 309.5,358C 308.256,362.563 306.922,367.063 305.5,371.5C 302.848,371.59 300.515,370.924 298.5,369.5C 300.591,364.718 301.924,359.718 302.5,354.5C 303.5,354.5 304.5,354.5 305.5,354.5 Z"/></g>
<g><path style="opacity:1" fill="#1a1d20" d="M 254.5,340.5 C 254.06,343.38 253.06,346.046 251.5,348.5C 249.704,349.793 248.037,351.293 246.5,353C 252.632,353.743 255.632,357.243 255.5,363.5C 253.704,364.793 252.037,366.293 250.5,368C 249.668,368.688 249.002,368.521 248.5,367.5C 250.589,365.42 252.256,363.087 253.5,360.5C 252.105,355.924 249.105,354.091 244.5,355C 242.92,357.295 240.92,358.628 238.5,359C 244.82,353.526 250.153,347.359 254.5,340.5 Z"/></g>
<g><path style="opacity:1" fill="#f2ca4a" d="M 315.5,358.5 C 314.344,362.793 313.344,367.126 312.5,371.5C 310.958,372.301 309.292,372.634 307.5,372.5C 308.626,367.787 309.959,363.12 311.5,358.5C 312.808,357.374 314.142,357.374 315.5,358.5 Z"/></g>
<g><path style="opacity:1" fill="#3d3419" d="M 305.5,354.5 C 309.249,354.751 312.915,355.417 316.5,356.5C 316.672,357.492 316.338,358.158 315.5,358.5C 314.142,357.374 312.808,357.374 311.5,358.5C 309.959,363.12 308.626,367.787 307.5,372.5C 306.508,372.672 305.842,372.338 305.5,371.5C 306.922,367.063 308.256,362.563 309.5,358C 308.314,356.588 306.981,355.421 305.5,354.5 Z"/></g>
<g><path style="opacity:0.99" fill="#ba9efe" d="M 462.5,407.5 C 456.001,408.718 450.501,411.718 446,416.5C 446.487,421.826 447.32,427.159 448.5,432.5C 448.347,435.8 447.347,438.8 445.5,441.5C 431.167,441.5 416.833,441.5 402.5,441.5C 398.862,434.478 400.196,428.644 406.5,424C 412.515,421.321 418.015,417.821 423,413.5C 425.202,409.394 426.702,405.06 427.5,400.5C 432.722,382.142 444.055,376.976 461.5,385C 466.895,389.295 468.729,394.795 467,401.5C 466.434,404.229 464.934,406.229 462.5,407.5 Z"/></g>
<g><path style="opacity:1" fill="#1d2627" d="M 284.5,383.5 C 284.5,383.167 284.5,382.833 284.5,382.5C 289.627,382.859 294.627,383.859 299.5,385.5C 298.833,385.833 298.167,386.167 297.5,386.5C 293.225,385.177 288.891,384.177 284.5,383.5 Z"/></g>
<g><path style="opacity:0.993" fill="#683ec5" d="M 139.5,400.5 C 140.402,403.997 141.069,407.663 141.5,411.5C 129.814,439.728 118.481,468.228 107.5,497C 129.164,497.5 150.831,497.667 172.5,497.5C 172.833,497.5 173.167,497.5 173.5,497.5C 172.766,498.708 172.433,500.041 172.5,501.5C 235.504,501.833 298.504,501.5 361.5,500.5C 346.631,473.428 332.298,446.095 318.5,418.5C 336.57,424.106 355.07,427.439 374,428.5C 393.725,429.413 403.559,420.08 403.5,400.5C 411.5,400.5 419.5,400.5 427.5,400.5C 426.702,405.06 425.202,409.394 423,413.5C 418.015,417.821 412.515,421.321 406.5,424C 400.196,428.644 398.862,434.478 402.5,441.5C 397.167,441.5 391.833,441.5 386.5,441.5C 386.799,443.604 386.466,445.604 385.5,447.5C 374.669,443.335 366.502,446.335 361,456.5C 359.373,468.875 364.706,476.208 377,478.5C 381.139,478.065 384.972,476.731 388.5,474.5C 390.067,483.767 391.067,493.1 391.5,502.5C 411.503,502.667 431.503,502.5 451.5,502C 453.407,481.905 455.074,461.738 456.5,441.5C 452.833,441.5 449.167,441.5 445.5,441.5C 447.347,438.8 448.347,435.8 448.5,432.5C 447.32,427.159 446.487,421.826 446,416.5C 450.501,411.718 456.001,408.718 462.5,407.5C 478.052,441.603 494.386,475.27 511.5,508.5C 511.5,509.5 511.5,510.5 511.5,511.5C 340.833,511.5 170.167,511.5 -0.5,511.5C -0.5,510.833 -0.5,510.167 -0.5,509.5C 21.9335,473.481 44.2668,437.314 66.5,401C 90.8311,400.5 115.164,400.333 139.5,400.5 Z"/></g>
<g><path style="opacity:1" fill="#ab43d9" d="M 217.5,399.5 C 238.327,400.497 259.327,400.831 280.5,400.5C 280.5,400.833 280.5,401.167 280.5,401.5C 279.833,401.5 279.167,401.5 278.5,401.5C 257.5,401.5 236.5,401.5 215.5,401.5C 215.833,400.5 216.5,399.833 217.5,399.5 Z"/></g>
<g><path style="opacity:1" fill="#7149c8" d="M 215.5,401.5 C 236.5,401.5 257.5,401.5 278.5,401.5C 277.471,403.517 276.471,405.517 275.5,407.5C 267.167,407.5 258.833,407.5 250.5,407.5C 250.5,406.833 250.167,406.5 249.5,406.5C 249.586,405.504 249.252,404.671 248.5,404C 236.838,403.5 225.171,403.333 213.5,403.5C 213.833,402.5 214.5,401.833 215.5,401.5 Z"/></g>
<g><path style="opacity:1" fill="#fefefe" d="M 213.5,403.5 C 225.171,403.333 236.838,403.5 248.5,404C 249.252,404.671 249.586,405.504 249.5,406.5C 236.167,406.5 222.833,406.5 209.5,406.5C 210.795,405.512 212.128,404.512 213.5,403.5 Z"/></g>
<g><path style="opacity:1" fill="#202b2c" d="M 280.5,401.5 C 280.5,401.167 280.5,400.833 280.5,400.5C 285.378,400.645 290.045,401.645 294.5,403.5C 289.985,403.713 285.318,403.046 280.5,401.5 Z"/></g>
<g><path style="opacity:1" fill="#fdfdfd" d="M 250.5,407.5 C 258.833,407.5 267.167,407.5 275.5,407.5C 275.584,410.327 276.25,412.994 277.5,415.5C 277.007,417.806 276.674,420.139 276.5,422.5C 275.494,422.938 275.494,423.604 276.5,424.5C 277.836,427.838 279.169,431.171 280.5,434.5C 281.792,437.696 281.292,440.696 279,443.5C 274.041,450.793 268.041,457.126 261,462.5C 253.04,456.733 244.207,454.233 234.5,455C 225.221,457.089 221.721,462.589 224,471.5C 225.214,473.049 226.714,474.215 228.5,475C 232.5,475.667 236.5,475.667 240.5,475C 248.058,472.554 255.058,469.054 261.5,464.5C 270.255,471.546 279.922,477.046 290.5,481C 298.559,482.414 306.225,481.414 313.5,478C 314.5,477.167 315.5,476.333 316.5,475.5C 316.167,475.167 315.833,474.833 315.5,474.5C 304.633,481.945 293.3,482.445 281.5,476C 274.993,471.914 268.66,467.58 262.5,463C 271.824,455.179 279.491,446.013 285.5,435.5C 289.025,434.241 292.025,432.241 294.5,429.5C 295.833,429.5 296.5,428.833 296.5,427.5C 296.5,426.833 296.5,426.167 296.5,425.5C 303.358,425.739 309.024,423.239 313.5,418C 315.265,417.36 316.932,417.527 318.5,418.5C 332.298,446.095 346.631,473.428 361.5,500.5C 298.504,501.5 235.504,501.833 172.5,501.5C 172.433,500.041 172.766,498.708 173.5,497.5C 185.266,468.385 196.766,439.051 208,409.5C 222.265,408.841 236.431,408.175 250.5,407.5 Z"/></g>
<g><path style="opacity:1" fill="#fdfdfe" d="M 205.5,411.5 C 194.499,440.172 183.499,468.838 172.5,497.5C 150.831,497.667 129.164,497.5 107.5,497C 118.481,468.228 129.814,439.728 141.5,411.5C 143.462,415.984 146.462,419.817 150.5,423C 160.316,427.32 170.316,427.654 180.5,424C 188.954,420.274 196.954,415.774 204.5,410.5C 205.107,410.624 205.44,410.957 205.5,411.5 Z"/></g>
<g><path style="opacity:1" fill="#e8c64e" d="M 277.5,415.5 C 279.5,416.833 281.167,418.5 282.5,420.5C 281.481,424.689 279.481,425.355 276.5,422.5C 276.674,420.139 277.007,417.806 277.5,415.5 Z"/></g>
<g><path style="opacity:1" fill="#dab844" d="M 283.5,421.5 C 286.018,422.264 288.351,423.264 290.5,424.5C 290.181,428.3 289.181,428.466 287.5,425C 285.888,424.28 284.388,424.446 283,425.5C 282.421,424.072 282.588,422.738 283.5,421.5 Z"/></g>
<g><path style="opacity:1" fill="#1e190c" d="M 282.5,420.5 C 283.167,420.5 283.5,420.833 283.5,421.5C 282.588,422.738 282.421,424.072 283,425.5C 284.388,424.446 285.888,424.28 287.5,425C 289.181,428.466 290.181,428.3 290.5,424.5C 290.833,424.5 291.167,424.5 291.5,424.5C 291.238,425.978 291.571,427.311 292.5,428.5C 293.736,427.754 295.07,427.421 296.5,427.5C 296.5,428.833 295.833,429.5 294.5,429.5C 292.473,429.662 290.473,429.495 288.5,429C 286.845,424.872 284.345,424.372 281,427.5C 279.357,426.685 277.857,425.685 276.5,424.5C 275.494,423.604 275.494,422.938 276.5,422.5C 279.481,425.355 281.481,424.689 282.5,420.5 Z"/></g>
<g><path style="opacity:1" fill="#d9b53e" d="M 291.5,424.5 C 293.042,425.301 294.708,425.634 296.5,425.5C 296.5,426.167 296.5,426.833 296.5,427.5C 295.07,427.421 293.736,427.754 292.5,428.5C 291.571,427.311 291.238,425.978 291.5,424.5 Z"/></g>
<g><path style="opacity:1" fill="#edc647" d="M 276.5,424.5 C 277.857,425.685 279.357,426.685 281,427.5C 284.345,424.372 286.845,424.872 288.5,429C 290.473,429.495 292.473,429.662 294.5,429.5C 292.025,432.241 289.025,434.241 285.5,435.5C 283.784,435.371 282.117,435.038 280.5,434.5C 279.169,431.171 277.836,427.838 276.5,424.5 Z"/></g>
<g><path style="opacity:1" fill="#2d2d2d" d="M 209.5,406.5 C 222.833,406.5 236.167,406.5 249.5,406.5C 250.167,406.5 250.5,406.833 250.5,407.5C 236.431,408.175 222.265,408.841 208,409.5C 196.766,439.051 185.266,468.385 173.5,497.5C 173.167,497.5 172.833,497.5 172.5,497.5C 183.499,468.838 194.499,440.172 205.5,411.5C 206.128,409.338 207.461,407.672 209.5,406.5 Z"/></g>
<g><path style="opacity:1" fill="#f3abfe" d="M 402.5,441.5 C 416.833,441.5 431.167,441.5 445.5,441.5C 449.167,441.5 452.833,441.5 456.5,441.5C 455.074,461.738 453.407,481.905 451.5,502C 431.503,502.5 411.503,502.667 391.5,502.5C 391.067,493.1 390.067,483.767 388.5,474.5C 384.972,476.731 381.139,478.065 377,478.5C 364.706,476.208 359.373,468.875 361,456.5C 366.502,446.335 374.669,443.335 385.5,447.5C 386.466,445.604 386.799,443.604 386.5,441.5C 391.833,441.5 397.167,441.5 402.5,441.5 Z"/></g>
<g><path style="opacity:1" fill="#6b3fc6" d="M 374.5,452.5 C 383.53,452.359 387.363,456.692 386,465.5C 383.103,470.155 378.937,471.655 373.5,470C 368.845,467.103 367.345,462.937 369,457.5C 370.73,455.598 372.563,453.931 374.5,452.5 Z"/></g>
<g><path style="opacity:1" fill="#242424" d="M 280.5,434.5 C 282.117,435.038 283.784,435.371 285.5,435.5C 279.491,446.013 271.824,455.179 262.5,463C 268.66,467.58 274.993,471.914 281.5,476C 293.3,482.445 304.633,481.945 315.5,474.5C 315.833,474.833 316.167,475.167 316.5,475.5C 315.5,476.333 314.5,477.167 313.5,478C 306.225,481.414 298.559,482.414 290.5,481C 279.922,477.046 270.255,471.546 261.5,464.5C 255.058,469.054 248.058,472.554 240.5,475C 236.5,475.667 232.5,475.667 228.5,475C 226.714,474.215 225.214,473.049 224,471.5C 221.721,462.589 225.221,457.089 234.5,455C 244.207,454.233 253.04,456.733 261,462.5C 268.041,457.126 274.041,450.793 279,443.5C 281.292,440.696 281.792,437.696 280.5,434.5 Z"/></g>
<g><path style="opacity:1" fill="#f9f9f9" d="M 233.5,456.5 C 243.034,455.716 251.701,458.05 259.5,463.5C 250.854,470.882 240.854,474.382 229.5,474C 223.623,470.196 222.956,465.529 227.5,460C 229.432,458.541 231.432,457.375 233.5,456.5 Z"/></g>
</svg>
