<?xml version="1.0" standalone="no"?>
<!DOCTYPE svg PUBLIC "-//W3C//DTD SVG 20010904//EN"
 "http://www.w3.org/TR/2001/REC-SVG-20010904/DTD/svg10.dtd">
<svg version="1.0" xmlns="http://www.w3.org/2000/svg"
 width="512.000000pt" height="512.000000pt" viewBox="0 0 512.000000 512.000000"
 preserveAspectRatio="xMidYMid meet">

<g transform="translate(0.000000,512.000000) scale(0.100000,-0.100000)"
fill="#000000" stroke="none">
<path d="M2330 5110 c-492 -51 -933 -223 -1319 -514 -119 -89 -319 -281 -423
-406 -473 -565 -676 -1336 -548 -2073 42 -241 106 -438 214 -663 128 -264 264
-459 461 -663 273 -282 560 -474 920 -616 103 -41 127 -46 173 -43 62 6 99 35
111 89 4 19 5 141 3 272 -3 189 -7 237 -17 233 -38 -14 -233 -28 -325 -23
-182 10 -309 58 -405 152 -42 41 -67 78 -109 166 -98 205 -171 303 -285 383
-146 102 -131 163 39 154 137 -8 254 -90 369 -258 82 -119 148 -183 235 -225
132 -64 279 -69 442 -13 l67 23 18 77 c21 88 52 154 103 221 l35 46 -37 6
c-334 51 -537 124 -710 255 -247 186 -371 455 -402 871 -23 300 41 545 196
747 l55 73 -21 92 c-37 157 -30 323 21 499 28 95 37 102 123 93 136 -13 335
-93 527 -211 l88 -55 78 20 c338 85 764 85 1120 1 l82 -19 97 61 c110 69 248
136 344 168 91 29 214 46 243 33 31 -14 63 -114 84 -262 14 -95 15 -129 5
-215 -6 -55 -19 -124 -28 -152 l-17 -51 50 -61 c87 -109 160 -267 195 -427 18
-84 15 -383 -5 -505 -91 -541 -404 -839 -982 -935 -49 -8 -104 -18 -122 -20
l-32 -6 36 -47 c20 -26 49 -74 64 -107 54 -115 59 -166 59 -627 0 -368 2 -424
16 -454 33 -69 106 -81 226 -38 588 212 1106 671 1393 1234 369 727 379 1564
26 2287 -124 254 -261 449 -456 651 -227 235 -435 388 -720 528 -255 124 -475
194 -748 235 -151 23 -473 33 -607 19z"/>
</g>
</svg>
