<?xml version="1.0" encoding="UTF-8"?>
<!DOCTYPE svg PUBLIC "-//W3C//DTD SVG 1.1//EN" "http://www.w3.org/Graphics/SVG/1.1/DTD/svg11.dtd">
<svg xmlns="http://www.w3.org/2000/svg" version="1.1" width="512px" height="512px" style="shape-rendering:geometricPrecision; text-rendering:geometricPrecision; image-rendering:optimizeQuality; fill-rule:evenodd; clip-rule:evenodd" xmlns:xlink="http://www.w3.org/1999/xlink">
<g><path style="opacity:0.991" fill="#7487fe" d="M 226.5,-0.5 C 237.5,-0.5 248.5,-0.5 259.5,-0.5C 276.619,1.26392 292.286,7.09725 306.5,17C 308.874,19.039 310.874,21.3723 312.5,24C 341.23,26.7336 359.73,41.9003 368,69.5C 368.756,76.2166 368.589,82.8833 367.5,89.5C 362.052,92.808 356.218,95.1413 350,96.5C 335.377,94.8537 324.043,87.8537 316,75.5C 311.006,66.645 306.506,57.645 302.5,48.5C 275.687,66.2685 246.354,72.7685 214.5,68C 206.476,66.5777 198.809,64.0777 191.5,60.5C 179.842,85.8148 160.176,100.482 132.5,104.5C 127.84,101.51 123.173,98.5096 118.5,95.5C 114.683,66.2807 126.683,47.114 154.5,38C 159.448,36.9502 164.448,36.4502 169.5,36.5C 170.592,26.8821 175.258,19.3821 183.5,14C 196.941,6.23056 211.274,1.39722 226.5,-0.5 Z"/></g>
<g><path style="opacity:0.995" fill="#b8f8f5" d="M 367.5,89.5 C 394.622,84.0288 414.122,93.6955 426,118.5C 432.466,146.069 422.632,165.236 396.5,176C 390.182,177.885 383.849,178.385 377.5,177.5C 377.89,198.711 370.556,216.711 355.5,231.5C 348.528,230.492 341.528,230.325 334.5,231C 328.656,233.012 324.656,236.846 322.5,242.5C 310.5,242.5 298.5,242.5 286.5,242.5C 263.5,242.5 240.5,242.5 217.5,242.5C 212.833,242.5 208.167,242.5 203.5,242.5C 200.986,235.986 196.32,231.986 189.5,230.5C 212.416,225.912 223.416,211.912 222.5,188.5C 234.644,178.878 240.978,166.212 241.5,150.5C 240.932,129.586 230.932,114.753 211.5,106C 190.138,98.7867 171.972,103.62 157,120.5C 148.564,131.277 145.398,143.277 147.5,156.5C 148.421,163.189 150.421,169.523 153.5,175.5C 144.309,201.959 152.642,220.293 178.5,230.5C 172.774,231.037 167.44,232.703 162.5,235.5C 146.68,222.543 137.013,205.876 133.5,185.5C 104.137,199.549 79.6372,193.549 60,167.5C 49.8696,150.688 48.8696,133.354 57,115.5C 72.4103,93.3528 92.9103,86.6861 118.5,95.5C 123.173,98.5096 127.84,101.51 132.5,104.5C 160.176,100.482 179.842,85.8148 191.5,60.5C 198.809,64.0777 206.476,66.5777 214.5,68C 246.354,72.7685 275.687,66.2685 302.5,48.5C 306.506,57.645 311.006,66.645 316,75.5C 324.043,87.8537 335.377,94.8537 350,96.5C 356.218,95.1413 362.052,92.808 367.5,89.5 Z"/></g>
<g><path style="opacity:1" fill="#768afe" d="M 300.5,81.5 C 308.743,80.2776 316.243,81.9442 323,86.5C 323.667,87.8333 323.667,89.1667 323,90.5C 320.531,92.6515 317.698,94.1515 314.5,95C 307.097,96.3776 300.097,95.3776 293.5,92C 290.833,89.6667 290.833,87.3333 293.5,85C 295.925,83.7874 298.259,82.6207 300.5,81.5 Z"/></g>
<g><path style="opacity:1" fill="#7589fe" d="M 186.5,85.5 C 192.509,85.3338 198.509,85.5005 204.5,86C 214.088,91.2897 213.421,95.2897 202.5,98C 197.167,98.6667 191.833,98.6667 186.5,98C 177.318,93.7393 177.318,89.5726 186.5,85.5 Z"/></g>
<g><path style="opacity:1" fill="#fdfdfd" d="M 357.5,138.5 C 357.5,140.833 357.5,143.167 357.5,145.5C 328.136,146.669 298.803,148.335 269.5,150.5C 268.887,125.948 280.221,109.781 303.5,102C 331.95,98.9798 349.95,111.146 357.5,138.5 Z"/></g>
<g><path style="opacity:1" fill="#fdfdfd" d="M 240.5,150.5 C 212.494,152.078 184.494,153.745 156.5,155.5C 153.833,155.5 151.167,155.5 148.5,155.5C 148.5,152.833 148.5,150.167 148.5,147.5C 150.435,128.465 160.101,114.965 177.5,107C 207.26,99.6294 227.76,110.129 239,138.5C 240.156,142.418 240.656,146.418 240.5,150.5 Z"/></g>
<g><path style="opacity:1" fill="#272d2c" d="M 358.5,138.5 C 358.167,138.5 357.833,138.5 357.5,138.5C 349.95,111.146 331.95,98.9798 303.5,102C 280.221,109.781 268.887,125.948 269.5,150.5C 269.5,151.5 269.5,152.5 269.5,153.5C 265.974,132.698 273.308,116.532 291.5,105C 317.955,93.8197 338.788,100.32 354,124.5C 356.007,129.02 357.507,133.687 358.5,138.5 Z"/></g>
<g><path style="opacity:1" fill="#252b2b" d="M 241.5,150.5 C 241.167,150.5 240.833,150.5 240.5,150.5C 240.656,146.418 240.156,142.418 239,138.5C 227.76,110.129 207.26,99.6294 177.5,107C 160.101,114.965 150.435,128.465 148.5,147.5C 147.523,150.287 147.19,153.287 147.5,156.5C 145.398,143.277 148.564,131.277 157,120.5C 171.972,103.62 190.138,98.7867 211.5,106C 230.932,114.753 240.932,129.586 241.5,150.5 Z"/></g>
<g><path style="opacity:1" fill="#181f1f" d="M 396.5,122.5 C 398.028,122.517 398.528,123.184 398,124.5C 389.864,131.635 382.03,139.135 374.5,147C 373.833,147.667 373.167,147.667 372.5,147C 380.702,138.965 388.702,130.798 396.5,122.5 Z"/></g>
<g><path style="opacity:1" fill="#1c2424" d="M 82.5,138.5 C 94.5811,141.818 106.581,146.318 118.5,152C 106.255,148.387 94.2554,143.887 82.5,138.5 Z"/></g>
<g><path style="opacity:1" fill="#030303" d="M 357.5,138.5 C 357.833,138.5 358.167,138.5 358.5,138.5C 358.873,146.364 357.873,154.03 355.5,161.5C 344.798,183.852 327.132,193.019 302.5,189C 298.603,187.981 294.936,186.481 291.5,184.5C 279.545,177.53 272.212,167.197 269.5,153.5C 269.5,152.5 269.5,151.5 269.5,150.5C 298.803,148.335 328.136,146.669 357.5,145.5C 357.5,143.167 357.5,140.833 357.5,138.5 Z"/></g>
<g><path style="opacity:1" fill="#8c8c8c" d="M 148.5,147.5 C 148.5,150.167 148.5,152.833 148.5,155.5C 151.167,155.5 153.833,155.5 156.5,155.5C 153.713,156.477 150.713,156.81 147.5,156.5C 147.19,153.287 147.523,150.287 148.5,147.5 Z"/></g>
<g><path style="opacity:1" fill="#030202" d="M 240.5,150.5 C 240.833,150.5 241.167,150.5 241.5,150.5C 240.978,166.212 234.644,178.878 222.5,188.5C 207.486,198.303 191.486,200.136 174.5,194C 165.746,189.741 158.746,183.574 153.5,175.5C 150.421,169.523 148.421,163.189 147.5,156.5C 150.713,156.81 153.713,156.477 156.5,155.5C 184.494,153.745 212.494,152.078 240.5,150.5 Z"/></g>
<g><path style="opacity:1" fill="#263231" d="M 377.5,177.5 C 376.883,177.389 376.383,177.056 376,176.5C 374.668,163.49 369.668,152.156 361,142.5C 360.312,141.668 360.479,141.002 361.5,140.5C 370.941,151.049 376.274,163.382 377.5,177.5 Z"/></g>
<g><path style="opacity:1" fill="#ef5194" d="M 355.5,161.5 C 366.607,175.754 367.44,190.754 358,206.5C 343.073,223.128 325.906,225.961 306.5,215C 296.314,207.46 291.314,197.294 291.5,184.5C 294.936,186.481 298.603,187.981 302.5,189C 327.132,193.019 344.798,183.852 355.5,161.5 Z"/></g>
<g><path style="opacity:1" fill="#ee5193" d="M 153.5,175.5 C 158.746,183.574 165.746,189.741 174.5,194C 191.486,200.136 207.486,198.303 222.5,188.5C 223.416,211.912 212.416,225.912 189.5,230.5C 185.833,230.5 182.167,230.5 178.5,230.5C 152.642,220.293 144.309,201.959 153.5,175.5 Z"/></g>
<g><path style="opacity:1" fill="#283534" d="M 133.5,172.5 C 134.388,175.483 135.054,178.65 135.5,182C 135.167,182.833 134.833,183.667 134.5,184.5C 133.509,180.555 133.176,176.555 133.5,172.5 Z"/></g>
<g><path style="opacity:1" fill="#fbfcfc" d="M 284.5,213.5 C 278.853,205.193 272.853,197.193 266.5,189.5C 271.276,181.621 277.109,180.621 284,186.5C 289.781,195.485 289.948,204.485 284.5,213.5 Z"/></g>
<g><path style="opacity:1" fill="#fbfdfc" d="M 248.5,189.5 C 244.088,198.657 239.422,207.657 234.5,216.5C 227.608,207.798 226.774,198.465 232,188.5C 236.2,184.286 241.034,183.452 246.5,186C 247.823,186.816 248.489,187.983 248.5,189.5 Z"/></g>
<g><path style="opacity:1" fill="#fafafa" d="M 249.5,190.5 C 251.779,193.442 254.779,195.109 258.5,195.5C 258.5,205.833 258.5,216.167 258.5,226.5C 249.536,226.508 241.87,223.508 235.5,217.5C 240.418,208.665 245.085,199.665 249.5,190.5 Z"/></g>
<g><path style="opacity:1" fill="#fcfdfd" d="M 266.5,189.5 C 271.75,198.089 277.417,206.423 283.5,214.5C 283.141,216.371 282.141,217.871 280.5,219C 274.642,223.632 267.976,225.798 260.5,225.5C 260.447,215.488 260.113,205.488 259.5,195.5C 262.453,194.213 264.786,192.213 266.5,189.5 Z"/></g>
<g><path style="opacity:1" fill="#272727" d="M 248.5,189.5 C 249.167,189.5 249.5,189.833 249.5,190.5C 245.085,199.665 240.418,208.665 235.5,217.5C 234.833,217.5 234.5,217.167 234.5,216.5C 239.422,207.657 244.088,198.657 248.5,189.5 Z"/></g>
<g><path style="opacity:1" fill="#282828" d="M 266.5,189.5 C 272.853,197.193 278.853,205.193 284.5,213.5C 284.5,214.167 284.167,214.5 283.5,214.5C 277.417,206.423 271.75,198.089 266.5,189.5 Z"/></g>
<g><path style="opacity:1" fill="#444444" d="M 258.5,195.5 C 258.833,195.5 259.167,195.5 259.5,195.5C 260.113,205.488 260.447,215.488 260.5,225.5C 260.158,226.338 259.492,226.672 258.5,226.5C 258.5,216.167 258.5,205.833 258.5,195.5 Z"/></g>
<g><path style="opacity:0.933" fill="#f9de22" d="M 403.5,242.5 C 402.848,243.725 401.681,244.392 400,244.5C 398.319,244.392 397.152,243.725 396.5,242.5C 396.5,236.833 396.5,231.167 396.5,225.5C 398.833,225.5 401.167,225.5 403.5,225.5C 403.5,231.167 403.5,236.833 403.5,242.5 Z"/></g>
<g><path style="opacity:0.927" fill="#f8dd25" d="M 123.5,242.5 C 122.848,243.725 121.681,244.392 120,244.5C 118.213,244.241 116.713,243.575 115.5,242.5C 115.5,236.833 115.5,231.167 115.5,225.5C 118.167,225.5 120.833,225.5 123.5,225.5C 123.5,231.167 123.5,236.833 123.5,242.5 Z"/></g>
<g><path style="opacity:0.631" fill="#151a19" d="M 355.5,231.5 C 361.959,233.307 366.959,236.974 370.5,242.5C 370.5,242.833 370.5,243.167 370.5,243.5C 358.742,231.981 345.076,229.147 329.5,235C 326.629,237.249 324.629,240.082 323.5,243.5C 322.833,243.5 322.5,243.167 322.5,242.5C 324.656,236.846 328.656,233.012 334.5,231C 341.528,230.325 348.528,230.492 355.5,231.5 Z"/></g>
<g><path style="opacity:1" fill="#b6f6f3" d="M 202.5,243.5 C 201.377,245.979 201.377,248.312 202.5,250.5C 202.839,255.93 202.339,261.264 201,266.5C 197.024,269.469 193.524,269.136 190.5,265.5C 190.826,261.116 190.492,256.783 189.5,252.5C 188.577,256.806 188.577,261.139 189.5,265.5C 188.977,267.708 187.644,269.208 185.5,270C 181.851,270.963 178.518,270.463 175.5,268.5C 174.833,268.5 174.5,268.167 174.5,267.5C 174.826,263.116 174.492,258.783 173.5,254.5C 172.577,258.806 172.577,263.139 173.5,267.5C 171.815,269.818 169.481,270.818 166.5,270.5C 166.167,270.5 165.833,270.5 165.5,270.5C 165.167,270.5 164.833,270.5 164.5,270.5C 162.858,269.197 161.191,267.864 159.5,266.5C 156.119,261.73 154.453,256.396 154.5,250.5C 154.448,248.097 154.781,245.764 155.5,243.5C 167.209,231.877 180.876,229.044 196.5,235C 199.528,237.181 201.528,240.014 202.5,243.5 Z"/></g>
<g><path style="opacity:1" fill="#1b2222" d="M 178.5,230.5 C 182.167,230.5 185.833,230.5 189.5,230.5C 196.32,231.986 200.986,235.986 203.5,242.5C 203.5,243.167 203.167,243.5 202.5,243.5C 201.528,240.014 199.528,237.181 196.5,235C 180.876,229.044 167.209,231.877 155.5,243.5C 155.5,243.167 155.5,242.833 155.5,242.5C 156.833,239.167 159.167,236.833 162.5,235.5C 167.44,232.703 172.774,231.037 178.5,230.5 Z"/></g>
<g><path style="opacity:1" fill="#b8f7f2" d="M 370.5,243.5 C 372.275,250.805 371.442,257.805 368,264.5C 363.605,270.979 358.439,271.979 352.5,267.5C 353.634,263.164 353.634,258.831 352.5,254.5C 351.508,258.783 351.174,263.116 351.5,267.5C 346.169,271.694 341.002,271.36 336,266.5C 327.254,270.539 323.088,267.706 323.5,258C 324.512,253.123 324.512,248.29 323.5,243.5C 324.629,240.082 326.629,237.249 329.5,235C 345.076,229.147 358.742,231.981 370.5,243.5 Z"/></g>
<g><path style="opacity:0.955" fill="#000000" d="M 113.5,242.5 C 113.721,245.279 113.388,247.946 112.5,250.5C 97.5,250.5 82.5,250.5 67.5,250.5C 67.5,316.833 67.5,383.167 67.5,449.5C 104.833,449.5 142.167,449.5 179.5,449.5C 183.116,430.086 187.116,410.753 191.5,391.5C 203.322,390.505 215.322,390.172 227.5,390.5C 227.403,374.474 226.736,358.474 225.5,342.5C 236.167,342.5 246.833,342.5 257.5,342.5C 270.167,342.5 282.833,342.5 295.5,342.5C 295.5,346.833 295.5,351.167 295.5,355.5C 300.363,355.181 305.03,355.514 309.5,356.5C 314.077,387.63 319.411,418.63 325.5,449.5C 326.833,449.5 328.167,449.5 329.5,449.5C 329.5,450.167 329.5,450.833 329.5,451.5C 328.5,451.5 327.5,451.5 326.5,451.5C 327.092,454.127 327.425,456.794 327.5,459.5C 325.167,459.5 322.833,459.5 320.5,459.5C 301.968,459.659 283.635,460.659 265.5,462.5C 263.08,462.292 260.747,462.626 258.5,463.5C 257.509,459.555 257.176,455.555 257.5,451.5C 254.5,451.5 251.5,451.5 248.5,451.5C 247.92,455.142 247.42,458.809 247,462.5C 245.374,462.854 243.541,462.854 241.5,462.5C 227.829,461.903 214.163,461.237 200.5,460.5C 199.787,455.077 197.954,450.077 195,445.5C 192.511,450.137 190.344,454.804 188.5,459.5C 187.222,459.782 186.222,460.449 185.5,461.5C 185.389,460.883 185.056,460.383 184.5,460C 182.1,459.814 179.766,459.314 177.5,458.5C 178.374,456.253 178.708,453.92 178.5,451.5C 141.5,451.5 104.5,451.5 67.5,451.5C 67.5,468.5 67.5,485.5 67.5,502.5C 76.8333,502.5 86.1667,502.5 95.5,502.5C 95.5,505.5 95.5,508.5 95.5,511.5C 73.8333,511.5 52.1667,511.5 30.5,511.5C 30.5,508.5 30.5,505.5 30.5,502.5C 39.8333,502.5 49.1667,502.5 58.5,502.5C 58.5,485.5 58.5,468.5 58.5,451.5C 38.8333,451.5 19.1667,451.5 -0.5,451.5C -0.5,450.833 -0.5,450.167 -0.5,449.5C 19.1667,449.5 38.8333,449.5 58.5,449.5C 58.5,383.167 58.5,316.833 58.5,250.5C 55.5,250.5 52.5,250.5 49.5,250.5C 49.5,247.833 49.5,245.167 49.5,242.5C 70.8333,242.5 92.1667,242.5 113.5,242.5 Z M 256.5,378.5 C 257.498,401.994 257.831,425.661 257.5,449.5C 254.5,449.5 251.5,449.5 248.5,449.5C 251.577,425.882 254.244,402.215 256.5,378.5 Z"/></g>
<g><path style="opacity:0.995" fill="#7d57e7" d="M 113.5,242.5 C 114.167,242.5 114.833,242.5 115.5,242.5C 116.713,243.575 118.213,244.241 120,244.5C 121.681,244.392 122.848,243.725 123.5,242.5C 134.167,242.5 144.833,242.5 155.5,242.5C 155.5,242.833 155.5,243.167 155.5,243.5C 154.781,245.764 154.448,248.097 154.5,250.5C 143.167,250.5 131.833,250.5 120.5,250.5C 119.603,274.211 130.27,282.045 152.5,274C 155.067,271.604 157.4,269.104 159.5,266.5C 161.191,267.864 162.858,269.197 164.5,270.5C 164.5,275.5 164.5,280.5 164.5,285.5C 157.978,285.177 151.645,285.51 145.5,286.5C 159.323,287.496 173.323,287.829 187.5,287.5C 188.043,287.44 188.376,287.107 188.5,286.5C 181.197,285.503 173.863,285.169 166.5,285.5C 166.5,280.5 166.5,275.5 166.5,270.5C 169.481,270.818 171.815,269.818 173.5,267.5C 173.833,267.5 174.167,267.5 174.5,267.5C 174.5,268.167 174.833,268.5 175.5,268.5C 180.194,276.465 187.194,279.299 196.5,277C 202.793,275.774 207.293,272.274 210,266.5C 211.339,261.264 211.839,255.93 211.5,250.5C 208.5,250.5 205.5,250.5 202.5,250.5C 201.377,248.312 201.377,245.979 202.5,243.5C 203.167,243.5 203.5,243.167 203.5,242.5C 208.167,242.5 212.833,242.5 217.5,242.5C 218.369,244.717 218.702,247.05 218.5,249.5C 218.179,254.695 218.513,259.695 219.5,264.5C 221.32,290.662 223.32,316.662 225.5,342.5C 226.736,358.474 227.403,374.474 227.5,390.5C 215.322,390.172 203.322,390.505 191.5,391.5C 185.5,391.5 179.5,391.5 173.5,391.5C 171.571,361.488 169.404,331.488 167,301.5C 166.138,331.495 165.638,361.495 165.5,391.5C 146.833,391.5 128.167,391.5 109.5,391.5C 110.412,344.498 111.412,297.498 112.5,250.5C 113.388,247.946 113.721,245.279 113.5,242.5 Z"/></g>
<g><path style="opacity:0.99" fill="#e57a33" d="M 286.5,242.5 C 298.5,242.5 310.5,242.5 322.5,242.5C 322.5,243.167 322.833,243.5 323.5,243.5C 324.512,248.29 324.512,253.123 323.5,258C 323.088,267.706 327.254,270.539 336,266.5C 341.002,271.36 346.169,271.694 351.5,267.5C 351.833,267.5 352.167,267.5 352.5,267.5C 358.439,271.979 363.605,270.979 368,264.5C 371.442,257.805 372.275,250.805 370.5,243.5C 370.5,243.167 370.5,242.833 370.5,242.5C 379.167,242.5 387.833,242.5 396.5,242.5C 397.152,243.725 398.319,244.392 400,244.5C 401.681,244.392 402.848,243.725 403.5,242.5C 408.833,242.5 414.167,242.5 419.5,242.5C 420.669,245.511 422.336,248.178 424.5,250.5C 430.041,259.585 435.041,268.918 439.5,278.5C 434.761,279.185 430.095,280.185 425.5,281.5C 423.993,279.711 422.66,277.711 421.5,275.5C 419.568,278.366 417.901,281.366 416.5,284.5C 412.064,285.026 407.731,286.026 403.5,287.5C 402.063,284.959 400.897,282.292 400,279.5C 400.191,300.165 400.691,320.832 401.5,341.5C 401.5,346.167 401.5,350.833 401.5,355.5C 396.737,355.226 392.07,355.559 387.5,356.5C 372.5,356.5 357.5,356.5 342.5,356.5C 341.17,351.348 339.337,346.348 337,341.5C 334.007,346.35 331.507,351.35 329.5,356.5C 322.833,356.5 316.167,356.5 309.5,356.5C 305.03,355.514 300.363,355.181 295.5,355.5C 295.5,351.167 295.5,346.833 295.5,342.5C 282.833,342.5 270.167,342.5 257.5,342.5C 270.323,341.505 283.323,341.171 296.5,341.5C 297.284,321.164 297.784,300.831 298,280.5C 297.115,283 295.948,285.333 294.5,287.5C 291.36,285.594 288.027,284.26 284.5,283.5C 283.573,277.551 281.739,271.885 279,266.5C 277.153,270.193 275.32,273.86 273.5,277.5C 269.133,276.483 265.133,274.65 261.5,272C 264.669,267.999 268.003,264.166 271.5,260.5C 274.848,257.149 277.848,253.482 280.5,249.5C 283.219,247.781 285.219,245.447 286.5,242.5 Z"/></g>
<g><path style="opacity:0.929" fill="#000000" d="M 419.5,242.5 C 433.167,242.5 446.833,242.5 460.5,242.5C 460.5,245.167 460.5,247.833 460.5,250.5C 457.5,250.5 454.5,250.5 451.5,250.5C 451.5,281.167 451.5,311.833 451.5,342.5C 450.502,365.994 450.169,389.661 450.5,413.5C 450.169,438.339 450.502,463.006 451.5,487.5C 451.5,492.5 451.5,497.5 451.5,502.5C 461.167,502.5 470.833,502.5 480.5,502.5C 480.5,505.5 480.5,508.5 480.5,511.5C 458.833,511.5 437.167,511.5 415.5,511.5C 415.5,508.5 415.5,505.5 415.5,502.5C 424.5,502.5 433.5,502.5 442.5,502.5C 442.5,497.5 442.5,492.5 442.5,487.5C 443.498,463.006 443.831,438.339 443.5,413.5C 443.824,387.759 443.49,362.092 442.5,336.5C 442.5,307.833 442.5,279.167 442.5,250.5C 436.5,250.5 430.5,250.5 424.5,250.5C 422.336,248.178 420.669,245.511 419.5,242.5 Z"/></g>
<g><path style="opacity:1" fill="#0d100f" d="M 217.5,242.5 C 240.5,242.5 263.5,242.5 286.5,242.5C 285.219,245.447 283.219,247.781 280.5,249.5C 259.833,249.5 239.167,249.5 218.5,249.5C 218.702,247.05 218.369,244.717 217.5,242.5 Z"/></g>
<g><path style="opacity:1" fill="#b8f6f1" d="M 218.5,249.5 C 239.167,249.5 259.833,249.5 280.5,249.5C 277.848,253.482 274.848,257.149 271.5,260.5C 254.107,260.943 236.774,260.276 219.5,258.5C 219.5,260.5 219.5,262.5 219.5,264.5C 218.513,259.695 218.179,254.695 218.5,249.5 Z"/></g>
<g><path style="opacity:1" fill="#7486fe" d="M 154.5,250.5 C 154.453,256.396 156.119,261.73 159.5,266.5C 157.4,269.104 155.067,271.604 152.5,274C 130.27,282.045 119.603,274.211 120.5,250.5C 131.833,250.5 143.167,250.5 154.5,250.5 Z"/></g>
<g><path style="opacity:1" fill="#7587fd" d="M 202.5,250.5 C 205.5,250.5 208.5,250.5 211.5,250.5C 211.839,255.93 211.339,261.264 210,266.5C 207.293,272.274 202.793,275.774 196.5,277C 187.194,279.299 180.194,276.465 175.5,268.5C 178.518,270.463 181.851,270.963 185.5,270C 187.644,269.208 188.977,267.708 189.5,265.5C 189.833,265.5 190.167,265.5 190.5,265.5C 193.524,269.136 197.024,269.469 201,266.5C 202.339,261.264 202.839,255.93 202.5,250.5 Z"/></g>
<g><path style="opacity:1" fill="#293736" d="M 190.5,265.5 C 190.167,265.5 189.833,265.5 189.5,265.5C 188.577,261.139 188.577,256.806 189.5,252.5C 190.492,256.783 190.826,261.116 190.5,265.5 Z"/></g>
<g><path style="opacity:1" fill="#f9de23" d="M 271.5,260.5 C 268.003,264.166 264.669,267.999 261.5,272C 265.133,274.65 269.133,276.483 273.5,277.5C 271.677,283.371 271.177,289.371 272,295.5C 280.572,301.268 285.072,298.934 285.5,288.5C 285.408,286.742 285.075,285.076 284.5,283.5C 288.027,284.26 291.36,285.594 294.5,287.5C 295.948,285.333 297.115,283 298,280.5C 297.784,300.831 297.284,321.164 296.5,341.5C 283.323,341.171 270.323,341.505 257.5,342.5C 246.833,342.5 236.167,342.5 225.5,342.5C 223.32,316.662 221.32,290.662 219.5,264.5C 219.5,262.5 219.5,260.5 219.5,258.5C 236.774,260.276 254.107,260.943 271.5,260.5 Z"/></g>
<g><path style="opacity:1" fill="#2e3d3c" d="M 336.5,252.5 C 337.811,256.683 337.811,261.016 336.5,265.5C 335.23,261.119 335.23,256.785 336.5,252.5 Z"/></g>
<g><path style="opacity:1" fill="#283534" d="M 174.5,267.5 C 174.167,267.5 173.833,267.5 173.5,267.5C 172.577,263.139 172.577,258.806 173.5,254.5C 174.492,258.783 174.826,263.116 174.5,267.5 Z"/></g>
<g><path style="opacity:1" fill="#2c3a39" d="M 352.5,267.5 C 352.167,267.5 351.833,267.5 351.5,267.5C 351.174,263.116 351.508,258.783 352.5,254.5C 353.634,258.831 353.634,263.164 352.5,267.5 Z"/></g>
<g><path style="opacity:1" fill="#bcf6ee" d="M 284.5,283.5 C 285.075,285.076 285.408,286.742 285.5,288.5C 285.072,298.934 280.572,301.268 272,295.5C 271.177,289.371 271.677,283.371 273.5,277.5C 275.32,273.86 277.153,270.193 279,266.5C 281.739,271.885 283.573,277.551 284.5,283.5 Z"/></g>
<g><path style="opacity:1" fill="#231409" d="M 394.5,255.5 C 396.045,256.23 396.878,257.563 397,259.5C 397.416,263.914 398.25,268.248 399.5,272.5C 399.167,273.167 398.833,273.833 398.5,274.5C 396.908,268.207 395.575,261.874 394.5,255.5 Z"/></g>
<g><path style="opacity:1" fill="#000000" d="M 165.5,270.5 C 165.833,270.5 166.167,270.5 166.5,270.5C 166.5,275.5 166.5,280.5 166.5,285.5C 173.5,286.167 180.5,286.833 187.5,287.5C 173.323,287.829 159.323,287.496 145.5,286.5C 152.167,286.5 158.833,286.5 165.5,286.5C 165.5,281.167 165.5,275.833 165.5,270.5 Z"/></g>
<g><path style="opacity:1" fill="#fefaf8" d="M 337.5,272.5 C 346.085,272.183 354.585,272.517 363,273.5C 363.76,277.225 363.593,280.892 362.5,284.5C 357.544,285.494 352.544,285.827 347.5,285.5C 347.5,287.167 347.5,288.833 347.5,290.5C 358.817,289.815 364.817,295.149 365.5,306.5C 364.655,315.182 359.989,320.682 351.5,323C 347.5,323.667 343.5,323.667 339.5,323C 337.671,322.727 336.171,321.893 335,320.5C 334.248,317.106 334.415,313.773 335.5,310.5C 336.167,310.167 336.833,309.833 337.5,309.5C 340.664,311.194 343.998,311.694 347.5,311C 351.436,307.492 351.436,304.159 347.5,301C 343.911,300.793 340.411,300.293 337,299.5C 336.196,290.422 336.363,281.422 337.5,272.5 Z"/></g>
<g><path style="opacity:1" fill="#371e0f" d="M 304.5,254.5 C 305.097,254.735 305.43,255.235 305.5,256C 303.73,263.02 301.563,269.854 299,276.5C 299.883,268.97 301.716,261.636 304.5,254.5 Z"/></g>
<g><path style="opacity:0.951" fill="#baf9f4" d="M 425.5,281.5 C 426.818,286.923 427.818,292.423 428.5,298C 428.533,306.295 424.533,309.295 416.5,307C 415.667,306.167 414.833,305.333 414,304.5C 412.966,297.561 413.799,290.895 416.5,284.5C 417.901,281.366 419.568,278.366 421.5,275.5C 422.66,277.711 423.993,279.711 425.5,281.5 Z"/></g>
<g><path style="opacity:1" fill="#442e7d" d="M 164.5,270.5 C 164.833,270.5 165.167,270.5 165.5,270.5C 165.5,275.833 165.5,281.167 165.5,286.5C 158.833,286.5 152.167,286.5 145.5,286.5C 151.645,285.51 157.978,285.177 164.5,285.5C 164.5,280.5 164.5,275.5 164.5,270.5 Z"/></g>
<g><path style="opacity:1" fill="#422d7b" d="M 166.5,285.5 C 173.863,285.169 181.197,285.503 188.5,286.5C 188.376,287.107 188.043,287.44 187.5,287.5C 180.5,286.833 173.5,286.167 166.5,285.5 Z"/></g>
<g><path style="opacity:1" fill="#b6f1f5" d="M 198.5,311.5 C 203.99,320.463 205.823,330.129 204,340.5C 196.325,345.892 191.825,343.892 190.5,334.5C 191.978,326.397 194.645,318.73 198.5,311.5 Z"/></g>
<g><path style="opacity:0.99" fill="#7386fc" d="M 442.5,336.5 C 443.49,362.092 443.824,387.759 443.5,413.5C 410.662,413.832 377.996,413.498 345.5,412.5C 348.829,405.356 354.495,401.523 362.5,401C 354.666,388.147 355.999,376.48 366.5,366C 373.762,363.094 380.762,359.927 387.5,356.5C 392.07,355.559 396.737,355.226 401.5,355.5C 401.5,350.833 401.5,346.167 401.5,341.5C 414.305,333.425 427.971,331.758 442.5,336.5 Z"/></g>
<g><path style="opacity:0.963" fill="#baf7f2" d="M 342.5,356.5 C 343.54,360.78 343.706,365.113 343,369.5C 338.861,375.796 334.195,376.129 329,370.5C 328.352,365.796 328.519,361.129 329.5,356.5C 331.507,351.35 334.007,346.35 337,341.5C 339.337,346.348 341.17,351.348 342.5,356.5 Z"/></g>
<g><path style="opacity:0.976" fill="#7386fd" d="M 451.5,342.5 C 458.294,350.889 461.294,360.555 460.5,371.5C 472.612,367.677 480.445,371.677 484,383.5C 484.492,388.551 484.492,393.551 484,398.5C 489.766,401.428 492.933,406.095 493.5,412.5C 479.343,413.496 465.01,413.829 450.5,413.5C 450.169,389.661 450.502,365.994 451.5,342.5 Z"/></g>
<g><path style="opacity:0.956" fill="#b8faf6" d="M 124.5,399.5 C 130.85,409.725 132.683,420.725 130,432.5C 126.817,434.523 123.317,435.023 119.5,434C 116.987,431.604 115.987,428.604 116.5,425C 117.059,415.824 119.726,407.324 124.5,399.5 Z"/></g>
<g><path style="opacity:0.988" fill="#b1a21c" d="M 345.5,412.5 C 377.996,413.498 410.662,413.832 443.5,413.5C 443.831,438.339 443.498,463.006 442.5,487.5C 418.5,487.5 394.5,487.5 370.5,487.5C 369,477.392 363.333,470.559 353.5,467C 346.571,464.738 339.571,462.904 332.5,461.5C 330.35,458.528 329.35,455.195 329.5,451.5C 329.5,450.833 329.5,450.167 329.5,449.5C 331.578,443.257 335.578,438.757 341.5,436C 339.896,428.478 338.229,420.978 336.5,413.5C 339.428,412.516 342.428,412.183 345.5,412.5 Z M 342.5,449.5 C 341.167,449.5 339.833,449.5 338.5,449.5C 340.074,445.874 341.407,445.874 342.5,449.5 Z M 336.5,451.5 C 338.5,451.5 340.5,451.5 342.5,451.5C 343.092,454.127 343.425,456.794 343.5,459.5C 338.858,458.897 336.525,456.231 336.5,451.5 Z"/></g>
<g><path style="opacity:0.98" fill="#b2a31c" d="M 493.5,412.5 C 497.167,412.5 500.833,412.5 504.5,412.5C 503.438,420.373 502.105,428.206 500.5,436C 502.627,437.902 504.96,439.569 507.5,441C 508.977,442.812 510.31,444.645 511.5,446.5C 511.5,450.167 511.5,453.833 511.5,457.5C 508.197,463.83 502.864,467.164 495.5,467.5C 494.059,473.812 492.726,480.145 491.5,486.5C 478.183,487.499 464.85,487.833 451.5,487.5C 450.502,463.006 450.169,438.339 450.5,413.5C 465.01,413.829 479.343,413.496 493.5,412.5 Z M 500.5,446.5 C 505.182,448.248 506.682,451.581 505,456.5C 503.266,458.451 501.099,459.451 498.5,459.5C 499.275,455.186 499.941,450.853 500.5,446.5 Z"/></g>
<g><path style="opacity:1" fill="#1e1b07" d="M 381.5,432.5 C 383.308,433.918 383.975,435.918 383.5,438.5C 391.5,439.167 391.5,439.833 383.5,440.5C 383.5,443.167 383.5,445.833 383.5,448.5C 392.833,448.833 392.833,449.167 383.5,449.5C 383.663,451.857 383.497,454.19 383,456.5C 382.505,454.527 382.338,452.527 382.5,450.5C 379.833,450.5 377.167,450.5 374.5,450.5C 373.833,458.5 373.167,458.5 372.5,450.5C 364.5,450.167 364.5,449.833 372.5,449.5C 372.5,446.833 372.5,444.167 372.5,441.5C 363.167,440.833 363.167,440.167 372.5,439.5C 372.833,431.5 373.167,431.5 373.5,439.5C 376.167,439.5 378.833,439.5 381.5,439.5C 381.5,437.167 381.5,434.833 381.5,432.5 Z"/></g>
<g><path style="opacity:1" fill="#a3961a" d="M 373.5,440.5 C 376.167,440.5 378.833,440.5 381.5,440.5C 381.5,443.167 381.5,445.833 381.5,448.5C 378.833,448.5 376.167,448.5 373.5,448.5C 373.5,445.833 373.5,443.167 373.5,440.5 Z"/></g>
<g><path style="opacity:1" fill="#b8f2ec" d="M 200.5,460.5 C 202.272,465.393 201.605,469.893 198.5,474C 195.007,475.004 191.841,474.504 189,472.5C 188.501,468.179 188.334,463.846 188.5,459.5C 190.344,454.804 192.511,450.137 195,445.5C 197.954,450.077 199.787,455.077 200.5,460.5 Z"/></g>
<g><path style="opacity:0.745" fill="#020200" d="M 338.5,449.5 C 339.833,449.5 341.167,449.5 342.5,449.5C 342.5,450.167 342.5,450.833 342.5,451.5C 340.5,451.5 338.5,451.5 336.5,451.5C 336.5,450.167 337.167,449.5 338.5,449.5 Z"/></g>
<g><path style="opacity:0.992" fill="#d97330" d="M 320.5,459.5 C 320.5,459.833 320.5,460.167 320.5,460.5C 316.86,462.32 313.193,464.153 309.5,466C 313.6,465.619 317.266,464.119 320.5,461.5C 324.5,461.5 328.5,461.5 332.5,461.5C 339.571,462.904 346.571,464.738 353.5,467C 363.333,470.559 369,477.392 370.5,487.5C 335.849,489.493 300.849,490.16 265.5,489.5C 265.5,480.5 265.5,471.5 265.5,462.5C 283.635,460.659 301.968,459.659 320.5,459.5 Z"/></g>
<g><path style="opacity:0.981" fill="#d97331" d="M 188.5,459.5 C 188.334,463.846 188.501,468.179 189,472.5C 191.841,474.504 195.007,475.004 198.5,474C 201.605,469.893 202.272,465.393 200.5,460.5C 214.163,461.237 227.829,461.903 241.5,462.5C 241.5,471.5 241.5,480.5 241.5,489.5C 206.5,489.5 171.5,489.5 136.5,489.5C 136.103,480.46 139.769,473.627 147.5,469C 159.479,463.169 172.146,460.669 185.5,461.5C 186.222,460.449 187.222,459.782 188.5,459.5 Z"/></g>
<g><path style="opacity:1" fill="#241409" d="M 320.5,460.5 C 320.5,460.833 320.5,461.167 320.5,461.5C 317.266,464.119 313.6,465.619 309.5,466C 313.193,464.153 316.86,462.32 320.5,460.5 Z"/></g>
</svg>
