<?xml version="1.0" encoding="UTF-8"?>
<!DOCTYPE svg PUBLIC "-//W3C//DTD SVG 1.1//EN" "http://www.w3.org/Graphics/SVG/1.1/DTD/svg11.dtd">
<svg xmlns="http://www.w3.org/2000/svg" version="1.1" width="512px" height="512px" style="shape-rendering:geometricPrecision; text-rendering:geometricPrecision; image-rendering:optimizeQuality; fill-rule:evenodd; clip-rule:evenodd" xmlns:xlink="http://www.w3.org/1999/xlink">
<g><path style="opacity:0.993" fill="#b2a31d" d="M 18.5,-0.5 C 96.5,-0.5 174.5,-0.5 252.5,-0.5C 252.5,10.8333 252.5,22.1667 252.5,33.5C 248.174,36.8229 243.174,38.1562 237.5,37.5C 233.958,37.8128 230.625,37.4794 227.5,36.5C 227.5,33.8333 227.5,31.1667 227.5,28.5C 167.002,27.5009 106.336,27.1676 45.5,27.5C 45.5,71.8333 45.5,116.167 45.5,160.5C 32.7619,176.055 29.9286,193.389 37,212.5C 39.3463,217.204 42.1796,221.537 45.5,225.5C 45.1675,295.002 45.5008,364.335 46.5,433.5C 87.1667,433.5 127.833,433.5 168.5,433.5C 168.093,440.67 167.426,447.67 166.5,454.5C 110.833,454.5 55.1667,454.5 -0.5,454.5C -0.5,447.167 -0.5,439.833 -0.5,432.5C 5.83333,432.5 12.1667,432.5 18.5,432.5C 18.5,288.167 18.5,143.833 18.5,-0.5 Z"/></g>
<g><path style="opacity:0.984" fill="#b3a41e" d="M 396.5,-0.5 C 405.5,-0.5 414.5,-0.5 423.5,-0.5C 462.902,8.87473 484.735,33.8747 489,74.5C 489.5,131.832 489.667,189.166 489.5,246.5C 496.833,246.5 504.167,246.5 511.5,246.5C 511.5,252.167 511.5,257.833 511.5,263.5C 492.5,263.5 473.5,263.5 454.5,263.5C 450.548,258.881 446.215,254.548 441.5,250.5C 442.973,246.749 444.64,243.083 446.5,239.5C 455.349,239.826 464.016,239.493 472.5,238.5C 474.512,235.648 476.179,232.481 477.5,229C 476.027,226.767 474.027,225.267 471.5,224.5C 472.498,195.005 472.831,165.338 472.5,135.5C 453.167,135.5 433.833,135.5 414.5,135.5C 414.5,170.167 414.5,204.833 414.5,239.5C 409.5,239.5 404.5,239.5 399.5,239.5C 401.483,205.055 402.149,170.389 401.5,135.5C 388.754,135.187 376.087,135.52 363.5,136.5C 357.021,135.509 350.354,135.176 343.5,135.5C 342.676,139.312 342.176,143.312 342,147.5C 338.302,140.592 333.136,135.092 326.5,131C 325.748,130.329 325.414,129.496 325.5,128.5C 325.5,112.167 325.5,95.8333 325.5,79.5C 328.181,75.4722 330.347,71.1389 332,66.5C 332.564,61.8065 332.397,57.1398 331.5,52.5C 343.723,23.2254 365.389,5.55876 396.5,-0.5 Z"/></g>
<g><path style="opacity:0.647" fill="#0c0c11" d="M 331.5,52.5 C 332.397,57.1398 332.564,61.8065 332,66.5C 330.347,71.1389 328.181,75.4722 325.5,79.5C 321.475,84.846 316.141,88.1793 309.5,89.5C 315.644,85.8769 321.144,81.2102 326,75.5C 332.787,65.1567 331.954,55.6567 323.5,47C 319.738,44.8438 315.738,44.1771 311.5,45C 305.498,49.3342 298.831,51.0009 291.5,50C 291.043,49.586 290.709,49.086 290.5,48.5C 293.348,45.9068 296.681,44.0735 300.5,43C 311.253,45.5496 317.92,41.5496 320.5,31C 319.488,24.6549 315.822,20.9882 309.5,20C 298.793,19.8403 288.46,21.8403 278.5,26C 268.278,30.2774 257.944,34.2774 247.5,38C 243.973,38.8075 240.64,38.6408 237.5,37.5C 243.174,38.1562 248.174,36.8229 252.5,33.5C 264.135,29.354 275.802,25.1873 287.5,21C 294.988,18.434 302.655,17.434 310.5,18C 320.375,20.5848 323.875,26.7515 321,36.5C 319.859,38.6089 318.359,40.4422 316.5,42C 323.045,43.3912 328.045,46.8912 331.5,52.5 Z"/></g>
<g><path style="opacity:1" fill="#7d57e6" d="M 400.5,98.5 C 394.544,106.458 388.211,114.125 381.5,121.5C 368.913,122.48 356.246,122.813 343.5,122.5C 343.333,108.163 343.5,93.8295 344,79.5C 348.031,51.8207 362.865,32.654 388.5,22C 392.688,20.3693 397.021,19.5359 401.5,19.5C 401.824,45.9076 401.49,72.2409 400.5,98.5 Z"/></g>
<g><path style="opacity:1" fill="#9a7f7e" d="M 418.5,19.5 C 417.167,19.5 415.833,19.5 414.5,19.5C 414.17,38.3408 414.503,57.0075 415.5,75.5C 415.167,76.1667 414.833,76.8333 414.5,77.5C 413.503,58.0071 413.17,38.3404 413.5,18.5C 415.415,18.2155 417.081,18.5489 418.5,19.5 Z"/></g>
<g><path style="opacity:1" fill="#7e58e6" d="M 418.5,19.5 C 425.978,20.4515 432.978,22.7848 439.5,26.5C 432.3,43.2327 424.3,59.5661 415.5,75.5C 414.503,57.0075 414.17,38.3408 414.5,19.5C 415.833,19.5 417.167,19.5 418.5,19.5 Z"/></g>
<g><path style="opacity:1" fill="#7486fe" d="M 309.5,89.5 C 308.29,89.9321 307.29,90.5987 306.5,91.5C 286.983,99.283 266.983,105.783 246.5,111C 212.966,118.436 179.966,116.769 147.5,106C 144.473,104.487 141.473,102.987 138.5,101.5C 136.706,99.2034 134.706,97.0367 132.5,95C 131.668,94.3123 131.002,94.479 130.5,95.5C 133.158,97.8311 135.824,100.164 138.5,102.5C 140.547,140.313 131.881,175.646 112.5,208.5C 111.635,209.583 110.635,209.749 109.5,209C 98.7124,195.926 91.2124,181.092 87,164.5C 85.2495,158.584 83.9162,152.584 83,146.5C 80.2809,145.556 77.4475,145.223 74.5,145.5C 77.1667,144.833 79.8333,144.167 82.5,143.5C 75.8575,106.667 87.5242,77.5002 117.5,56C 120.553,54.4734 123.553,52.9734 126.5,51.5C 127.167,51.5 127.5,51.1667 127.5,50.5C 145.702,42.7971 164.702,38.2971 184.5,37C 198.829,36.5001 213.163,36.3334 227.5,36.5C 230.625,37.4794 233.958,37.8128 237.5,37.5C 240.64,38.6408 243.973,38.8075 247.5,38C 257.944,34.2774 268.278,30.2774 278.5,26C 288.46,21.8403 298.793,19.8403 309.5,20C 315.822,20.9882 319.488,24.6549 320.5,31C 317.92,41.5496 311.253,45.5496 300.5,43C 296.681,44.0735 293.348,45.9068 290.5,48.5C 290.709,49.086 291.043,49.586 291.5,50C 298.831,51.0009 305.498,49.3342 311.5,45C 315.738,44.1771 319.738,44.8438 323.5,47C 331.954,55.6567 332.787,65.1567 326,75.5C 321.144,81.2102 315.644,85.8769 309.5,89.5 Z"/></g>
<g><path style="opacity:1" fill="#f9de22" d="M 439.5,26.5 C 459.299,39.7406 470.132,58.4073 472,82.5C 472.5,95.8292 472.667,109.163 472.5,122.5C 453.167,122.5 433.833,122.5 414.5,122.5C 414.5,107.5 414.5,92.5 414.5,77.5C 414.833,76.8333 415.167,76.1667 415.5,75.5C 424.3,59.5661 432.3,43.2327 439.5,26.5 Z"/></g>
<g><path style="opacity:1" fill="#8765c3" d="M 227.5,28.5 C 167.167,28.5 106.833,28.5 46.5,28.5C 46.168,72.0032 46.5013,115.337 47.5,158.5C 47.1667,159.5 46.5,160.167 45.5,160.5C 45.5,116.167 45.5,71.8333 45.5,27.5C 106.336,27.1676 167.002,27.5009 227.5,28.5 Z"/></g>
<g><path style="opacity:1" fill="#7d57e8" d="M 227.5,28.5 C 227.5,31.1667 227.5,33.8333 227.5,36.5C 213.163,36.3334 198.829,36.5001 184.5,37C 164.702,38.2971 145.702,42.7971 127.5,50.5C 107.674,49.5029 87.6736,49.1695 67.5,49.5C 67.1685,81.0044 67.5018,112.338 68.5,143.5C 73.1667,143.5 77.8333,143.5 82.5,143.5C 79.8333,144.167 77.1667,144.833 74.5,145.5C 64.0443,146.895 55.0443,151.228 47.5,158.5C 46.5013,115.337 46.168,72.0032 46.5,28.5C 106.833,28.5 167.167,28.5 227.5,28.5 Z"/></g>
<g><path style="opacity:1" fill="#6677e1" d="M 303.5,43.5 C 305.527,43.3379 307.527,43.5045 309.5,44C 304.495,48.2838 298.828,49.7838 292.5,48.5C 295.994,46.2342 299.66,44.5675 303.5,43.5 Z"/></g>
<g><path style="opacity:1" fill="#9aa7ef" d="M 127.5,50.5 C 127.5,51.1667 127.167,51.5 126.5,51.5C 107.341,50.503 88.0072,50.1697 68.5,50.5C 68.5,81.5 68.5,112.5 68.5,143.5C 67.5018,112.338 67.1685,81.0044 67.5,49.5C 87.6736,49.1695 107.674,49.5029 127.5,50.5 Z"/></g>
<g><path style="opacity:1" fill="#b8f8f6" d="M 126.5,51.5 C 123.553,52.9734 120.553,54.4734 117.5,56C 87.5242,77.5002 75.8575,106.667 82.5,143.5C 77.8333,143.5 73.1667,143.5 68.5,143.5C 68.5,112.5 68.5,81.5 68.5,50.5C 88.0072,50.1697 107.341,50.503 126.5,51.5 Z"/></g>
<g><path style="opacity:0.999" fill="#f2bcb6" d="M 306.5,91.5 C 313.685,102.543 318.685,114.543 321.5,127.5C 318.228,126.242 314.894,125.075 311.5,124C 309.613,123.22 307.946,123.387 306.5,124.5C 302.5,124.5 298.5,124.5 294.5,124.5C 297.641,123.679 300.975,123.179 304.5,123C 278.139,121.69 260.639,133.524 252,158.5C 250.356,164.277 250.189,169.943 251.5,175.5C 252.667,190.641 259.334,202.641 271.5,211.5C 272.677,227.226 281.01,237.726 296.5,243C 299.598,243.918 302.765,244.418 306,244.5C 311.58,243.896 317.08,242.896 322.5,241.5C 321.559,243.05 320.893,244.716 320.5,246.5C 314.51,252.486 308.177,258.153 301.5,263.5C 295.987,266.757 290.32,269.757 284.5,272.5C 285.931,275.039 287.597,277.372 289.5,279.5C 273.701,273.899 258.034,267.899 242.5,261.5C 239.289,268.485 236.289,275.485 233.5,282.5C 207.32,283.998 181.654,280.998 156.5,273.5C 145.707,268.933 136.04,262.6 127.5,254.5C 121.509,247.185 116.009,239.518 111,231.5C 97.9931,240.134 83.8265,242.801 68.5,239.5C 60.507,237.16 53.507,233.16 47.5,227.5C 47.1667,226.5 46.5,225.833 45.5,225.5C 42.1796,221.537 39.3463,217.204 37,212.5C 29.9286,193.389 32.7619,176.055 45.5,160.5C 46.5,160.167 47.1667,159.5 47.5,158.5C 55.0443,151.228 64.0443,146.895 74.5,145.5C 77.4475,145.223 80.2809,145.556 83,146.5C 83.9162,152.584 85.2495,158.584 87,164.5C 91.2124,181.092 98.7124,195.926 109.5,209C 110.635,209.749 111.635,209.583 112.5,208.5C 131.881,175.646 140.547,140.313 138.5,102.5C 138.5,102.167 138.5,101.833 138.5,101.5C 141.473,102.987 144.473,104.487 147.5,106C 179.966,116.769 212.966,118.436 246.5,111C 266.983,105.783 286.983,99.283 306.5,91.5 Z"/></g>
<g><path style="opacity:1" fill="#181a2d" d="M 138.5,101.5 C 138.5,101.833 138.5,102.167 138.5,102.5C 135.824,100.164 133.158,97.8311 130.5,95.5C 131.002,94.479 131.668,94.3123 132.5,95C 134.706,97.0367 136.706,99.2034 138.5,101.5 Z"/></g>
<g><path style="opacity:1" fill="#f6da28" d="M 400.5,98.5 C 401.492,106.316 401.826,114.316 401.5,122.5C 394.646,122.824 387.979,122.491 381.5,121.5C 388.211,114.125 394.544,106.458 400.5,98.5 Z"/></g>
<g><path style="opacity:1" fill="#23201f" d="M 294.5,124.5 C 274.027,126.795 260.527,137.795 254,157.5C 252.406,163.399 251.572,169.399 251.5,175.5C 250.189,169.943 250.356,164.277 252,158.5C 260.639,133.524 278.139,121.69 304.5,123C 300.975,123.179 297.641,123.679 294.5,124.5 Z"/></g>
<g><path style="opacity:1" fill="#fdfdfd" d="M 294.5,124.5 C 298.5,124.5 302.5,124.5 306.5,124.5C 314.199,125.352 320.866,128.352 326.5,133.5C 309.822,160.195 293.156,186.861 276.5,213.5C 274.716,213.107 273.05,212.441 271.5,211.5C 259.334,202.641 252.667,190.641 251.5,175.5C 251.572,169.399 252.406,163.399 254,157.5C 260.527,137.795 274.027,126.795 294.5,124.5 Z"/></g>
<g><path style="opacity:1" fill="#070505" d="M 306.5,124.5 C 307.946,123.387 309.613,123.22 311.5,124C 314.894,125.075 318.228,126.242 321.5,127.5C 322.833,127.833 324.167,128.167 325.5,128.5C 325.414,129.496 325.748,130.329 326.5,131C 333.136,135.092 338.302,140.592 342,147.5C 342.176,143.312 342.676,139.312 343.5,135.5C 343.334,140.844 343.501,146.177 344,151.5C 349.646,164.089 349.646,176.756 344,189.5C 343.5,206.163 343.333,222.83 343.5,239.5C 342.669,224.672 342.169,209.672 342,194.5C 340.004,197.986 337.837,201.319 335.5,204.5C 319.173,219.749 300.507,223.582 279.5,216C 278.058,215.623 277.058,214.79 276.5,213.5C 293.156,186.861 309.822,160.195 326.5,133.5C 320.866,128.352 314.199,125.352 306.5,124.5 Z"/></g>
<g><path style="opacity:1" fill="#f9de22" d="M 399.5,239.5 C 397.833,239.5 396.167,239.5 394.5,239.5C 384.833,239.5 375.167,239.5 365.5,239.5C 367.439,211.63 363.605,184.63 354,158.5C 351.611,153.446 348.445,148.946 344.5,145C 351.026,142.656 357.359,139.822 363.5,136.5C 376.087,135.52 388.754,135.187 401.5,135.5C 402.149,170.389 401.483,205.055 399.5,239.5 Z"/></g>
<g><path style="opacity:1" fill="#f9de22" d="M 471.5,224.5 C 462.823,221.16 454.156,217.827 445.5,214.5C 444.594,218.149 443.26,221.649 441.5,225C 442.357,225.689 443.023,226.522 443.5,227.5C 441.818,231.526 440.152,235.526 438.5,239.5C 430.833,239.5 423.167,239.5 415.5,239.5C 415.167,239.5 414.833,239.5 414.5,239.5C 414.5,204.833 414.5,170.167 414.5,135.5C 433.833,135.5 453.167,135.5 472.5,135.5C 472.831,165.338 472.498,195.005 471.5,224.5 Z"/></g>
<g><path style="opacity:1" fill="#fdfdfd" d="M 153.5,223.5 C 147.572,220.574 142.906,216.241 139.5,210.5C 135.622,205.873 133.288,200.54 132.5,194.5C 128.46,169.079 137.793,150.579 160.5,139C 177.717,133.178 193.717,135.511 208.5,146C 190.513,172.164 172.18,197.997 153.5,223.5 Z"/></g>
<g><path style="opacity:1" fill="#050404" d="M 210.5,220.5 C 196.058,231.733 180.058,234.566 162.5,229C 159.102,227.643 156.102,225.81 153.5,223.5C 172.18,197.997 190.513,172.164 208.5,146C 193.717,135.511 177.717,133.178 160.5,139C 137.793,150.579 128.46,169.079 132.5,194.5C 126.987,168.026 136.654,148.859 161.5,137C 193.878,129.603 215.711,141.436 227,172.5C 229.15,191.276 223.65,207.276 210.5,220.5 Z"/></g>
<g><path style="opacity:1" fill="#7f58e4" d="M 343.5,135.5 C 350.354,135.176 357.021,135.509 363.5,136.5C 357.359,139.822 351.026,142.656 344.5,145C 348.445,148.946 351.611,153.446 354,158.5C 363.605,184.63 367.439,211.63 365.5,239.5C 358.167,239.5 350.833,239.5 343.5,239.5C 343.333,222.83 343.5,206.163 344,189.5C 349.646,176.756 349.646,164.089 344,151.5C 343.501,146.177 343.334,140.844 343.5,135.5 Z"/></g>
<g><path style="opacity:1" fill="#2a2221" d="M 55.5,186.5 C 69.0362,189.902 82.3696,193.902 95.5,198.5C 95.1667,198.833 94.8333,199.167 94.5,199.5C 82.594,195.698 70.594,192.198 58.5,189C 56.8807,188.764 55.8807,187.931 55.5,186.5 Z"/></g>
<g><path style="opacity:0.979" fill="#b3a31e" d="M 343.5,239.5 C 350.833,239.5 358.167,239.5 365.5,239.5C 375.167,239.5 384.833,239.5 394.5,239.5C 380.05,243.972 368.05,251.972 358.5,263.5C 339.5,263.5 320.5,263.5 301.5,263.5C 308.177,258.153 314.51,252.486 320.5,246.5C 322.167,246.5 323.833,246.5 325.5,246.5C 325.5,243.833 325.5,241.167 325.5,238.5C 329.469,231.558 332.635,224.224 335,216.5C 335.499,212.514 335.666,208.514 335.5,204.5C 337.837,201.319 340.004,197.986 342,194.5C 342.169,209.672 342.669,224.672 343.5,239.5 Z"/></g>
<g><path style="opacity:0.998" fill="#ef5093" d="M 335.5,204.5 C 335.666,208.514 335.499,212.514 335,216.5C 332.635,224.224 329.469,231.558 325.5,238.5C 324.272,239.306 323.272,240.306 322.5,241.5C 317.08,242.896 311.58,243.896 306,244.5C 302.765,244.418 299.598,243.918 296.5,243C 281.01,237.726 272.677,227.226 271.5,211.5C 273.05,212.441 274.716,213.107 276.5,213.5C 277.058,214.79 278.058,215.623 279.5,216C 300.507,223.582 319.173,219.749 335.5,204.5 Z"/></g>
<g><path style="opacity:1" fill="#f05194" d="M 139.5,210.5 C 142.906,216.241 147.572,220.574 153.5,223.5C 156.102,225.81 159.102,227.643 162.5,229C 180.058,234.566 196.058,231.733 210.5,220.5C 208.777,248.056 194.111,261.556 166.5,261C 143.825,254.835 133.659,240.002 136,216.5C 136.353,213.848 137.52,211.848 139.5,210.5 Z"/></g>
<g><path style="opacity:1" fill="#fefdfa" d="M 471.5,224.5 C 474.027,225.267 476.027,226.767 477.5,229C 476.179,232.481 474.512,235.648 472.5,238.5C 465.287,235.644 458.12,232.644 451,229.5C 449.017,232.614 447.517,235.947 446.5,239.5C 444.64,243.083 442.973,246.749 441.5,250.5C 439.463,249.154 437.463,247.82 435.5,246.5C 436.695,244.249 437.695,241.915 438.5,239.5C 440.152,235.526 441.818,231.526 443.5,227.5C 443.023,226.522 442.357,225.689 441.5,225C 443.26,221.649 444.594,218.149 445.5,214.5C 454.156,217.827 462.823,221.16 471.5,224.5 Z"/></g>
<g><path style="opacity:1" fill="#332827" d="M 109.5,217.5 C 110.8,219.223 111.467,221.39 111.5,224C 111.167,226.167 110.833,228.333 110.5,230.5C 109.508,226.217 109.174,221.884 109.5,217.5 Z"/></g>
<g><path style="opacity:1" fill="#8867be" d="M 45.5,225.5 C 46.5,225.833 47.1667,226.5 47.5,227.5C 46.5008,295.998 46.1675,364.665 46.5,433.5C 45.5008,364.335 45.1675,295.002 45.5,225.5 Z"/></g>
<g><path style="opacity:1" fill="#7d57e7" d="M 47.5,227.5 C 53.507,233.16 60.507,237.16 68.5,239.5C 68.5,244.833 68.5,250.167 68.5,255.5C 88.3404,255.83 108.007,255.497 127.5,254.5C 136.04,262.6 145.707,268.933 156.5,273.5C 148.193,286.816 139.86,300.149 131.5,313.5C 135.198,315.953 139.198,317.62 143.5,318.5C 138.879,329.331 137.379,340.665 139,352.5C 144.336,368.433 155.502,375.767 172.5,374.5C 171.403,394.184 170.07,413.851 168.5,433.5C 127.833,433.5 87.1667,433.5 46.5,433.5C 46.1675,364.665 46.5008,295.998 47.5,227.5 Z"/></g>
<g><path style="opacity:1" fill="#201a19" d="M 222.5,216.5 C 226.277,220.382 228.777,225.049 230,230.5C 238.403,238.84 247.57,239.674 257.5,233C 261.317,229.201 263.984,224.701 265.5,219.5C 264.734,228.765 259.734,234.931 250.5,238C 241.961,240.2 234.795,238.033 229,231.5C 229.024,236.783 227.357,241.45 224,245.5C 225.782,240.949 226.949,236.116 227.5,231C 227.238,228.453 226.738,225.953 226,223.5C 224.295,221.423 223.128,219.09 222.5,216.5 Z"/></g>
<g><path style="opacity:1" fill="#f9df2d" d="M 472.5,238.5 C 464.016,239.493 455.349,239.826 446.5,239.5C 447.517,235.947 449.017,232.614 451,229.5C 458.12,232.644 465.287,235.644 472.5,238.5 Z"/></g>
<g><path style="opacity:1" fill="#b9f9f5" d="M 127.5,254.5 C 108.007,255.497 88.3404,255.83 68.5,255.5C 68.5,250.167 68.5,244.833 68.5,239.5C 83.8265,242.801 97.9931,240.134 111,231.5C 116.009,239.518 121.509,247.185 127.5,254.5 Z"/></g>
<g><path style="opacity:0.989" fill="#ed4f91" d="M 394.5,239.5 C 396.167,239.5 397.833,239.5 399.5,239.5C 404.5,239.5 409.5,239.5 414.5,239.5C 414.833,239.5 415.167,239.5 415.5,239.5C 422.226,241.41 428.892,243.743 435.5,246.5C 437.463,247.82 439.463,249.154 441.5,250.5C 446.215,254.548 450.548,258.881 454.5,263.5C 458.093,270.779 460.593,278.445 462,286.5C 463.301,306.811 463.801,327.144 463.5,347.5C 447.167,347.5 430.833,347.5 414.5,347.5C 414.5,343.833 414.5,340.167 414.5,336.5C 426.5,336.5 438.5,336.5 450.5,336.5C 450.5,330.167 450.5,323.833 450.5,317.5C 450.768,315.901 450.434,314.568 449.5,313.5C 454.06,292.191 448.393,274.357 432.5,260C 416.333,250.482 399.999,250.148 383.5,259C 367.881,271.33 361.548,287.496 364.5,307.5C 358.753,310.912 354.419,315.578 351.5,321.5C 351.333,309.162 351.5,296.829 352,284.5C 352.867,277.067 355.034,270.067 358.5,263.5C 368.05,251.972 380.05,243.972 394.5,239.5 Z"/></g>
<g><path style="opacity:1" fill="#b7a129" d="M 415.5,239.5 C 423.167,239.5 430.833,239.5 438.5,239.5C 437.695,241.915 436.695,244.249 435.5,246.5C 428.892,243.743 422.226,241.41 415.5,239.5 Z"/></g>
<g><path style="opacity:1" fill="#040102" d="M 449.5,313.5 C 449.737,314.791 449.404,315.791 448.5,316.5C 445.441,297.935 434.774,286.102 416.5,281C 395.021,277.739 379.354,285.572 369.5,304.5C 367.999,305.752 366.332,306.752 364.5,307.5C 361.548,287.496 367.881,271.33 383.5,259C 399.999,250.148 416.333,250.482 432.5,260C 448.393,274.357 454.06,292.191 449.5,313.5 Z"/></g>
<g><path style="opacity:0.992" fill="#f9de28" d="M 289.5,279.5 C 300.402,283.286 311.069,287.619 321.5,292.5C 318.097,300.38 315.097,308.38 312.5,316.5C 307.882,325 304.215,334 301.5,343.5C 295.833,358.167 290.167,372.833 284.5,387.5C 282.024,392.926 279.358,398.259 276.5,403.5C 251.143,393.827 225.81,384.16 200.5,374.5C 199.766,373.292 199.433,371.959 199.5,370.5C 201.857,370.337 204.19,370.503 206.5,371C 208.601,373.77 211.268,375.77 214.5,377C 220.296,377.791 225.963,377.291 231.5,375.5C 249.441,377.438 267.441,378.438 285.5,378.5C 285.776,364.146 286.442,349.813 287.5,335.5C 289.124,335.64 290.29,334.973 291,333.5C 295.349,322.499 299.349,311.499 303,300.5C 285.35,293.505 267.684,286.505 250,279.5C 244.303,291.079 239.469,303.079 235.5,315.5C 239.537,316.065 243.203,317.399 246.5,319.5C 237.662,319.123 228.995,318.457 220.5,317.5C 225.03,305.911 229.363,294.244 233.5,282.5C 236.289,275.485 239.289,268.485 242.5,261.5C 258.034,267.899 273.701,273.899 289.5,279.5 Z"/></g>
<g><path style="opacity:1" fill="#fefdfe" d="M 156.5,273.5 C 181.654,280.998 207.32,283.998 233.5,282.5C 229.363,294.244 225.03,305.911 220.5,317.5C 217.833,317.5 215.167,317.5 212.5,317.5C 212.5,321.833 212.5,326.167 212.5,330.5C 206.41,331.081 202.577,334.414 201,340.5C 200.506,342.134 200.34,343.801 200.5,345.5C 191.155,346.74 181.822,348.073 172.5,349.5C 173.157,339.503 173.324,329.503 173,319.5C 171.748,321.001 170.748,322.668 170,324.5C 169.329,325.252 168.496,325.586 167.5,325.5C 159.69,322.877 151.69,320.543 143.5,318.5C 139.198,317.62 135.198,315.953 131.5,313.5C 139.86,300.149 148.193,286.816 156.5,273.5 Z"/></g>
<g><path style="opacity:1" fill="#fafbf9" d="M 287.5,335.5 C 288.43,331.6 288.763,327.6 288.5,323.5C 288.5,323.167 288.5,322.833 288.5,322.5C 274.666,321.273 260.666,320.273 246.5,319.5C 243.203,317.399 239.537,316.065 235.5,315.5C 239.469,303.079 244.303,291.079 250,279.5C 267.684,286.505 285.35,293.505 303,300.5C 299.349,311.499 295.349,322.499 291,333.5C 290.29,334.973 289.124,335.64 287.5,335.5 Z"/></g>
<g><path style="opacity:1" fill="#ef4f92" d="M 448.5,316.5 C 448.5,322.833 448.5,329.167 448.5,335.5C 437.167,335.5 425.833,335.5 414.5,335.5C 414.5,331.5 414.5,327.5 414.5,323.5C 409.833,323.5 405.167,323.5 400.5,323.5C 400.5,326.5 400.5,329.5 400.5,332.5C 399.038,331.542 397.705,330.376 396.5,329C 398.302,324.517 397.635,320.517 394.5,317C 393.167,316.667 391.833,316.333 390.5,316C 393.802,314.349 397.136,312.682 400.5,311C 402.16,309.512 403.16,307.679 403.5,305.5C 442.167,304.833 442.167,304.167 403.5,303.5C 400.753,300.056 397.086,298.722 392.5,299.5C 384.625,300.275 376.959,301.941 369.5,304.5C 379.354,285.572 395.021,277.739 416.5,281C 434.774,286.102 445.441,297.935 448.5,316.5 Z"/></g>
<g><path style="opacity:1" fill="#232323" d="M 249.5,292.5 C 249.56,291.957 249.893,291.624 250.5,291.5C 265.976,297.408 281.31,303.575 296.5,310C 280.657,304.883 264.991,299.049 249.5,292.5 Z"/></g>
<g><path style="opacity:1" fill="#2a2a2a" d="M 180.5,298.5 C 181.573,299.251 181.74,300.251 181,301.5C 178.853,306.95 176.52,312.284 174,317.5C 175.248,310.925 177.414,304.591 180.5,298.5 Z"/></g>
<g><path style="opacity:1" fill="#4f1d31" d="M 403.5,303.5 C 442.167,304.167 442.167,304.833 403.5,305.5C 403.5,304.833 403.5,304.167 403.5,303.5 Z"/></g>
<g><path style="opacity:0.985" fill="#f2bbb5" d="M 403.5,303.5 C 403.5,304.167 403.5,304.833 403.5,305.5C 403.16,307.679 402.16,309.512 400.5,311C 397.136,312.682 393.802,314.349 390.5,316C 391.833,316.333 393.167,316.667 394.5,317C 397.635,320.517 398.302,324.517 396.5,329C 397.705,330.376 399.038,331.542 400.5,332.5C 400.5,334.167 400.5,335.833 400.5,337.5C 398.271,341.075 395.605,344.408 392.5,347.5C 382.482,352.323 372.315,352.656 362,348.5C 346.264,352.96 330.43,353.46 314.5,350C 309.834,348.334 305.501,346.167 301.5,343.5C 304.215,334 307.882,325 312.5,316.5C 315.6,321.735 320.267,324.901 326.5,326C 334.881,326.411 343.215,325.911 351.5,324.5C 351.5,323.5 351.5,322.5 351.5,321.5C 354.419,315.578 358.753,310.912 364.5,307.5C 366.332,306.752 367.999,305.752 369.5,304.5C 376.959,301.941 384.625,300.275 392.5,299.5C 397.086,298.722 400.753,300.056 403.5,303.5 Z"/></g>
<g><path style="opacity:1" fill="#222222" d="M 246.5,302.5 C 247.251,301.427 248.251,301.26 249.5,302C 263.833,307.667 278.167,313.333 292.5,319C 276.994,314.218 261.661,308.718 246.5,302.5 Z"/></g>
<g><path style="opacity:1" fill="#f3bdb7" d="M 143.5,318.5 C 151.69,320.543 159.69,322.877 167.5,325.5C 164.437,331.846 162.937,338.513 163,345.5C 163.465,346.931 164.299,348.097 165.5,349C 167.81,349.497 170.143,349.663 172.5,349.5C 181.822,348.073 191.155,346.74 200.5,345.5C 200.34,343.801 200.506,342.134 201,340.5C 202.577,334.414 206.41,331.081 212.5,330.5C 216.705,331.718 220.705,331.384 224.5,329.5C 224.833,329.5 225.167,329.5 225.5,329.5C 232.941,328.953 236.941,332.287 237.5,339.5C 236.662,339.842 236.328,340.508 236.5,341.5C 235.624,341.369 234.957,341.702 234.5,342.5C 236.813,344.632 238.48,347.132 239.5,350C 239.084,352.92 238.084,355.586 236.5,358C 240.274,365.474 238.607,371.307 231.5,375.5C 225.963,377.291 220.296,377.791 214.5,377C 211.268,375.77 208.601,373.77 206.5,371C 204.19,370.503 201.857,370.337 199.5,370.5C 199.433,371.959 199.766,373.292 200.5,374.5C 191.167,374.5 181.833,374.5 172.5,374.5C 155.502,375.767 144.336,368.433 139,352.5C 137.379,340.665 138.879,329.331 143.5,318.5 Z"/></g>
<g><path style="opacity:1" fill="#815be7" d="M 172.5,349.5 C 170.143,349.663 167.81,349.497 165.5,349C 164.299,348.097 163.465,346.931 163,345.5C 162.937,338.513 164.437,331.846 167.5,325.5C 168.496,325.586 169.329,325.252 170,324.5C 170.748,322.668 171.748,321.001 173,319.5C 173.324,329.503 173.157,339.503 172.5,349.5 Z"/></g>
<g><path style="opacity:0.93" fill="#010000" d="M 450.5,317.5 C 450.5,323.833 450.5,330.167 450.5,336.5C 438.5,336.5 426.5,336.5 414.5,336.5C 414.5,340.167 414.5,343.833 414.5,347.5C 414.5,375.833 414.5,404.167 414.5,432.5C 414.5,439.833 414.5,447.167 414.5,454.5C 414.5,468.5 414.5,482.5 414.5,496.5C 419.167,496.5 423.833,496.5 428.5,496.5C 428.5,497.5 428.5,498.5 428.5,499.5C 414.5,499.5 400.5,499.5 386.5,499.5C 386.5,498.5 386.5,497.5 386.5,496.5C 390.833,496.5 395.167,496.5 399.5,496.5C 399.5,482.5 399.5,468.5 399.5,454.5C 400.811,447.265 400.811,439.932 399.5,432.5C 399.5,404.167 399.5,375.833 399.5,347.5C 400.414,344.272 400.747,340.939 400.5,337.5C 400.5,335.833 400.5,334.167 400.5,332.5C 400.5,329.5 400.5,326.5 400.5,323.5C 405.167,323.5 409.833,323.5 414.5,323.5C 414.5,327.5 414.5,331.5 414.5,335.5C 425.833,335.5 437.167,335.5 448.5,335.5C 449.167,329.5 449.833,323.5 450.5,317.5 Z"/></g>
<g><path style="opacity:1" fill="#6f2544" d="M 449.5,313.5 C 450.434,314.568 450.768,315.901 450.5,317.5C 449.833,323.5 449.167,329.5 448.5,335.5C 448.5,329.167 448.5,322.833 448.5,316.5C 449.404,315.791 449.737,314.791 449.5,313.5 Z"/></g>
<g><path style="opacity:1" fill="#344645" d="M 288.5,322.5 C 288.5,322.833 288.5,323.167 288.5,323.5C 286.52,324.716 284.52,325.549 282.5,326C 284.063,324.053 286.063,322.886 288.5,322.5 Z"/></g>
<g><path style="opacity:1" fill="#b8f7f2" d="M 220.5,317.5 C 228.995,318.457 237.662,319.123 246.5,319.5C 260.666,320.273 274.666,321.273 288.5,322.5C 286.063,322.886 284.063,324.053 282.5,326C 284.52,325.549 286.52,324.716 288.5,323.5C 288.763,327.6 288.43,331.6 287.5,335.5C 286.442,349.813 285.776,364.146 285.5,378.5C 267.441,378.438 249.441,377.438 231.5,375.5C 238.607,371.307 240.274,365.474 236.5,358C 238.084,355.586 239.084,352.92 239.5,350C 238.48,347.132 236.813,344.632 234.5,342.5C 234.957,341.702 235.624,341.369 236.5,341.5C 237.833,342.5 239.167,343.5 240.5,344.5C 241.329,350.528 244.162,355.528 249,359.5C 251.333,357.167 253.667,354.833 256,352.5C 257.202,350.323 257.702,347.989 257.5,345.5C 260.621,343.552 263.621,341.385 266.5,339C 262.956,339.779 259.956,341.613 257.5,344.5C 253.52,343.247 249.52,342.247 245.5,341.5C 243.927,341.752 242.594,342.418 241.5,343.5C 239.833,342.5 238.5,341.167 237.5,339.5C 236.941,332.287 232.941,328.953 225.5,329.5C 222.188,325.521 218.521,321.854 214.5,318.5C 216.82,322.517 220.153,326.183 224.5,329.5C 220.705,331.384 216.705,331.718 212.5,330.5C 212.5,326.167 212.5,321.833 212.5,317.5C 215.167,317.5 217.833,317.5 220.5,317.5 Z"/></g>
<g><path style="opacity:1" fill="#344645" d="M 225.5,329.5 C 225.167,329.5 224.833,329.5 224.5,329.5C 220.153,326.183 216.82,322.517 214.5,318.5C 218.521,321.854 222.188,325.521 225.5,329.5 Z"/></g>
<g><path style="opacity:1" fill="#251d1d" d="M 365.5,308.5 C 371.971,307.345 377.471,309.011 382,313.5C 382.333,315.167 382.667,316.833 383,318.5C 384.912,317.308 386.912,316.308 389,315.5C 389.688,316.332 389.521,316.998 388.5,317.5C 385.5,319 382.5,320.5 379.5,322C 375.959,324.282 375.626,326.949 378.5,330C 384.179,330.198 389.845,330.198 395.5,330C 392.382,331.059 389.382,332.392 386.5,334C 383.967,336.084 383.967,338.084 386.5,340C 389.2,340.253 391.867,340.253 394.5,340C 391.298,341.483 387.964,341.817 384.5,341C 381.984,338.146 382.317,335.479 385.5,333C 379.175,333.513 375.508,330.68 374.5,324.5C 372.044,327.458 369.378,330.291 366.5,333C 363.535,334.498 360.535,334.665 357.5,333.5C 364.432,333.368 369.432,330.202 372.5,324C 377.879,322.323 380.379,318.823 380,313.5C 379.5,313 379,312.5 378.5,312C 373.614,310.776 368.614,310.109 363.5,310C 364.416,309.722 365.082,309.222 365.5,308.5 Z"/></g>
<g><path style="opacity:1" fill="#313f3e" d="M 237.5,339.5 C 238.5,341.167 239.833,342.5 241.5,343.5C 241.5,344.167 241.167,344.5 240.5,344.5C 239.167,343.5 237.833,342.5 236.5,341.5C 236.328,340.508 236.662,339.842 237.5,339.5 Z"/></g>
<g><path style="opacity:1" fill="#2f3f3e" d="M 257.5,345.5 C 257.5,345.167 257.5,344.833 257.5,344.5C 259.956,341.613 262.956,339.779 266.5,339C 263.621,341.385 260.621,343.552 257.5,345.5 Z"/></g>
<g><path style="opacity:1" fill="#e3508d" d="M 400.5,337.5 C 400.747,340.939 400.414,344.272 399.5,347.5C 397.167,347.5 394.833,347.5 392.5,347.5C 395.605,344.408 398.271,341.075 400.5,337.5 Z"/></g>
<g><path style="opacity:1" fill="#ee5897" d="M 257.5,344.5 C 257.5,344.833 257.5,345.167 257.5,345.5C 257.702,347.989 257.202,350.323 256,352.5C 253.667,354.833 251.333,357.167 249,359.5C 244.162,355.528 241.329,350.528 240.5,344.5C 241.167,344.5 241.5,344.167 241.5,343.5C 242.594,342.418 243.927,341.752 245.5,341.5C 249.52,342.247 253.52,343.247 257.5,344.5 Z"/></g>
<g><path style="opacity:1" fill="#5f4b48" d="M 221.5,342.5 C 225.514,342.334 229.514,342.501 233.5,343C 230.893,343.818 228.226,344.318 225.5,344.5C 223.667,344.415 222.334,343.748 221.5,342.5 Z"/></g>
<g><path style="opacity:1" fill="#241d1d" d="M 227.5,357.5 C 230.247,357.187 232.914,357.52 235.5,358.5C 231.541,359.66 227.541,359.827 223.5,359C 225.058,358.79 226.391,358.29 227.5,357.5 Z"/></g>
<g><path style="opacity:0.994" fill="#e57a33" d="M 172.5,374.5 C 181.833,374.5 191.167,374.5 200.5,374.5C 225.81,384.16 251.143,393.827 276.5,403.5C 279.358,398.259 282.024,392.926 284.5,387.5C 286.744,402.454 288.744,417.454 290.5,432.5C 290.368,440.126 291.368,447.459 293.5,454.5C 294.427,464.841 295.427,475.175 296.5,485.5C 295.167,485.5 293.833,485.5 292.5,485.5C 276.167,484.167 259.833,484.167 243.5,485.5C 242.167,485.5 240.833,485.5 239.5,485.5C 239.125,475.168 238.792,464.835 238.5,454.5C 237.623,436.175 236.957,417.841 236.5,399.5C 240.226,399.823 243.893,399.489 247.5,398.5C 239.167,397.167 230.833,397.167 222.5,398.5C 224.396,399.466 226.396,399.799 228.5,399.5C 228.753,414.374 228.086,429.207 226.5,444C 226.501,447.683 226.835,451.183 227.5,454.5C 226.774,464.817 226.44,475.15 226.5,485.5C 223.833,485.5 221.167,485.5 218.5,485.5C 218.167,485.5 217.833,485.5 217.5,485.5C 201.265,484.176 184.931,484.176 168.5,485.5C 167.167,485.5 165.833,485.5 164.5,485.5C 165.309,475.177 165.975,464.844 166.5,454.5C 167.426,447.67 168.093,440.67 168.5,433.5C 170.07,413.851 171.403,394.184 172.5,374.5 Z"/></g>
<g><path style="opacity:1" fill="#38240f" d="M 236.5,399.5 C 233.833,399.5 231.167,399.5 228.5,399.5C 226.396,399.799 224.396,399.466 222.5,398.5C 230.833,397.167 239.167,397.167 247.5,398.5C 243.893,399.489 240.226,399.823 236.5,399.5 Z"/></g>
<g><path style="opacity:0.994" fill="#b5a21e" d="M 228.5,399.5 C 231.167,399.5 233.833,399.5 236.5,399.5C 236.957,417.841 237.623,436.175 238.5,454.5C 234.833,454.5 231.167,454.5 227.5,454.5C 226.835,451.183 226.501,447.683 226.5,444C 228.086,429.207 228.753,414.374 228.5,399.5 Z"/></g>
<g><path style="opacity:0.974" fill="#b2a31d" d="M 290.5,432.5 C 326.833,432.5 363.167,432.5 399.5,432.5C 400.811,439.932 400.811,447.265 399.5,454.5C 364.167,454.5 328.833,454.5 293.5,454.5C 291.368,447.459 290.368,440.126 290.5,432.5 Z"/></g>
<g><path style="opacity:0.974" fill="#b2a31d" d="M 414.5,432.5 C 446.833,432.5 479.167,432.5 511.5,432.5C 511.5,439.833 511.5,447.167 511.5,454.5C 479.167,454.5 446.833,454.5 414.5,454.5C 414.5,447.167 414.5,439.833 414.5,432.5 Z"/></g>
<g><path style="opacity:0.996" fill="#b0ebe7" d="M 217.5,485.5 C 214.389,487.559 211.056,489.392 207.5,491C 211.6,490.619 215.266,489.119 218.5,486.5C 227.018,486.129 235.351,487.129 243.5,489.5C 248.814,492.272 253.648,495.939 258,500.5C 259.801,503.994 260.967,507.66 261.5,511.5C 230.5,511.5 199.5,511.5 168.5,511.5C 169.503,502.852 169.503,494.186 168.5,485.5C 184.931,484.176 201.265,484.176 217.5,485.5 Z"/></g>
<g><path style="opacity:0.991" fill="#b6f3ee" d="M 292.5,485.5 C 292.5,485.833 292.5,486.167 292.5,486.5C 304.408,485.762 315.742,487.929 326.5,493C 333.526,497.188 336.86,503.354 336.5,511.5C 311.833,511.5 287.167,511.5 262.5,511.5C 262.5,510.167 262.5,508.833 262.5,507.5C 284.836,507.667 307.169,507.5 329.5,507C 306.836,506.5 284.169,506.333 261.5,506.5C 258.834,497.505 252.834,491.839 243.5,489.5C 243.5,488.167 243.5,486.833 243.5,485.5C 259.833,484.167 276.167,484.167 292.5,485.5 Z"/></g>
<g><path style="opacity:1" fill="#2a3837" d="M 217.5,485.5 C 217.833,485.5 218.167,485.5 218.5,485.5C 218.5,485.833 218.5,486.167 218.5,486.5C 215.266,489.119 211.6,490.619 207.5,491C 211.056,489.392 214.389,487.559 217.5,485.5 Z"/></g>
<g><path style="opacity:1" fill="#2f3e3e" d="M 292.5,486.5 C 291.082,488.708 289.082,489.542 286.5,489C 288.407,487.878 290.407,487.045 292.5,486.5 Z"/></g>
<g><path style="opacity:1" fill="#222e2d" d="M 243.5,489.5 C 252.834,491.839 258.834,497.505 261.5,506.5C 284.169,506.333 306.836,506.5 329.5,507C 307.169,507.5 284.836,507.667 262.5,507.5C 262.5,508.833 262.5,510.167 262.5,511.5C 262.167,511.5 261.833,511.5 261.5,511.5C 260.967,507.66 259.801,503.994 258,500.5C 253.648,495.939 248.814,492.272 243.5,489.5 Z"/></g>
</svg>
