<?xml version="1.0" encoding="UTF-8"?>
<!DOCTYPE svg PUBLIC "-//W3C//DTD SVG 1.1//EN" "http://www.w3.org/Graphics/SVG/1.1/DTD/svg11.dtd">
<svg xmlns="http://www.w3.org/2000/svg" version="1.1" width="512px" height="512px" style="shape-rendering:geometricPrecision; text-rendering:geometricPrecision; image-rendering:optimizeQuality; fill-rule:evenodd; clip-rule:evenodd" xmlns:xlink="http://www.w3.org/1999/xlink">
<g><path style="opacity:0.994" fill="#facd45" d="M 361.5,-0.5 C 368.167,-0.5 374.833,-0.5 381.5,-0.5C 391.079,2.04631 399.245,7.04631 406,14.5C 410.375,7.23688 416.541,2.23688 424.5,-0.5C 429.833,-0.5 435.167,-0.5 440.5,-0.5C 455.107,4.46892 463.107,14.8023 464.5,30.5C 464.237,35.6604 462.903,40.4938 460.5,45C 478.043,44.0543 487.71,52.2209 489.5,69.5C 489.385,78.2299 485.718,85.0632 478.5,90C 487.596,97.3399 488.763,105.84 482,115.5C 474.884,121.468 467.384,121.968 459.5,117C 452.479,109.503 451.812,101.503 457.5,93C 444.008,86.1775 439.008,75.3442 442.5,60.5C 433.596,62.5445 425.096,61.5445 417,57.5C 408.977,81.0071 392.477,92.6738 367.5,92.5C 367.833,95.1667 368.167,97.8333 368.5,100.5C 365.149,102.893 361.316,103.893 357,103.5C 350.237,103.185 343.737,101.685 337.5,99C 322.454,91.8161 308.787,82.6495 296.5,71.5C 296.167,71.6667 295.833,71.8333 295.5,72C 300.287,77.7421 304.953,83.5754 309.5,89.5C 278.308,93.6922 248.975,88.5255 221.5,74C 227.167,78.8333 232.833,83.6667 238.5,88.5C 219.51,96.3981 199.677,100.398 179,100.5C 164.78,99.7163 150.613,98.3829 136.5,96.5C 137.85,95.1765 137.683,94.1765 136,93.5C 114.706,90.5276 100.706,78.8609 94,58.5C 85.8848,62.4717 77.3848,63.4717 68.5,61.5C 72.0846,76.326 67.0846,86.9926 53.5,93.5C 59.2305,102.163 58.5639,110.329 51.5,118C 40.8753,123.719 32.3753,121.553 26,111.5C 23.1576,103.029 25.3243,96.1955 32.5,91C 18.6312,78.3156 17.9645,64.9823 30.5,51C 36.593,47.2565 43.2596,45.5898 50.5,46C 44.217,32.0733 46.217,19.4066 56.5,8C 66.405,0.447489 77.405,-1.55251 89.5,2C 96.1717,4.51077 101.505,8.67744 105.5,14.5C 119.044,1.27986 135.044,-2.8868 153.5,2C 168.201,6.7023 178.367,16.2023 184,30.5C 217.623,11.2672 253.123,7.10053 290.5,18C 303.1,21.9717 314.933,27.4717 326,34.5C 331.097,15.9022 342.931,4.23551 361.5,-0.5 Z"/></g>
<g><path style="opacity:0.995" fill="#feecb9" d="M 368.5,100.5 C 396.698,88.8443 419.532,95.511 437,120.5C 449.811,148.813 443.977,172.313 419.5,191C 402.959,199.695 386.293,200.195 369.5,192.5C 369.823,188.774 369.489,185.107 368.5,181.5C 367.242,185.21 367.242,188.877 368.5,192.5C 359.681,217.644 343.681,236.644 320.5,249.5C 312.015,252.385 303.515,255.385 295,258.5C 293.97,258.836 293.47,259.503 293.5,260.5C 282.235,262.658 270.902,264.325 259.5,265.5C 260.15,263.565 260.483,261.565 260.5,259.5C 255.59,258.141 250.756,256.474 246,254.5C 243.985,256.361 242.818,258.695 242.5,261.5C 238.397,259.742 234.23,258.075 230,256.5C 227.842,259.121 226.342,262.121 225.5,265.5C 218.491,264.582 211.491,263.582 204.5,262.5C 203.614,269.811 202.947,277.144 202.5,284.5C 200.064,285.871 197.397,286.871 194.5,287.5C 192.659,283.817 190.326,280.484 187.5,277.5C 191.889,272.758 195.556,267.424 198.5,261.5C 192.556,259.296 186.556,257.296 180.5,255.5C 180.158,254.662 179.492,254.328 178.5,254.5C 169.352,250.427 161.018,245.093 153.5,238.5C 184.217,241.312 199.884,227.312 200.5,196.5C 201.694,195.728 202.694,194.728 203.5,193.5C 213.66,186.542 219.827,176.876 222,164.5C 222.498,161.183 222.665,157.85 222.5,154.5C 222.449,138.518 215.782,125.685 202.5,116C 197.227,112.743 191.561,110.577 185.5,109.5C 184.791,108.596 183.791,108.263 182.5,108.5C 168.185,106.939 155.852,110.939 145.5,120.5C 141.835,123.333 138.668,126.666 136,130.5C 134.624,129.295 133.458,127.962 132.5,126.5C 133.044,116.387 134.378,106.387 136.5,96.5C 150.613,98.3829 164.78,99.7163 179,100.5C 199.677,100.398 219.51,96.3981 238.5,88.5C 232.833,83.6667 227.167,78.8333 221.5,74C 248.975,88.5255 278.308,93.6922 309.5,89.5C 304.953,83.5754 300.287,77.7421 295.5,72C 295.833,71.8333 296.167,71.6667 296.5,71.5C 308.787,82.6495 322.454,91.8161 337.5,99C 343.737,101.685 350.237,103.185 357,103.5C 361.316,103.893 365.149,102.893 368.5,100.5 Z"/></g>
<g><path style="opacity:1" fill="#21201d" d="M 182.5,108.5 C 178.833,109.167 175.167,109.833 171.5,110.5C 161.647,111.428 152.98,115.095 145.5,121.5C 145.5,121.167 145.5,120.833 145.5,120.5C 155.852,110.939 168.185,106.939 182.5,108.5 Z"/></g>
<g><path style="opacity:1" fill="#888784" d="M 182.5,108.5 C 183.791,108.263 184.791,108.596 185.5,109.5C 184.508,109.328 183.842,109.662 183.5,110.5C 179.5,110.5 175.5,110.5 171.5,110.5C 175.167,109.833 178.833,109.167 182.5,108.5 Z"/></g>
<g><path style="opacity:1" fill="#fdfdfd" d="M 171.5,110.5 C 175.5,110.5 179.5,110.5 183.5,110.5C 206.631,116.045 219.631,130.712 222.5,154.5C 222.665,157.85 222.498,161.183 222,164.5C 219.827,176.876 213.66,186.542 203.5,193.5C 183.818,169.814 164.484,145.814 145.5,121.5C 152.98,115.095 161.647,111.428 171.5,110.5 Z"/></g>
<g><path style="opacity:1" fill="#fdfdfd" d="M 339.5,163.5 C 339.583,167.335 338.917,171.002 337.5,174.5C 334.706,183.093 329.706,190.093 322.5,195.5C 301.337,172.169 280.337,148.669 259.5,125C 260.381,124.292 261.047,123.458 261.5,122.5C 280.014,109.301 299.348,108.135 319.5,119C 334.15,130.14 340.816,144.974 339.5,163.5 Z"/></g>
<g><path style="opacity:1" fill="#2d2c27" d="M 183.5,110.5 C 183.842,109.662 184.508,109.328 185.5,109.5C 191.561,110.577 197.227,112.743 202.5,116C 215.782,125.685 222.449,138.518 222.5,154.5C 219.631,130.712 206.631,116.045 183.5,110.5 Z"/></g>
<g><path style="opacity:1" fill="#2d2c27" d="M 340.5,151.5 C 344.5,152.167 348.5,152.833 352.5,153.5C 348.833,153.5 345.167,153.5 341.5,153.5C 342.069,157.329 341.402,160.663 339.5,163.5C 340.816,144.974 334.15,130.14 319.5,119C 299.348,108.135 280.014,109.301 261.5,122.5C 261.167,122.5 260.833,122.5 260.5,122.5C 281.284,105.718 302.617,105.218 324.5,121C 328.062,124.058 331.062,127.558 333.5,131.5C 336.567,128.876 339.9,127.042 343.5,126C 340.329,128.341 337.329,130.841 334.5,133.5C 335.456,136.439 337.123,138.772 339.5,140.5C 352.482,136.986 352.649,137.652 340,142.5C 339.956,145.475 340.123,148.475 340.5,151.5 Z"/></g>
<g><path style="opacity:0.983" fill="#010101" d="M 145.5,120.5 C 145.5,120.833 145.5,121.167 145.5,121.5C 164.484,145.814 183.818,169.814 203.5,193.5C 202.694,194.728 201.694,195.728 200.5,196.5C 174.391,208.584 152.724,203.251 135.5,180.5C 130.973,171.725 128.64,162.392 128.5,152.5C 123.988,152.851 119.655,152.185 115.5,150.5C 120.078,149.76 124.578,149.426 129,149.5C 129.287,147.109 129.787,144.776 130.5,142.5C 126.576,140.868 122.91,138.868 119.5,136.5C 123.532,136.111 127.366,137.111 131,139.5C 131.513,138.473 132.013,137.473 132.5,136.5C 133.601,135.152 134.601,133.652 135.5,132C 134.756,130.961 133.756,130.461 132.5,130.5C 130.375,128.878 128.375,127.045 126.5,125C 126.833,124.5 127.167,124 127.5,123.5C 129.029,124.763 130.695,125.763 132.5,126.5C 133.458,127.962 134.624,129.295 136,130.5C 138.668,126.666 141.835,123.333 145.5,120.5 Z"/></g>
<g><path style="opacity:1" fill="#030202" d="M 260.5,122.5 C 260.833,122.5 261.167,122.5 261.5,122.5C 261.047,123.458 260.381,124.292 259.5,125C 280.337,148.669 301.337,172.169 322.5,195.5C 305.912,207.995 288.245,209.662 269.5,200.5C 249.757,187.485 241.924,169.151 246,145.5C 248.658,136.366 253.492,128.699 260.5,122.5 Z"/></g>
<g><path style="opacity:0.628" fill="#efdeae" d="M 132.5,130.5 C 133.756,130.461 134.756,130.961 135.5,132C 134.601,133.652 133.601,135.152 132.5,136.5C 132.5,134.5 132.5,132.5 132.5,130.5 Z"/></g>
<g><path style="opacity:1" fill="#26231d" d="M 416.5,137.5 C 419.113,138.095 419.113,138.929 416.5,140C 403.717,145.225 391.05,150.725 378.5,156.5C 378.167,156.167 377.833,155.833 377.5,155.5C 390.702,149.73 403.702,143.73 416.5,137.5 Z"/></g>
<g><path style="opacity:1" fill="#958b6d" d="M 340.5,151.5 C 344.884,151.174 349.217,151.508 353.5,152.5C 353.376,153.107 353.043,153.44 352.5,153.5C 348.5,152.833 344.5,152.167 340.5,151.5 Z"/></g>
<g><path style="opacity:1" fill="#f6b3a8" d="M 337.5,174.5 C 348.218,186.967 350.385,200.967 344,216.5C 333.898,234.3 318.731,241.467 298.5,238C 280.365,232.034 270.699,219.534 269.5,200.5C 288.245,209.662 305.912,207.995 322.5,195.5C 329.706,190.093 334.706,183.093 337.5,174.5 Z"/></g>
<g><path style="opacity:0.993" fill="#f5b2a8" d="M 135.5,180.5 C 152.724,203.251 174.391,208.584 200.5,196.5C 199.884,227.312 184.217,241.312 153.5,238.5C 139.816,228.645 132.483,215.145 131.5,198C 131.83,191.81 133.163,185.977 135.5,180.5 Z"/></g>
<g><path style="opacity:1" fill="#3a362a" d="M 369.5,192.5 C 369.167,192.5 368.833,192.5 368.5,192.5C 367.242,188.877 367.242,185.21 368.5,181.5C 369.489,185.107 369.823,188.774 369.5,192.5 Z"/></g>
<g><path style="opacity:1" fill="#070504" d="M 262.5,219.5 C 260.181,216.706 257.181,214.872 253.5,214C 235.839,211.473 226.173,218.973 224.5,236.5C 208.798,234.474 201.632,225.474 203,209.5C 209.075,192.128 217.575,190.962 228.5,206C 231.167,206.667 233.833,206.667 236.5,206C 239.037,203.094 241.204,199.927 243,196.5C 248.768,192.445 254.102,193.112 259,198.5C 263.382,205.1 264.548,212.1 262.5,219.5 Z"/></g>
<g><path style="opacity:1" fill="#ec5d4a" d="M 262.5,219.5 C 260.908,226.264 256.908,231.098 250.5,234C 241.926,237.252 233.259,238.085 224.5,236.5C 226.173,218.973 235.839,211.473 253.5,214C 257.181,214.872 260.181,216.706 262.5,219.5 Z"/></g>
<g><path style="opacity:0.619" fill="#181612" d="M 320.5,249.5 C 317.098,252.535 313.098,254.535 308.5,255.5C 303.828,257.168 299.162,258.835 294.5,260.5C 294.167,260.5 293.833,260.5 293.5,260.5C 293.47,259.503 293.97,258.836 295,258.5C 303.515,255.385 312.015,252.385 320.5,249.5 Z"/></g>
<g><path style="opacity:0.963" fill="#ee5d4a" d="M 178.5,254.5 C 179.492,254.328 180.158,254.662 180.5,255.5C 180.806,258.385 180.473,261.052 179.5,263.5C 173.741,263.214 168.075,263.548 162.5,264.5C 161.523,261.713 161.19,258.713 161.5,255.5C 167.189,255.468 172.855,255.134 178.5,254.5 Z"/></g>
<g><path style="opacity:1" fill="#56a881" d="M 259.5,265.5 C 259.167,266.167 258.833,266.833 258.5,267.5C 252.943,266.053 247.61,264.053 242.5,261.5C 242.818,258.695 243.985,256.361 246,254.5C 250.756,256.474 255.59,258.141 260.5,259.5C 260.483,261.565 260.15,263.565 259.5,265.5 Z"/></g>
<g><path style="opacity:0.989" fill="#feecb9" d="M 308.5,255.5 C 321.234,267.732 333.068,280.732 344,294.5C 350.609,302.72 354.776,312.054 356.5,322.5C 356.277,330.791 352.277,336.291 344.5,339C 333.884,340.781 323.218,340.948 312.5,339.5C 297.374,336.624 282.874,331.624 269,324.5C 267.629,326.041 266.129,327.375 264.5,328.5C 262.117,330.358 259.45,331.692 256.5,332.5C 254.5,332.5 252.5,332.5 250.5,332.5C 243.856,330.837 238.523,327.17 234.5,321.5C 233.532,318.555 233.366,315.555 234,312.5C 234.72,310.944 235.887,309.944 237.5,309.5C 242.073,311.086 246.739,311.919 251.5,312C 247.004,310.112 242.337,308.945 237.5,308.5C 233.682,301.359 235.349,296.026 242.5,292.5C 246.139,294.045 249.973,295.379 254,296.5C 254.5,296.167 255,295.833 255.5,295.5C 251.281,293.76 246.947,292.427 242.5,291.5C 241.883,291.389 241.383,291.056 241,290.5C 239.709,286.328 240.876,283.161 244.5,281C 249.734,280.023 254.734,280.69 259.5,283C 262.482,283.498 265.482,283.665 268.5,283.5C 275.724,287.28 278.724,293.28 277.5,301.5C 285.251,305.037 293.251,308.037 301.5,310.5C 309.386,312.645 317.386,313.812 325.5,314C 316.376,302.043 306.376,290.876 295.5,280.5C 294.577,273.891 294.244,267.224 294.5,260.5C 299.162,258.835 303.828,257.168 308.5,255.5 Z M 295.5,280.5 C 306.376,290.876 316.376,302.043 325.5,314C 317.386,313.812 309.386,312.645 301.5,310.5C 296.338,301.177 294.338,291.177 295.5,280.5 Z"/></g>
<g><path style="opacity:1" fill="#a2cad0" d="M 242.5,261.5 C 247.61,264.053 252.943,266.053 258.5,267.5C 262.962,269.378 267.296,271.545 271.5,274C 270.338,277.147 269.338,280.314 268.5,283.5C 265.482,283.665 262.482,283.498 259.5,283C 254.734,280.69 249.734,280.023 244.5,281C 240.876,283.161 239.709,286.328 241,290.5C 241.383,291.056 241.883,291.389 242.5,291.5C 242.5,291.833 242.5,292.167 242.5,292.5C 235.349,296.026 233.682,301.359 237.5,308.5C 237.5,308.833 237.5,309.167 237.5,309.5C 235.887,309.944 234.72,310.944 234,312.5C 233.366,315.555 233.532,318.555 234.5,321.5C 230.818,321.665 227.152,321.499 223.5,321C 221.867,320.52 220.534,319.687 219.5,318.5C 217.621,310.199 215.954,301.866 214.5,293.5C 218.168,284.162 221.835,274.828 225.5,265.5C 226.342,262.121 227.842,259.121 230,256.5C 234.23,258.075 238.397,259.742 242.5,261.5 Z"/></g>
<g><path style="opacity:0.996" fill="#ee5f4b" d="M 293.5,260.5 C 293.833,260.5 294.167,260.5 294.5,260.5C 294.244,267.224 294.577,273.891 295.5,280.5C 294.338,291.177 296.338,301.177 301.5,310.5C 293.251,308.037 285.251,305.037 277.5,301.5C 278.724,293.28 275.724,287.28 268.5,283.5C 269.338,280.314 270.338,277.147 271.5,274C 267.296,271.545 262.962,269.378 258.5,267.5C 258.833,266.833 259.167,266.167 259.5,265.5C 270.902,264.325 282.235,262.658 293.5,260.5 Z"/></g>
<g><path style="opacity:1" fill="#ee604c" d="M 225.5,265.5 C 221.835,274.828 218.168,284.162 214.5,293.5C 212.764,290.159 211.764,286.492 211.5,282.5C 208.5,283.167 205.5,283.833 202.5,284.5C 202.947,277.144 203.614,269.811 204.5,262.5C 211.491,263.582 218.491,264.582 225.5,265.5 Z"/></g>
<g><path style="opacity:0.983" fill="#f7b3a8" d="M 179.5,263.5 C 179.335,266.85 179.502,270.183 180,273.5C 182.734,274.449 185.234,275.783 187.5,277.5C 190.326,280.484 192.659,283.817 194.5,287.5C 186.862,290.158 179.195,292.824 171.5,295.5C 171.167,296 170.833,296.5 170.5,297C 172.649,301.463 174.649,305.963 176.5,310.5C 174.5,309.833 172.5,309.167 170.5,308.5C 170.654,304.975 169.321,302.141 166.5,300C 162.637,298.268 158.637,296.934 154.5,296C 152.34,295.004 150.673,293.504 149.5,291.5C 151.6,284.396 155.933,279.062 162.5,275.5C 163.46,271.861 163.46,268.195 162.5,264.5C 168.075,263.548 173.741,263.214 179.5,263.5 Z"/></g>
<g><path style="opacity:1" fill="#f9cc47" d="M 214.5,293.5 C 215.954,301.866 217.621,310.199 219.5,318.5C 219.38,319.586 218.713,320.253 217.5,320.5C 203.464,318.552 189.797,315.218 176.5,310.5C 174.649,305.963 172.649,301.463 170.5,297C 170.833,296.5 171.167,296 171.5,295.5C 179.195,292.824 186.862,290.158 194.5,287.5C 197.397,286.871 200.064,285.871 202.5,284.5C 205.5,283.833 208.5,283.167 211.5,282.5C 211.764,286.492 212.764,290.159 214.5,293.5 Z"/></g>
<g><path style="opacity:0.99" fill="#fdebb8" d="M 149.5,291.5 C 150.673,293.504 152.34,295.004 154.5,296C 158.637,296.934 162.637,298.268 166.5,300C 169.321,302.141 170.654,304.975 170.5,308.5C 169.046,310.458 167.379,312.291 165.5,314C 165.743,314.902 166.077,315.735 166.5,316.5C 167.412,322.361 165.079,326.027 159.5,327.5C 155.582,325.802 151.582,324.636 147.5,324C 150.93,326.047 154.597,327.547 158.5,328.5C 161.862,334.951 159.862,339.118 152.5,341C 148.5,341.667 144.5,341.667 140.5,341C 137.478,339.489 134.478,337.989 131.5,336.5C 123.54,320.779 125.874,306.612 138.5,294C 141.87,291.922 145.537,291.089 149.5,291.5 Z"/></g>
<g><path style="opacity:1" fill="#353127" d="M 242.5,291.5 C 246.947,292.427 251.281,293.76 255.5,295.5C 255,295.833 254.5,296.167 254,296.5C 249.973,295.379 246.139,294.045 242.5,292.5C 242.5,292.167 242.5,291.833 242.5,291.5 Z"/></g>
<g><path style="opacity:1" fill="#bfdf9b" d="M 170.5,308.5 C 172.5,309.167 174.5,309.833 176.5,310.5C 189.797,315.218 203.464,318.552 217.5,320.5C 218.713,320.253 219.38,319.586 219.5,318.5C 220.534,319.687 221.867,320.52 223.5,321C 227.152,321.499 230.818,321.665 234.5,321.5C 238.523,327.17 243.856,330.837 250.5,332.5C 249.5,332.5 248.5,332.5 247.5,332.5C 242.267,352.553 238.1,372.886 235,393.5C 232.333,396.167 229.667,396.167 227,393.5C 228.865,372.229 233.032,351.396 239.5,331C 214.285,330.457 189.952,325.624 166.5,316.5C 166.077,315.735 165.743,314.902 165.5,314C 167.379,312.291 169.046,310.458 170.5,308.5 Z"/></g>
<g><path style="opacity:1" fill="#25231c" d="M 152.5,309.5 C 152.735,308.903 153.235,308.57 154,308.5C 157.616,309.814 161.116,311.314 164.5,313C 160.418,312.364 156.418,311.198 152.5,309.5 Z"/></g>
<g><path style="opacity:1" fill="#363228" d="M 237.5,309.5 C 237.5,309.167 237.5,308.833 237.5,308.5C 242.337,308.945 247.004,310.112 251.5,312C 246.739,311.919 242.073,311.086 237.5,309.5 Z"/></g>
<g><path style="opacity:0.996" fill="#51a67f" d="M 166.5,316.5 C 189.952,325.624 214.285,330.457 239.5,331C 233.032,351.396 228.865,372.229 227,393.5C 229.667,396.167 232.333,396.167 235,393.5C 238.1,372.886 242.267,352.553 247.5,332.5C 248.5,332.5 249.5,332.5 250.5,332.5C 252.5,332.5 254.5,332.5 256.5,332.5C 263.288,353.275 267.455,374.608 269,396.5C 269.816,397.823 270.983,398.489 272.5,398.5C 271.54,407.468 269.373,416.135 266,424.5C 261.701,431.949 256.868,438.949 251.5,445.5C 248.194,447.489 244.861,449.489 241.5,451.5C 211.175,464.04 179.842,467.373 147.5,461.5C 120.163,457.245 96.3292,445.912 76,427.5C 59.0803,404.999 62.5803,386.165 86.5,371C 97.1035,366.7 107.103,361.366 116.5,355C 122.122,349.224 127.122,343.058 131.5,336.5C 134.478,337.989 137.478,339.489 140.5,341C 144.5,341.667 148.5,341.667 152.5,341C 159.862,339.118 161.862,334.951 158.5,328.5C 159.167,328.5 159.5,328.167 159.5,327.5C 165.079,326.027 167.412,322.361 166.5,316.5 Z"/></g>
<g><path style="opacity:1" fill="#1f1d18" d="M 159.5,327.5 C 159.5,328.167 159.167,328.5 158.5,328.5C 154.597,327.547 150.93,326.047 147.5,324C 151.582,324.636 155.582,325.802 159.5,327.5 Z"/></g>
<g><path style="opacity:0.997" fill="#ed5d4a" d="M 312.5,339.5 C 327.729,376.69 339.229,415.023 347,454.5C 348.223,462.453 348.723,470.453 348.5,478.5C 340.5,478.5 332.5,478.5 324.5,478.5C 309.163,478.821 293.83,479.321 278.5,480C 275.305,480.181 272.305,480.681 269.5,481.5C 263.833,481.5 258.167,481.5 252.5,481.5C 251.877,469.51 251.544,457.51 251.5,445.5C 256.868,438.949 261.701,431.949 266,424.5C 269.373,416.135 271.54,407.468 272.5,398.5C 274.39,398.703 275.89,398.037 277,396.5C 276.243,373.214 272.076,350.548 264.5,328.5C 266.129,327.375 267.629,326.041 269,324.5C 282.874,331.624 297.374,336.624 312.5,339.5 Z"/></g>
<g><path style="opacity:1" fill="#c2dd99" d="M 264.5,328.5 C 272.076,350.548 276.243,373.214 277,396.5C 275.89,398.037 274.39,398.703 272.5,398.5C 270.983,398.489 269.816,397.823 269,396.5C 267.455,374.608 263.288,353.275 256.5,332.5C 259.45,331.692 262.117,330.358 264.5,328.5 Z"/></g>
<g><path style="opacity:1" fill="#bdde9a" d="M 168.5,361.5 C 175.555,360.111 181.388,362.111 186,367.5C 189.985,373.625 192.485,380.291 193.5,387.5C 191.5,387.5 189.5,387.5 187.5,387.5C 186.891,378.246 182.391,371.912 174,368.5C 168.612,370.218 164.779,373.718 162.5,379C 164.5,381 166.5,383 168.5,385C 163.217,384.448 157.884,383.948 152.5,383.5C 152.334,378.821 152.501,374.155 153,369.5C 154.574,370.984 155.907,372.651 157,374.5C 159.984,369.353 163.818,365.02 168.5,361.5 Z"/></g>
<g><path style="opacity:1" fill="#bdde9a" d="M 148.5,385.5 C 150.179,387 151.512,388.833 152.5,391C 146.756,396.311 144.256,402.811 145,410.5C 146.26,413.428 148.427,415.261 151.5,416C 154.868,416.543 158.201,416.376 161.5,415.5C 161.187,412.753 161.52,410.086 162.5,407.5C 165.224,411.78 167.557,416.28 169.5,421C 166.385,424.494 162.885,427.661 159,430.5C 159.153,427.826 159.653,425.16 160.5,422.5C 142.597,425.431 135.43,418.098 139,400.5C 141.678,395.134 144.844,390.134 148.5,385.5 Z"/></g>
<g><path style="opacity:1" fill="#bdde9a" d="M 189.5,390.5 C 194.313,391.493 198.98,392.993 203.5,395C 200.728,395.526 198.062,396.359 195.5,397.5C 208.608,413.111 205.275,423.277 185.5,428C 180.833,428.667 176.167,428.667 171.5,428C 171.167,427.667 170.833,427.333 170.5,427C 171.293,425.915 171.96,424.748 172.5,423.5C 177.879,422.844 183.213,422.011 188.5,421C 194.487,418.86 196.654,414.693 195,408.5C 193.623,406.246 192.123,404.08 190.5,402C 187.411,402.385 184.411,403.052 181.5,404C 184.304,399.555 186.971,395.055 189.5,390.5 Z"/></g>
<g><path style="opacity:0.993" fill="#ed5d4a" d="M 241.5,451.5 C 241.082,461.524 240.415,471.524 239.5,481.5C 235.167,481.5 230.833,481.5 226.5,481.5C 208.345,480.053 190.012,479.053 171.5,478.5C 162.827,478.666 154.16,478.5 145.5,478C 145.043,477.586 144.709,477.086 144.5,476.5C 145.608,471.515 146.608,466.515 147.5,461.5C 179.842,467.373 211.175,464.04 241.5,451.5 Z"/></g>
<g><path style="opacity:0.988" fill="#ab6057" d="M 324.5,478.5 C 324.5,480.167 324.5,481.833 324.5,483.5C 338.659,482.581 351.993,485.414 364.5,492C 371.146,496.792 374.479,503.292 374.5,511.5C 339.5,511.5 304.5,511.5 269.5,511.5C 269.5,501.5 269.5,491.5 269.5,481.5C 272.305,480.681 275.305,480.181 278.5,480C 293.83,479.321 309.163,478.821 324.5,478.5 Z"/></g>
<g><path style="opacity:0.986" fill="#ab6057" d="M 171.5,478.5 C 190.012,479.053 208.345,480.053 226.5,481.5C 226.5,491.5 226.5,501.5 226.5,511.5C 191.5,511.5 156.5,511.5 121.5,511.5C 121.511,503.311 124.845,496.811 131.5,492C 144.007,485.414 157.341,482.581 171.5,483.5C 171.5,481.833 171.5,480.167 171.5,478.5 Z"/></g>
<g><path style="opacity:1" fill="#241614" d="M 171.5,483.5 C 174.889,484.631 178.222,485.964 181.5,487.5C 182.521,488.002 182.688,488.668 182,489.5C 178.062,488.119 174.562,486.119 171.5,483.5 Z"/></g>
<g><path style="opacity:1" fill="#251614" d="M 324.5,483.5 C 321.438,486.119 317.938,488.119 314,489.5C 313.312,488.668 313.479,488.002 314.5,487.5C 317.629,485.6 320.963,484.267 324.5,483.5 Z"/></g>
<g><path style="opacity:1" fill="#53302c" d="M 129.5,505.5 C 161.174,505.167 192.84,505.5 224.5,506.5C 208.667,506.833 192.833,507.167 177,507.5C 160.819,507.499 144.986,506.833 129.5,505.5 Z"/></g>
<g><path style="opacity:1" fill="#53302c" d="M 271.5,505.5 C 303.168,505.333 334.835,505.5 366.5,506C 350.648,507.161 334.648,507.661 318.5,507.5C 302.485,507.499 286.819,506.833 271.5,505.5 Z"/></g>
</svg>
