<?xml version="1.0" encoding="UTF-8"?>
<!DOCTYPE svg PUBLIC "-//W3C//DTD SVG 1.1//EN" "http://www.w3.org/Graphics/SVG/1.1/DTD/svg11.dtd">
<svg xmlns="http://www.w3.org/2000/svg" version="1.1" width="512px" height="512px" style="shape-rendering:geometricPrecision; text-rendering:geometricPrecision; image-rendering:optimizeQuality; fill-rule:evenodd; clip-rule:evenodd" xmlns:xlink="http://www.w3.org/1999/xlink">
<g><path style="opacity:0.992" fill="#673dc4" d="M 235.5,-0.5 C 242.5,-0.5 249.5,-0.5 256.5,-0.5C 287.965,9.31933 301.632,30.6527 297.5,63.5C 298.5,63.8333 299.5,64.1667 300.5,64.5C 330.144,59.4595 358.477,63.4595 385.5,76.5C 387.006,44.5887 402.672,23.4221 432.5,13C 471.615,6.46136 497.115,21.9614 509,59.5C 513.191,84.5972 505.691,105.431 486.5,122C 473.702,131.285 459.368,135.451 443.5,134.5C 446.897,144.886 448.23,155.553 447.5,166.5C 444.015,178.102 440.682,189.769 437.5,201.5C 427.642,185.145 416.809,169.478 405,154.5C 394.57,142.7 382.07,134.2 367.5,129C 374.5,135.333 381.5,141.667 388.5,148C 353.427,151.822 320.427,145.322 289.5,128.5C 289.167,128.667 288.833,128.833 288.5,129C 291.04,133.914 293.706,138.747 296.5,143.5C 276.231,143.026 256.564,139.026 237.5,131.5C 235.242,134.357 233.242,137.357 231.5,140.5C 227.436,138.978 224.436,136.311 222.5,132.5C 225.35,122.477 229.017,112.81 233.5,103.5C 207.712,96.3668 194.045,79.3668 192.5,52.5C 194.302,24.5192 208.635,6.85255 235.5,-0.5 Z"/></g>
<g><path style="opacity:0.893" fill="#f5adff" d="M 27.5,7.5 C 29.2175,14.1794 31.3842,20.846 34,27.5C 35.7309,29.6166 37.8976,31.1166 40.5,32C 44.7959,33.3239 49.1292,34.4905 53.5,35.5C 46.742,36.3928 40.5753,38.7261 35,42.5C 31.4122,48.9907 29.4122,55.9907 29,63.5C 27.6686,56.1911 25.3352,49.1911 22,42.5C 16.3738,38.957 10.2072,36.7904 3.5,36C 7.01196,34.6856 10.6786,33.6856 14.5,33C 17.7591,31.7894 20.5925,29.9561 23,27.5C 25.7119,21.1072 27.2119,14.4405 27.5,7.5 Z"/></g>
<g><path style="opacity:0.858" fill="#f5adff" d="M 154.5,30.5 C 155.462,34.7695 156.628,39.1028 158,43.5C 161.361,46.2635 165.195,48.0968 169.5,49C 165.321,49.8343 161.321,51.1676 157.5,53C 155.15,56.8823 153.483,61.049 152.5,65.5C 153.177,54.6805 148.177,48.5139 137.5,47C 148.254,46.7462 153.921,41.2462 154.5,30.5 Z"/></g>
<g><path style="opacity:0.988" fill="#4693fe" d="M 137.5,65.5 C 156.285,97.8811 161.785,132.548 154,169.5C 149.53,197.943 137.03,222.11 116.5,242C 112.32,244.696 108.32,247.53 104.5,250.5C 78.1581,260.219 57.3248,253.219 42,229.5C 27.4203,203.038 21.7536,174.705 25,144.5C 27.3696,113.787 38.0362,86.4533 57,62.5C 72.2199,44.9821 91.0533,39.1488 113.5,45C 123.507,49.509 131.507,56.3423 137.5,65.5 Z"/></g>
<g><path style="opacity:1" fill="#9ad5da" d="M 39.5,132.5 C 43.9346,132.752 45.268,134.919 43.5,139C 41.7361,159.386 48.4028,176.386 63.5,190C 68.5387,193.854 74.2054,196.021 80.5,196.5C 103.461,199.446 119.628,190.112 129,168.5C 130.653,163.816 131.819,159.15 132.5,154.5C 132.351,155.552 132.517,156.552 133,157.5C 137.402,135.034 130.902,116.534 113.5,102C 108.476,98.9849 103.142,96.8182 97.5,95.5C 80.8397,93.383 67.173,98.7163 56.5,111.5C 53.4348,108.76 50.4348,106.093 47.5,103.5C 53.186,87.3277 62.8527,74.161 76.5,64C 93.4608,55.1995 107.961,58.3662 120,73.5C 128.68,86.5358 134.014,100.869 136,116.5C 139.416,146.852 134.749,175.852 122,203.5C 117.37,212.8 111.204,220.967 103.5,228C 82.3561,242.352 64.8561,238.852 51,217.5C 41.0836,198.756 36.5836,178.756 37.5,157.5C 37.3558,149.081 38.0225,140.748 39.5,132.5 Z"/></g>
<g><path style="opacity:0.996" fill="#ba9ffe" d="M 137.5,65.5 C 166.015,87.5923 194.348,109.926 222.5,132.5C 224.436,136.311 227.436,138.978 231.5,140.5C 244.207,151.875 257.207,162.875 270.5,173.5C 268.399,189.408 266.733,205.408 265.5,221.5C 250.993,223.86 236.66,226.527 222.5,229.5C 220.585,229.216 218.919,229.549 217.5,230.5C 213.963,230.311 210.63,230.977 207.5,232.5C 205.194,232.993 202.861,233.326 200.5,233.5C 191.639,234.43 182.972,236.097 174.5,238.5C 151.191,242.628 127.857,246.628 104.5,250.5C 108.32,247.53 112.32,244.696 116.5,242C 137.03,222.11 149.53,197.943 154,169.5C 161.785,132.548 156.285,97.8811 137.5,65.5 Z"/></g>
<g><path style="opacity:1" fill="#020202" d="M 97.5,95.5 C 97.1583,96.3382 96.4916,96.6716 95.5,96.5C 94.5,96.5 93.5,96.5 92.5,96.5C 88.179,129.788 84.179,163.121 80.5,196.5C 74.2054,196.021 68.5387,193.854 63.5,190C 48.4028,176.386 41.7361,159.386 43.5,139C 45.268,134.919 43.9346,132.752 39.5,132.5C 37.9689,131.075 38.3023,130.409 40.5,130.5C 41.8775,131.234 43.3775,131.901 45,132.5C 46.2663,129.534 47.4329,126.534 48.5,123.5C 47.1149,121.117 45.1149,119.45 42.5,118.5C 41.2426,117.377 41.5759,116.711 43.5,116.5C 45.0894,118.306 47.0894,119.639 49.5,120.5C 51.6596,118.169 53.6596,115.669 55.5,113C 52.6286,110.297 49.9619,107.464 47.5,104.5C 47.5,104.167 47.5,103.833 47.5,103.5C 50.4348,106.093 53.4348,108.76 56.5,111.5C 67.173,98.7163 80.8397,93.383 97.5,95.5 Z"/></g>
<g><path style="opacity:1" fill="#fdfdfd" d="M 95.5,96.5 C 115.857,101.028 128.024,113.695 132,134.5C 132.5,141.158 132.666,147.825 132.5,154.5C 131.819,159.15 130.653,163.816 129,168.5C 119.628,190.112 103.461,199.446 80.5,196.5C 84.179,163.121 88.179,129.788 92.5,96.5C 93.5,96.5 94.5,96.5 95.5,96.5 Z"/></g>
<g><path style="opacity:1" fill="#96d0d5" d="M 47.5,104.5 C 49.9619,107.464 52.6286,110.297 55.5,113C 53.6596,115.669 51.6596,118.169 49.5,120.5C 47.0894,119.639 45.0894,118.306 43.5,116.5C 44.2613,112.216 45.5947,108.216 47.5,104.5 Z"/></g>
<g><path style="opacity:1" fill="#93ccd3" d="M 42.5,118.5 C 45.1149,119.45 47.1149,121.117 48.5,123.5C 47.4329,126.534 46.2663,129.534 45,132.5C 43.3775,131.901 41.8775,131.234 40.5,130.5C 40.5304,126.382 41.1971,122.382 42.5,118.5 Z"/></g>
<g><path style="opacity:1" fill="#262a2a" d="M 97.5,95.5 C 103.142,96.8182 108.476,98.9849 113.5,102C 130.902,116.534 137.402,135.034 133,157.5C 132.517,156.552 132.351,155.552 132.5,154.5C 132.666,147.825 132.5,141.158 132,134.5C 128.024,113.695 115.857,101.028 95.5,96.5C 96.4916,96.6716 97.1583,96.3382 97.5,95.5 Z"/></g>
<g><path style="opacity:0.996" fill="#f6cd45" d="M 447.5,166.5 C 480.083,159.782 501.417,172.115 511.5,203.5C 511.5,210.167 511.5,216.833 511.5,223.5C 501.068,256.222 479.068,268.389 445.5,260C 441.697,258.345 438.03,256.511 434.5,254.5C 433.181,237.319 432.515,237.319 432.5,254.5C 422.04,274.624 406.373,289.291 385.5,298.5C 390.485,303.985 395.652,309.319 401,314.5C 408.428,322.606 414.261,331.773 418.5,342C 423.618,360.43 417.285,373.097 399.5,380C 395.23,381.075 390.897,381.575 386.5,381.5C 370.743,381.311 355.743,377.811 341.5,371C 334.167,367 326.833,363 319.5,359C 303.575,359.286 291.741,352.453 284,338.5C 282.682,335.594 282.348,332.594 283,329.5C 284.444,327.845 286.278,327.178 288.5,327.5C 290.902,330.215 293.568,332.715 296.5,335C 297.167,335.667 297.833,335.667 298.5,335C 295.588,331.581 292.254,328.748 288.5,326.5C 286.348,318.324 289.348,315.657 297.5,318.5C 297.337,316.143 297.503,313.81 298,311.5C 298.956,310.106 300.289,309.439 302,309.5C 308.953,311.313 314.287,315.313 318,321.5C 320.935,314.85 325.269,313.85 331,318.5C 332.92,321.339 334.587,324.339 336,327.5C 336.299,331.807 336.466,335.974 336.5,340C 347.108,346.637 358.441,351.637 370.5,355C 374.486,355.499 378.486,355.666 382.5,355.5C 385.518,355.665 388.518,355.498 391.5,355C 392.91,354.632 393.91,353.799 394.5,352.5C 390.943,344.962 386.277,338.295 380.5,332.5C 378.73,322.239 377.397,311.906 376.5,301.5C 337.51,310.626 299.51,307.626 262.5,292.5C 259.365,301.375 256.698,310.375 254.5,319.5C 253.833,319.5 253.5,319.833 253.5,320.5C 206.979,340.316 181.145,324.983 176,274.5C 174.977,262.52 174.477,250.52 174.5,238.5C 182.972,236.097 191.639,234.43 200.5,233.5C 201.137,252.062 203.637,270.396 208,288.5C 209.401,296.568 214.068,301.235 222,302.5C 233.826,300.892 244.659,296.725 254.5,290C 240.852,282.76 229.019,273.26 219,261.5C 212.393,252.95 208.56,243.284 207.5,232.5C 210.63,230.977 213.963,230.311 217.5,230.5C 218.376,230.369 219.043,230.702 219.5,231.5C 217.833,234.833 216.167,238.167 214.5,241.5C 214.833,241.833 215.167,242.167 215.5,242.5C 218.1,238.299 220.434,233.966 222.5,229.5C 236.66,226.527 250.993,223.86 265.5,221.5C 271.771,222.711 278.104,223.378 284.5,223.5C 285.668,207.155 287.001,190.821 288.5,174.5C 282.516,173.926 276.516,173.593 270.5,173.5C 257.207,162.875 244.207,151.875 231.5,140.5C 233.242,137.357 235.242,134.357 237.5,131.5C 256.564,139.026 276.231,143.026 296.5,143.5C 293.706,138.747 291.04,133.914 288.5,129C 288.833,128.833 289.167,128.667 289.5,128.5C 320.427,145.322 353.427,151.822 388.5,148C 381.5,141.667 374.5,135.333 367.5,129C 382.07,134.2 394.57,142.7 405,154.5C 416.809,169.478 427.642,185.145 437.5,201.5C 440.682,189.769 444.015,178.102 447.5,166.5 Z M 380.5,332.5 C 386.277,338.295 390.943,344.962 394.5,352.5C 393.91,353.799 392.91,354.632 391.5,355C 388.518,355.498 385.518,355.665 382.5,355.5C 381.98,347.819 381.313,340.153 380.5,332.5 Z"/></g>
<g><path style="opacity:1" fill="#f3acff" d="M 187.5,146.5 C 187.859,153.615 189.359,160.615 192,167.5C 197.206,172.567 203.372,175.733 210.5,177C 194.488,176.676 185.655,184.509 184,200.5C 183.597,193.815 181.931,187.482 179,181.5C 173.654,176.95 167.487,174.117 160.5,173C 167.266,172.967 173.599,171.3 179.5,168C 184.038,161.556 186.704,154.39 187.5,146.5 Z"/></g>
<g><path style="opacity:1" fill="#4c93fc" d="M 270.5,173.5 C 276.516,173.593 282.516,173.926 288.5,174.5C 287.001,190.821 285.668,207.155 284.5,223.5C 278.104,223.378 271.771,222.711 265.5,221.5C 266.733,205.408 268.399,189.408 270.5,173.5 Z"/></g>
<g><path style="opacity:1" fill="#27200e" d="M 405.5,226.5 C 404.5,226.5 403.5,226.5 402.5,226.5C 402.5,230.833 402.5,235.167 402.5,239.5C 402.773,220.169 399.94,201.169 394,182.5C 384.435,160.326 369.268,155.16 348.5,167C 340.24,176.352 334.74,187.185 332,199.5C 329.654,211.424 327.82,223.424 326.5,235.5C 325.346,211.115 331.512,188.781 345,168.5C 357.759,156.108 371.259,155.275 385.5,166C 393.157,175.127 397.824,185.627 399.5,197.5C 404.578,195.616 409.578,193.783 414.5,192C 410.081,194.627 405.581,197.127 401,199.5C 401.353,203.413 401.52,207.413 401.5,211.5C 406.342,210.957 411.175,210.291 416,209.5C 416.833,209.833 417.667,210.167 418.5,210.5C 413.29,212.088 407.957,212.755 402.5,212.5C 402.5,216.833 402.5,221.167 402.5,225.5C 403.791,225.263 404.791,225.596 405.5,226.5 Z"/></g>
<g><path style="opacity:1" fill="#28220f" d="M 478.5,197.5 C 479.525,197.897 479.692,198.563 479,199.5C 468.317,209.684 457.484,219.684 446.5,229.5C 446.167,229.167 445.833,228.833 445.5,228.5C 456.822,218.511 467.822,208.178 478.5,197.5 Z"/></g>
<g><path style="opacity:1" fill="#251f0e" d="M 405.5,227.5 C 405.5,227.167 405.5,226.833 405.5,226.5C 409.917,226.607 414.251,227.274 418.5,228.5C 418,228.833 417.5,229.167 417,229.5C 413.208,228.562 409.375,227.896 405.5,227.5 Z"/></g>
<g><path style="opacity:1" fill="#7e6823" d="M 405.5,226.5 C 405.5,226.833 405.5,227.167 405.5,227.5C 403.869,231.232 402.869,235.232 402.5,239.5C 402.5,235.167 402.5,230.833 402.5,226.5C 403.5,226.5 404.5,226.5 405.5,226.5 Z"/></g>
<g><path style="opacity:1" fill="#f09253" d="M 217.5,230.5 C 218.919,229.549 220.585,229.216 222.5,229.5C 220.434,233.966 218.1,238.299 215.5,242.5C 215.167,242.167 214.833,241.833 214.5,241.5C 216.167,238.167 217.833,234.833 219.5,231.5C 219.043,230.702 218.376,230.369 217.5,230.5 Z"/></g>
<g><path style="opacity:1" fill="#060401" d="M 329.5,264.5 C 327.276,261.376 324.276,259.209 320.5,258C 310.702,255.435 302.536,257.935 296,265.5C 293.583,269.263 292.083,273.263 291.5,277.5C 278.013,274.153 272.18,265.486 274,251.5C 275.355,246.62 277.855,242.453 281.5,239C 289.406,237.21 294.739,240.21 297.5,248C 299.783,250.19 302.449,250.857 305.5,250C 308.623,246.387 311.956,243.054 315.5,240C 323.97,239.112 329.137,242.946 331,251.5C 331.939,256.136 331.439,260.469 329.5,264.5 Z"/></g>
<g><path style="opacity:1" fill="#f1924d" d="M 238.5,233.5 C 239.124,233.917 239.457,234.584 239.5,235.5C 238.669,240.667 237.335,245.667 235.5,250.5C 235.344,244.754 236.344,239.087 238.5,233.5 Z"/></g>
<g><path style="opacity:1" fill="#0d0a02" d="M 434.5,254.5 C 433.833,254.5 433.167,254.5 432.5,254.5C 432.515,237.319 433.181,237.319 434.5,254.5 Z"/></g>
<g><path style="opacity:0.917" fill="#f5adff" d="M -0.5,279.5 C -0.5,279.167 -0.5,278.833 -0.5,278.5C 7.93919,277.745 15.4392,274.745 22,269.5C 25.8413,261.649 28.1747,253.315 29,244.5C 30.2521,252.512 32.5854,260.178 36,267.5C 37.8734,269.709 40.04,271.542 42.5,273C 48.4203,274.82 54.4203,276.32 60.5,277.5C 55.0838,278.688 49.7505,280.188 44.5,282C 38.8356,284.332 35.3356,288.499 34,294.5C 32.8329,300.17 31.6662,305.837 30.5,311.5C 29.3494,302.55 26.5161,294.217 22,286.5C 15.1667,282.227 7.66665,279.894 -0.5,279.5 Z"/></g>
<g><path style="opacity:0.828" fill="#f5adff" d="M 140.5,249.5 C 142.097,253.561 143.597,257.895 145,262.5C 148.57,264.911 152.403,266.744 156.5,268C 152.332,268.375 148.332,269.375 144.5,271C 141.7,275.058 139.866,279.558 139,284.5C 139.927,273.66 135.093,267.327 124.5,265.5C 134.847,265.153 140.18,259.82 140.5,249.5 Z"/></g>
<g><path style="opacity:1" fill="#f1924e" d="M 257.5,237.5 C 259.288,242.638 259.622,247.971 258.5,253.5C 257.505,248.208 257.172,242.875 257.5,237.5 Z"/></g>
<g><path style="opacity:1" fill="#f1914d" d="M 353.5,248.5 C 354.497,248.47 355.164,248.97 355.5,250C 354.554,254.95 353.221,259.783 351.5,264.5C 351.167,264 350.833,263.5 350.5,263C 351.741,258.205 352.741,253.371 353.5,248.5 Z"/></g>
<g><path style="opacity:1" fill="#ed814e" d="M 329.5,264.5 C 327.747,270.754 323.747,274.921 317.5,277C 308.743,280.046 300.076,280.213 291.5,277.5C 292.083,273.263 293.583,269.263 296,265.5C 302.536,257.935 310.702,255.435 320.5,258C 324.276,259.209 327.276,261.376 329.5,264.5 Z"/></g>
<g><path style="opacity:1" fill="#f1934d" d="M 390.5,248.5 C 391.497,248.47 392.164,248.97 392.5,250C 394.519,254.704 395.686,259.537 396,264.5C 393.555,259.389 391.721,254.056 390.5,248.5 Z"/></g>
<g><path style="opacity:1" fill="#f29d4c" d="M 371.5,250.5 C 372.814,252.915 373.481,255.748 373.5,259C 373.167,261.833 372.833,264.667 372.5,267.5C 371.505,261.872 371.171,256.206 371.5,250.5 Z"/></g>
<g><path style="opacity:0.996" fill="#e747eb" d="M 380.5,332.5 C 381.313,340.153 381.98,347.819 382.5,355.5C 378.486,355.666 374.486,355.499 370.5,355C 358.441,351.637 347.108,346.637 336.5,340C 336.466,335.974 336.299,331.807 336,327.5C 334.587,324.339 332.92,321.339 331,318.5C 325.269,313.85 320.935,314.85 318,321.5C 314.287,315.313 308.953,311.313 302,309.5C 300.289,309.439 298.956,310.106 298,311.5C 297.503,313.81 297.337,316.143 297.5,318.5C 289.348,315.657 286.348,318.324 288.5,326.5C 288.5,326.833 288.5,327.167 288.5,327.5C 286.278,327.178 284.444,327.845 283,329.5C 282.348,332.594 282.682,335.594 284,338.5C 291.741,352.453 303.575,359.286 319.5,359C 326.833,363 334.167,367 341.5,371C 355.743,377.811 370.743,381.311 386.5,381.5C 387.325,391.44 388.658,401.274 390.5,411C 382.815,411.597 375.148,411.43 367.5,410.5C 353.834,410.135 340.168,409.802 326.5,409.5C 314.833,409.5 303.167,409.5 291.5,409.5C 277.995,408.674 264.328,408.007 250.5,407.5C 244.132,407.83 237.798,407.496 231.5,406.5C 239.451,377.981 246.785,349.315 253.5,320.5C 254.167,320.5 254.5,320.167 254.5,319.5C 256.698,310.375 259.365,301.375 262.5,292.5C 299.51,307.626 337.51,310.626 376.5,301.5C 377.397,311.906 378.73,322.239 380.5,332.5 Z"/></g>
<g><path style="opacity:1" fill="#2a230f" d="M 297.5,318.5 C 300.953,320.739 304.286,323.239 307.5,326C 303.217,324.899 299.884,322.399 297.5,318.5 Z"/></g>
<g><path style="opacity:1" fill="#292111" d="M 288.5,326.5 C 292.254,328.748 295.588,331.581 298.5,335C 297.833,335.667 297.167,335.667 296.5,335C 293.568,332.715 290.902,330.215 288.5,327.5C 288.5,327.167 288.5,326.833 288.5,326.5 Z"/></g>
<g><path style="opacity:0.99" fill="#f6cd45" d="M 250.5,407.5 C 264.328,408.007 277.995,408.674 291.5,409.5C 290.589,418.126 290.255,426.792 290.5,435.5C 276.656,435.829 262.99,435.496 249.5,434.5C 249.7,425.494 250.034,416.494 250.5,407.5 Z"/></g>
<g><path style="opacity:0.992" fill="#f5cd47" d="M 326.5,409.5 C 340.168,409.802 353.834,410.135 367.5,410.5C 367.907,419.017 369.24,427.35 371.5,435.5C 357.833,436.833 344.167,436.833 330.5,435.5C 328.368,426.993 327.035,418.327 326.5,409.5 Z"/></g>
<g><path style="opacity:0.987" fill="#5297fe" d="M 249.5,434.5 C 262.99,435.496 276.656,435.829 290.5,435.5C 291.403,444.476 292.07,453.476 292.5,462.5C 278.5,463.833 264.5,463.833 250.5,462.5C 249.123,453.031 248.79,443.697 249.5,434.5 Z"/></g>
<g><path style="opacity:0.987" fill="#5297fe" d="M 330.5,435.5 C 344.167,436.833 357.833,436.833 371.5,435.5C 374.131,444.405 376.798,453.405 379.5,462.5C 365.167,463.833 350.833,463.833 336.5,462.5C 333.018,453.598 331.018,444.598 330.5,435.5 Z"/></g>
<g><path style="opacity:0.992" fill="#9ad5d9" d="M 250.5,462.5 C 264.5,463.833 278.5,463.833 292.5,462.5C 294.288,462.215 295.955,462.548 297.5,463.5C 299.977,471.407 302.144,479.407 304,487.5C 304.414,487.957 304.914,488.291 305.5,488.5C 315.973,483.672 326.973,481.672 338.5,482.5C 336.52,475.911 334.853,469.245 333.5,462.5C 334.5,462.5 335.5,462.5 336.5,462.5C 350.833,463.833 365.167,463.833 379.5,462.5C 381.833,462.5 384.167,462.5 386.5,462.5C 390.342,478.868 394.342,495.201 398.5,511.5C 333.5,511.5 268.5,511.5 203.5,511.5C 203.434,500.791 208.101,492.958 217.5,488C 228.051,483.575 239.051,481.742 250.5,482.5C 248.51,476.195 246.51,469.861 244.5,463.5C 246.396,462.534 248.396,462.201 250.5,462.5 Z"/></g>
<g><path style="opacity:1" fill="#101415" d="M 250.5,482.5 C 252.153,482.66 253.486,483.326 254.5,484.5C 252.62,484.771 251.287,484.104 250.5,482.5 Z"/></g>
<g><path style="opacity:1" fill="#1d2627" d="M 338.5,482.5 C 342.706,483.601 346.706,485.267 350.5,487.5C 350.167,487.833 349.833,488.167 349.5,488.5C 345.579,486.711 341.913,484.711 338.5,482.5 Z"/></g>
<g><path style="opacity:1" fill="#181f20" d="M 254.5,484.5 C 257.516,484.841 260.182,486.007 262.5,488C 259.505,487.671 256.838,486.504 254.5,484.5 Z"/></g>
<g><path style="opacity:1" fill="#0d1111" d="M 294.5,503.5 C 293.662,503.842 293.328,504.508 293.5,505.5C 293.785,507.288 293.452,508.955 292.5,510.5C 291.571,509.311 291.238,507.978 291.5,506.5C 262.831,506.667 234.165,506.5 205.5,506C 234.498,505.5 263.498,505.333 292.5,505.5C 293.791,498.063 297.791,492.896 304.5,490C 299.767,493.552 296.434,498.052 294.5,503.5 Z"/></g>
<g><path style="opacity:1" fill="#455d5f" d="M 294.5,503.5 C 327.336,504.167 360.336,504.833 393.5,505.5C 360.1,506.825 326.767,506.825 293.5,505.5C 293.328,504.508 293.662,503.842 294.5,503.5 Z"/></g>
</svg>
