<?xml version="1.0" standalone="no"?>
<!DOCTYPE svg PUBLIC "-//W3C//DTD SVG 20010904//EN"
 "http://www.w3.org/TR/2001/REC-SVG-20010904/DTD/svg10.dtd">
<svg version="1.0" xmlns="http://www.w3.org/2000/svg"
 width="256.000000pt" height="256.000000pt" viewBox="0 0 256.000000 256.000000"
 preserveAspectRatio="xMidYMid meet">

<g transform="translate(0.000000,256.000000) scale(0.100000,-0.100000)"
fill="#000000" stroke="none">
<path d="M43 2498 c25 -35 250 -355 501 -713 448 -639 455 -650 437 -670 -97
-107 -971 -1107 -971 -1110 0 -3 49 -5 109 -5 l109 0 432 492 c238 271 435
494 439 495 3 1 161 -221 351 -492 l345 -495 378 0 c207 0 377 3 377 6 0 3
-228 331 -507 728 -278 396 -507 728 -507 737 -1 9 204 249 454 534 250 285
461 527 468 537 13 17 8 18 -97 18 l-110 0 -397 -452 c-218 -249 -404 -461
-414 -471 -16 -18 -31 2 -346 452 l-329 470 -383 1 -383 0 44 -62z m1405
-1217 c436 -610 792 -1112 792 -1115 0 -3 -76 -6 -169 -6 l-169 0 -773 1083
c-425 595 -784 1097 -797 1115 l-24 32 174 0 175 0 791 -1109z"/>
</g>
</svg>
